G04*
G04 #@! TF.GenerationSoftware,Altium Limited,Altium Designer,19.1.9 (167)*
G04*
G04 Layer_Color=16711935*
%FSLAX25Y25*%
%MOIN*%
G70*
G01*
G75*
%ADD10C,0.01575*%
%ADD11C,0.00591*%
%ADD12C,0.01000*%
%ADD15C,0.00394*%
D10*
X240614Y236173D02*
X240070Y236922D01*
X239190Y236636D01*
Y235710D01*
X240070Y235424D01*
X240614Y236173D01*
D11*
X276892Y13208D02*
Y39192D01*
X250908D02*
X276892D01*
X250908Y13208D02*
Y39192D01*
Y13208D02*
X276892D01*
X193535Y241535D02*
Y258465D01*
X210465D01*
Y241535D02*
Y258465D01*
X193535Y241535D02*
X210465D01*
X250535Y266035D02*
X267465D01*
X250535D02*
Y282965D01*
X267465D01*
Y266035D02*
Y282965D01*
D12*
X209724Y286724D02*
Y327276D01*
Y286724D02*
X250276D01*
X209724Y327276D02*
X250276D01*
Y286724D02*
Y327276D01*
D15*
X47441Y232874D02*
X50984D01*
X47441Y239567D02*
X50984D01*
X47441Y232874D02*
Y239567D01*
X50984Y232874D02*
Y239567D01*
X62402Y232874D02*
X65945D01*
X62402Y239567D02*
X65945D01*
X62402Y232874D02*
Y239567D01*
X65945Y232874D02*
Y239567D01*
X77362Y232874D02*
X80905D01*
X77362Y239567D02*
X80905D01*
X77362Y232874D02*
Y239567D01*
X80905Y232874D02*
Y239567D01*
X214630Y232630D02*
X243370D01*
Y261370D01*
X214630D02*
X243370D01*
X214630Y232630D02*
Y261370D01*
X319882Y26067D02*
Y68035D01*
X353346D01*
Y26067D02*
Y68035D01*
X319882Y26067D02*
X353346D01*
X317913Y224886D02*
Y266854D01*
X351378D01*
Y224886D02*
Y266854D01*
X317913Y224886D02*
X351378D01*
X317913Y126461D02*
X351378D01*
Y168429D01*
X317913D02*
X351378D01*
X317913Y126461D02*
Y168429D01*
Y325280D02*
Y367248D01*
X351378D01*
Y325280D02*
Y367248D01*
X317913Y325280D02*
X351378D01*
X-10252Y375984D02*
X46835D01*
X-10252Y340551D02*
Y375984D01*
Y340551D02*
X46835D01*
Y375984D01*
X195944Y281738D02*
X203818D01*
X195944D02*
Y286462D01*
X203818D01*
Y281738D02*
Y286462D01*
X195944Y289438D02*
X203818D01*
X195944D02*
Y294162D01*
X203818D01*
Y289438D02*
Y294162D01*
M02*
