M48
;Layer_Color=9474304
;FILE_FORMAT=2:5
INCH,TZ
;TYPE=PLATED
T1F00S00C0.01181
T2F00S00C0.01968
T3F00S00C0.02800
T5F00S00C0.03937
T6F00S00C0.04000
T7F00S00C0.04331
T8F00S00C0.06732
T9F00S00C0.09449
T10F00S00C0.12992
T11F00S00C0.13032
;TYPE=NON_PLATED
T12F00S00C0.03500
T13F00S00C0.05512
%
T01
X180700Y14800
X240200Y22300
X238481Y37324
X225000Y52051
Y60900
X229100Y71500
X232350
X235600
X234000Y74200
X230700
X238100Y74600
X231700Y119100
X227200Y121400
X230000Y144400
X238900Y143000
X234900Y152700
X236459Y164259
X243819Y161119
X249200Y158900
X255519Y152364
X219111Y152600
X213100Y154600
X217348Y183533
X224719Y194419
X224800Y197800
X222900Y200700
X219000Y204800
X215200Y205700
X232100Y204800
X235000Y205700
X232210Y200638
X231800Y197700
X244300Y201700
X244169Y204769
X243900Y207700
X250328Y204194
X253200Y207000
X257000Y207100
X247400Y198600
X208219Y204919
X206000Y208000
X201976Y210819
X197469Y209769
X203100Y200500
X211800Y186500
X206500Y170200
X203338Y152850
X198100Y144700
X192700Y158300
X189600Y156900
X194429Y161202
X172585Y162800
X173300Y186000
X182100Y185800
X186619Y184719
X183219Y191619
X173219Y195519
X146643Y180700
X149200Y174500
X134600Y180700
Y183600
X69000Y181488
Y175976
Y164953
Y159441
X56000
Y153929
Y148417
Y137394
Y131882
Y126370
Y120858
Y115347
X69000
Y120858
Y126370
Y137200
Y142906
X56000Y164953
Y170465
Y181488
Y187000
Y192512
X69000
Y187000
X153800Y129800
X164200Y132400
X167700Y128600
X176721Y121171
X192500Y122900
X196900Y126600
X180500Y84100
X31000Y163900
X34500Y173351
Y181549
X31000Y191000
X49200Y229500
X110000Y269000
X118300Y270400
X122200Y266300
X124700Y274500
X122500Y277000
X124500Y280000
X131600Y287700
X128700Y291526
X110500Y292500
X110000Y287500
Y279000
X109000Y300500
X92200Y301900
X95500Y309100
X101200Y319500
X106900
X112600
X118300
X124000Y330500
X129700
X135400
X129700Y344000
X124000
X165500Y328500
X171500Y323500
X167000Y305500
X167031Y300069
X166350Y294000
X175600Y297300
X174000Y302500
X183800Y305500
X183900Y298200
X183400Y290200
X179000Y279700
X180942Y271842
X174500Y270800
X167463Y263975
X158986Y266829
X158200Y259700
X150000Y262500
X141300Y260500
X135000Y258300
X139900Y279500
X149000
X146414Y276500
X153600Y283400
X154800Y297300
X195747Y294851
X205300Y297800
X205117Y277300
Y273100
X211969Y278169
T02
X62500Y356000
X194300Y280500
X223500Y274500
X243000Y285500
T03
X271000Y19400
X278500
X289600Y62200
X295300Y168100
X202000Y234000
X195000Y259200
Y264800
X177700Y253200
X200500Y307000
X275800Y274800
X275500Y266200
X295400Y265900
X295700Y325000
X334800Y245800
T05
X23622Y45276
X33465
Y64961
X23622
Y55118
X66500Y342000
X76500
X86500
X96500
X236658
X246657
X256658
T06
X57480Y272776
Y282776
Y292776
Y302776
Y312776
X67480Y307776
Y317776
Y287776
Y277776
T07
X86496Y273760
X86496Y283760
X86496Y306791
Y316791
T08
X44488Y263780
Y326772
T09
X57087Y219882
Y252559
T10
X28543Y28543
Y81693
T11
X32480Y272776
Y317776
T12
X218100Y193900
X198100Y197900
Y189900
T13
X325787Y37051
Y57051
X323819Y137445
Y157445
X323819Y235870
Y255870
X323819Y336264
Y356264
M30
