G04*
G04 #@! TF.GenerationSoftware,Altium Limited,Altium Designer,19.1.9 (167)*
G04*
G04 Layer_Color=65535*
%FSLAX25Y25*%
%MOIN*%
G70*
G01*
G75*
%ADD10C,0.01000*%
%ADD11C,0.00600*%
D10*
X323335Y500D02*
X323323Y1500D01*
X323288Y2500D01*
X323231Y3499D01*
X323150Y4496D01*
X323046Y5491D01*
X322919Y6483D01*
X322770Y7472D01*
X322597Y8458D01*
X322402Y9439D01*
X322184Y10415D01*
X321944Y11386D01*
X321681Y12352D01*
X321397Y13310D01*
X321090Y14263D01*
X320761Y15207D01*
X320410Y16144D01*
X320038Y17073D01*
X319645Y17993D01*
X319230Y18903D01*
X318794Y19804D01*
X318338Y20694D01*
X317862Y21573D01*
X317365Y22442D01*
X316848Y23298D01*
X316312Y24143D01*
X315756Y24974D01*
X315181Y25793D01*
X314587Y26598D01*
X313975Y27390D01*
X313345Y28167D01*
X312697Y28929D01*
X312032Y29676D01*
X311349Y30407D01*
X310650Y31123D01*
X309935Y31822D01*
X309203Y32504D01*
X308456Y33170D01*
X307694Y33818D01*
X306917Y34448D01*
X306126Y35060D01*
X305321Y35653D01*
X304502Y36228D01*
X303670Y36784D01*
X302826Y37320D01*
X301969Y37837D01*
X301101Y38334D01*
X300221Y38811D01*
X299331Y39267D01*
X298431Y39702D01*
X297520Y40117D01*
X296601Y40510D01*
X295672Y40883D01*
X294735Y41233D01*
X293790Y41562D01*
X292838Y41869D01*
X291879Y42154D01*
X290914Y42417D01*
X289943Y42657D01*
X288966Y42875D01*
X287985Y43070D01*
X287000Y43242D01*
X286011Y43392D01*
X285018Y43518D01*
X284023Y43622D01*
X283026Y43703D01*
X282028Y43761D01*
X281028Y43795D01*
X280028Y43807D01*
X279027Y43795D01*
X278028Y43761D01*
X277029Y43703D01*
X276032Y43622D01*
X275037Y43518D01*
X274044Y43392D01*
X273055Y43242D01*
X272070Y43070D01*
X271089Y42875D01*
X270112Y42657D01*
X269141Y42417D01*
X268176Y42154D01*
X267217Y41869D01*
X266265Y41562D01*
X265320Y41233D01*
X264383Y40883D01*
X263455Y40510D01*
X262535Y40117D01*
X261625Y39702D01*
X260724Y39267D01*
X259834Y38811D01*
X258954Y38334D01*
X258086Y37837D01*
X257229Y37320D01*
X256385Y36784D01*
X255553Y36228D01*
X254734Y35653D01*
X253929Y35060D01*
X253138Y34448D01*
X252361Y33818D01*
X251599Y33170D01*
X250852Y32504D01*
X250120Y31822D01*
X249405Y31123D01*
X248706Y30407D01*
X248023Y29676D01*
X247358Y28929D01*
X246710Y28166D01*
X246080Y27390D01*
X245468Y26598D01*
X244874Y25793D01*
X244299Y24974D01*
X243743Y24142D01*
X243207Y23298D01*
X242690Y22442D01*
X242194Y21573D01*
X241717Y20694D01*
X241261Y19804D01*
X240825Y18903D01*
X240410Y17992D01*
X240017Y17073D01*
X239645Y16144D01*
X239294Y15207D01*
X238965Y14263D01*
X238658Y13310D01*
X238374Y12351D01*
X238111Y11386D01*
X237871Y10415D01*
X237653Y9439D01*
X237458Y8457D01*
X237285Y7472D01*
X237136Y6483D01*
X237009Y5491D01*
X236905Y4496D01*
X236824Y3499D01*
X236767Y2500D01*
X236732Y1500D01*
X236720Y500D01*
X236732Y-501D01*
X236767Y-1500D01*
X236824Y-2499D01*
X236905Y-3496D01*
X237009Y-4491D01*
X237136Y-5483D01*
X237285Y-6472D01*
X237458Y-7458D01*
X237653Y-8439D01*
X237871Y-9415D01*
X238111Y-10386D01*
X238374Y-11352D01*
X238659Y-12311D01*
X238966Y-13263D01*
X239294Y-14208D01*
X239645Y-15145D01*
X240017Y-16073D01*
X240411Y-16993D01*
X240825Y-17903D01*
X241261Y-18804D01*
X241717Y-19694D01*
X242194Y-20574D01*
X242690Y-21442D01*
X243207Y-22298D01*
X243744Y-23143D01*
X244299Y-23975D01*
X244874Y-24793D01*
X245468Y-25598D01*
X246080Y-26390D01*
X246710Y-27167D01*
X247358Y-27929D01*
X248023Y-28676D01*
X248706Y-29407D01*
X249405Y-30123D01*
X250120Y-30822D01*
X250852Y-31504D01*
X251599Y-32170D01*
X252361Y-32818D01*
X253138Y-33448D01*
X253929Y-34060D01*
X254735Y-34653D01*
X255553Y-35228D01*
X256385Y-35784D01*
X257229Y-36321D01*
X258086Y-36837D01*
X258954Y-37334D01*
X259834Y-37811D01*
X260724Y-38267D01*
X261625Y-38703D01*
X262535Y-39117D01*
X263455Y-39511D01*
X264384Y-39883D01*
X265320Y-40233D01*
X266265Y-40562D01*
X267217Y-40869D01*
X268176Y-41154D01*
X269142Y-41417D01*
X270113Y-41657D01*
X271089Y-41875D01*
X272070Y-42070D01*
X273056Y-42242D01*
X274045Y-42392D01*
X275037Y-42519D01*
X276032Y-42622D01*
X277029Y-42703D01*
X278028Y-42761D01*
X279027Y-42796D01*
X280028Y-42807D01*
X281028Y-42796D01*
X282028Y-42761D01*
X283027Y-42703D01*
X284024Y-42622D01*
X285018Y-42518D01*
X286011Y-42392D01*
X287000Y-42242D01*
X287985Y-42070D01*
X288966Y-41875D01*
X289943Y-41657D01*
X290914Y-41416D01*
X291879Y-41154D01*
X292838Y-40869D01*
X293790Y-40562D01*
X294735Y-40233D01*
X295672Y-39883D01*
X296601Y-39511D01*
X297520Y-39117D01*
X298431Y-38702D01*
X299331Y-38267D01*
X300221Y-37811D01*
X301101Y-37334D01*
X301969Y-36837D01*
X302826Y-36320D01*
X303670Y-35784D01*
X304502Y-35228D01*
X305321Y-34653D01*
X306126Y-34060D01*
X306917Y-33448D01*
X307694Y-32818D01*
X308456Y-32170D01*
X309203Y-31504D01*
X309935Y-30822D01*
X310650Y-30123D01*
X311349Y-29407D01*
X312032Y-28676D01*
X312697Y-27929D01*
X313345Y-27167D01*
X313975Y-26390D01*
X314587Y-25598D01*
X315181Y-24793D01*
X315756Y-23975D01*
X316312Y-23143D01*
X316848Y-22298D01*
X317365Y-21442D01*
X317862Y-20574D01*
X318338Y-19694D01*
X318794Y-18804D01*
X319230Y-17903D01*
X319644Y-16993D01*
X320038Y-16073D01*
X320410Y-15145D01*
X320761Y-14208D01*
X321090Y-13263D01*
X321396Y-12311D01*
X321681Y-11352D01*
X321944Y-10387D01*
X322184Y-9415D01*
X322402Y-8439D01*
X322597Y-7458D01*
X322770Y-6473D01*
X322919Y-5484D01*
X323046Y-4491D01*
X323150Y-3496D01*
X323231Y-2499D01*
X323288Y-1500D01*
X323323Y-501D01*
X323335Y500D01*
X224909Y500D02*
X224898Y1500D01*
X224863Y2500D01*
X224805Y3499D01*
X224725Y4496D01*
X224621Y5491D01*
X224494Y6483D01*
X224344Y7472D01*
X224172Y8458D01*
X223977Y9439D01*
X223759Y10415D01*
X223519Y11386D01*
X223256Y12352D01*
X222971Y13310D01*
X222664Y14263D01*
X222336Y15207D01*
X221985Y16144D01*
X221613Y17073D01*
X221219Y17993D01*
X220805Y18903D01*
X220369Y19804D01*
X219913Y20694D01*
X219436Y21573D01*
X218940Y22442D01*
X218423Y23298D01*
X217886Y24143D01*
X217331Y24974D01*
X216756Y25793D01*
X216162Y26598D01*
X215550Y27390D01*
X214920Y28167D01*
X214272Y28929D01*
X213607Y29676D01*
X212924Y30407D01*
X212225Y31123D01*
X211510Y31822D01*
X210778Y32504D01*
X210031Y33170D01*
X209269Y33818D01*
X208492Y34448D01*
X207701Y35060D01*
X206895Y35653D01*
X206077Y36228D01*
X205245Y36784D01*
X204401Y37320D01*
X203544Y37837D01*
X202676Y38334D01*
X201796Y38811D01*
X200906Y39267D01*
X200005Y39702D01*
X199095Y40117D01*
X198175Y40510D01*
X197247Y40883D01*
X196310Y41233D01*
X195365Y41562D01*
X194413Y41869D01*
X193454Y42154D01*
X192489Y42417D01*
X191517Y42657D01*
X190541Y42875D01*
X189560Y43070D01*
X188575Y43242D01*
X187585Y43392D01*
X186593Y43518D01*
X185598Y43622D01*
X184601Y43703D01*
X183602Y43761D01*
X182603Y43795D01*
X181602Y43807D01*
X180602Y43795D01*
X179602Y43761D01*
X178604Y43703D01*
X177606Y43622D01*
X176611Y43518D01*
X175619Y43392D01*
X174630Y43242D01*
X173645Y43070D01*
X172663Y42875D01*
X171687Y42657D01*
X170716Y42417D01*
X169751Y42154D01*
X168792Y41869D01*
X167840Y41562D01*
X166895Y41233D01*
X165958Y40883D01*
X165029Y40510D01*
X164110Y40117D01*
X163199Y39702D01*
X162299Y39267D01*
X161408Y38811D01*
X160529Y38334D01*
X159661Y37837D01*
X158804Y37320D01*
X157960Y36784D01*
X157128Y36228D01*
X156309Y35653D01*
X155504Y35060D01*
X154713Y34448D01*
X153936Y33818D01*
X153173Y33170D01*
X152427Y32504D01*
X151695Y31822D01*
X150980Y31123D01*
X150280Y30407D01*
X149598Y29676D01*
X148933Y28929D01*
X148285Y28166D01*
X147654Y27390D01*
X147043Y26598D01*
X146449Y25793D01*
X145874Y24974D01*
X145318Y24142D01*
X144782Y23298D01*
X144265Y22442D01*
X143768Y21573D01*
X143292Y20694D01*
X142835Y19804D01*
X142400Y18903D01*
X141985Y17992D01*
X141592Y17073D01*
X141220Y16144D01*
X140869Y15207D01*
X140540Y14263D01*
X140233Y13310D01*
X139948Y12351D01*
X139686Y11386D01*
X139446Y10415D01*
X139228Y9439D01*
X139033Y8457D01*
X138860Y7472D01*
X138710Y6483D01*
X138584Y5491D01*
X138480Y4496D01*
X138399Y3499D01*
X138341Y2500D01*
X138307Y1500D01*
X138295Y500D01*
X138307Y-501D01*
X138341Y-1500D01*
X138399Y-2499D01*
X138480Y-3496D01*
X138584Y-4491D01*
X138711Y-5483D01*
X138860Y-6472D01*
X139033Y-7458D01*
X139228Y-8439D01*
X139446Y-9415D01*
X139686Y-10386D01*
X139948Y-11352D01*
X140233Y-12311D01*
X140540Y-13263D01*
X140869Y-14208D01*
X141220Y-15145D01*
X141592Y-16073D01*
X141985Y-16993D01*
X142400Y-17903D01*
X142835Y-18804D01*
X143292Y-19694D01*
X143768Y-20574D01*
X144265Y-21442D01*
X144782Y-22298D01*
X145318Y-23143D01*
X145874Y-23975D01*
X146449Y-24793D01*
X147043Y-25598D01*
X147655Y-26390D01*
X148285Y-27167D01*
X148933Y-27929D01*
X149598Y-28676D01*
X150281Y-29407D01*
X150980Y-30123D01*
X151695Y-30822D01*
X152427Y-31504D01*
X153174Y-32170D01*
X153936Y-32818D01*
X154713Y-33448D01*
X155504Y-34060D01*
X156309Y-34653D01*
X157128Y-35228D01*
X157960Y-35784D01*
X158804Y-36321D01*
X159661Y-36837D01*
X160529Y-37334D01*
X161409Y-37811D01*
X162299Y-38267D01*
X163199Y-38703D01*
X164110Y-39117D01*
X165030Y-39511D01*
X165958Y-39883D01*
X166895Y-40233D01*
X167840Y-40562D01*
X168792Y-40869D01*
X169751Y-41154D01*
X170716Y-41417D01*
X171687Y-41657D01*
X172664Y-41875D01*
X173645Y-42070D01*
X174630Y-42242D01*
X175619Y-42392D01*
X176612Y-42519D01*
X177607Y-42622D01*
X178604Y-42703D01*
X179603Y-42761D01*
X180602Y-42796D01*
X181603Y-42807D01*
X182603Y-42796D01*
X183603Y-42761D01*
X184601Y-42703D01*
X185598Y-42622D01*
X186593Y-42518D01*
X187586Y-42392D01*
X188575Y-42242D01*
X189560Y-42070D01*
X190541Y-41875D01*
X191518Y-41657D01*
X192489Y-41416D01*
X193454Y-41154D01*
X194413Y-40869D01*
X195365Y-40562D01*
X196310Y-40233D01*
X197247Y-39883D01*
X198175Y-39511D01*
X199095Y-39117D01*
X200005Y-38702D01*
X200906Y-38267D01*
X201796Y-37811D01*
X202676Y-37334D01*
X203544Y-36837D01*
X204401Y-36320D01*
X205245Y-35784D01*
X206077Y-35228D01*
X206895Y-34653D01*
X207701Y-34060D01*
X208492Y-33448D01*
X209269Y-32818D01*
X210031Y-32170D01*
X210778Y-31504D01*
X211509Y-30822D01*
X212225Y-30123D01*
X212924Y-29407D01*
X213607Y-28676D01*
X214272Y-27929D01*
X214920Y-27167D01*
X215550Y-26390D01*
X216162Y-25598D01*
X216756Y-24793D01*
X217331Y-23975D01*
X217886Y-23143D01*
X218423Y-22298D01*
X218939Y-21442D01*
X219436Y-20574D01*
X219913Y-19694D01*
X220369Y-18804D01*
X220805Y-17903D01*
X221219Y-16993D01*
X221613Y-16073D01*
X221985Y-15145D01*
X222336Y-14208D01*
X222664Y-13263D01*
X222971Y-12311D01*
X223256Y-11352D01*
X223519Y-10387D01*
X223759Y-9415D01*
X223977Y-8439D01*
X224172Y-7458D01*
X224344Y-6473D01*
X224494Y-5484D01*
X224621Y-4491D01*
X224725Y-3496D01*
X224805Y-2499D01*
X224863Y-1500D01*
X224898Y-501D01*
X224909Y500D01*
X126484Y500D02*
X126473Y1500D01*
X126438Y2500D01*
X126380Y3499D01*
X126300Y4496D01*
X126196Y5491D01*
X126069Y6483D01*
X125919Y7472D01*
X125747Y8458D01*
X125552Y9439D01*
X125334Y10415D01*
X125094Y11386D01*
X124831Y12352D01*
X124546Y13310D01*
X124239Y14263D01*
X123910Y15207D01*
X123560Y16144D01*
X123188Y17073D01*
X122794Y17993D01*
X122380Y18903D01*
X121944Y19804D01*
X121488Y20694D01*
X121011Y21573D01*
X120514Y22442D01*
X119998Y23298D01*
X119461Y24143D01*
X118905Y24974D01*
X118331Y25793D01*
X117737Y26598D01*
X117125Y27390D01*
X116495Y28167D01*
X115847Y28929D01*
X115182Y29676D01*
X114499Y30407D01*
X113800Y31123D01*
X113084Y31822D01*
X112353Y32504D01*
X111606Y33170D01*
X110844Y33818D01*
X110067Y34448D01*
X109275Y35060D01*
X108470Y35653D01*
X107652Y36228D01*
X106820Y36784D01*
X105975Y37320D01*
X105119Y37837D01*
X104251Y38334D01*
X103371Y38811D01*
X102481Y39267D01*
X101580Y39702D01*
X100670Y40117D01*
X99750Y40510D01*
X98822Y40883D01*
X97885Y41233D01*
X96940Y41562D01*
X95988Y41869D01*
X95029Y42154D01*
X94063Y42417D01*
X93092Y42657D01*
X92116Y42875D01*
X91135Y43070D01*
X90149Y43242D01*
X89160Y43392D01*
X88168Y43518D01*
X87173Y43622D01*
X86176Y43703D01*
X85177Y43761D01*
X84177Y43795D01*
X83177Y43807D01*
X82177Y43795D01*
X81177Y43761D01*
X80178Y43703D01*
X79181Y43622D01*
X78186Y43518D01*
X77194Y43392D01*
X76205Y43242D01*
X75220Y43070D01*
X74238Y42875D01*
X73262Y42657D01*
X72291Y42417D01*
X71326Y42154D01*
X70367Y41869D01*
X69415Y41562D01*
X68470Y41233D01*
X67533Y40883D01*
X66604Y40510D01*
X65684Y40117D01*
X64774Y39702D01*
X63873Y39267D01*
X62983Y38811D01*
X62104Y38334D01*
X61235Y37837D01*
X60379Y37320D01*
X59535Y36784D01*
X58703Y36228D01*
X57884Y35653D01*
X57079Y35060D01*
X56287Y34448D01*
X55510Y33818D01*
X54748Y33170D01*
X54001Y32504D01*
X53270Y31822D01*
X52554Y31123D01*
X51855Y30407D01*
X51173Y29676D01*
X50507Y28929D01*
X49859Y28166D01*
X49229Y27390D01*
X48617Y26598D01*
X48024Y25793D01*
X47449Y24974D01*
X46893Y24142D01*
X46357Y23298D01*
X45840Y22442D01*
X45343Y21573D01*
X44866Y20694D01*
X44410Y19804D01*
X43975Y18903D01*
X43560Y17992D01*
X43167Y17073D01*
X42794Y16144D01*
X42444Y15207D01*
X42115Y14263D01*
X41808Y13310D01*
X41523Y12351D01*
X41261Y11386D01*
X41020Y10415D01*
X40803Y9439D01*
X40607Y8457D01*
X40435Y7472D01*
X40285Y6483D01*
X40159Y5491D01*
X40055Y4496D01*
X39974Y3499D01*
X39916Y2500D01*
X39882Y1500D01*
X39870Y500D01*
X39882Y-501D01*
X39916Y-1500D01*
X39974Y-2499D01*
X40055Y-3496D01*
X40159Y-4491D01*
X40285Y-5483D01*
X40435Y-6472D01*
X40608Y-7458D01*
X40803Y-8439D01*
X41020Y-9415D01*
X41261Y-10386D01*
X41523Y-11352D01*
X41808Y-12311D01*
X42115Y-13263D01*
X42444Y-14208D01*
X42795Y-15145D01*
X43167Y-16073D01*
X43560Y-16993D01*
X43975Y-17903D01*
X44410Y-18804D01*
X44867Y-19694D01*
X45343Y-20574D01*
X45840Y-21442D01*
X46357Y-22298D01*
X46893Y-23143D01*
X47449Y-23975D01*
X48024Y-24793D01*
X48618Y-25598D01*
X49229Y-26390D01*
X49860Y-27167D01*
X50508Y-27929D01*
X51173Y-28676D01*
X51855Y-29407D01*
X52555Y-30123D01*
X53270Y-30822D01*
X54001Y-31504D01*
X54749Y-32170D01*
X55511Y-32818D01*
X56288Y-33448D01*
X57079Y-34060D01*
X57884Y-34653D01*
X58703Y-35228D01*
X59535Y-35784D01*
X60379Y-36321D01*
X61236Y-36837D01*
X62104Y-37334D01*
X62984Y-37811D01*
X63874Y-38267D01*
X64774Y-38703D01*
X65685Y-39117D01*
X66605Y-39511D01*
X67533Y-39883D01*
X68470Y-40233D01*
X69415Y-40562D01*
X70367Y-40869D01*
X71326Y-41154D01*
X72291Y-41417D01*
X73262Y-41657D01*
X74239Y-41875D01*
X75220Y-42070D01*
X76205Y-42242D01*
X77194Y-42392D01*
X78187Y-42519D01*
X79181Y-42622D01*
X80179Y-42703D01*
X81177Y-42761D01*
X82177Y-42796D01*
X83177Y-42807D01*
X84178Y-42796D01*
X85177Y-42761D01*
X86176Y-42703D01*
X87173Y-42622D01*
X88168Y-42518D01*
X89161Y-42392D01*
X90149Y-42242D01*
X91135Y-42070D01*
X92116Y-41875D01*
X93092Y-41657D01*
X94064Y-41416D01*
X95029Y-41154D01*
X95988Y-40869D01*
X96940Y-40562D01*
X97885Y-40233D01*
X98822Y-39883D01*
X99750Y-39511D01*
X100670Y-39117D01*
X101580Y-38702D01*
X102481Y-38267D01*
X103371Y-37811D01*
X104251Y-37334D01*
X105119Y-36837D01*
X105975Y-36320D01*
X106820Y-35784D01*
X107651Y-35228D01*
X108470Y-34653D01*
X109275Y-34060D01*
X110067Y-33448D01*
X110844Y-32818D01*
X111606Y-32170D01*
X112353Y-31504D01*
X113084Y-30822D01*
X113800Y-30123D01*
X114499Y-29407D01*
X115181Y-28676D01*
X115847Y-27929D01*
X116495Y-27167D01*
X117125Y-26390D01*
X117737Y-25598D01*
X118330Y-24793D01*
X118905Y-23975D01*
X119461Y-23143D01*
X119998Y-22298D01*
X120514Y-21442D01*
X121011Y-20574D01*
X121488Y-19694D01*
X121944Y-18804D01*
X122380Y-17903D01*
X122794Y-16993D01*
X123188Y-16073D01*
X123560Y-15145D01*
X123910Y-14208D01*
X124239Y-13263D01*
X124546Y-12311D01*
X124831Y-11352D01*
X125094Y-10387D01*
X125334Y-9415D01*
X125552Y-8439D01*
X125747Y-7458D01*
X125919Y-6473D01*
X126069Y-5484D01*
X126196Y-4491D01*
X126300Y-3496D01*
X126380Y-2499D01*
X126438Y-1500D01*
X126473Y-501D01*
X126484Y500D01*
D11*
X229532Y71133D02*
X231531Y68134D01*
Y71133D02*
X229532Y68134D01*
X232530Y70633D02*
X233030Y71133D01*
X234030D01*
X234530Y70633D01*
Y70133D01*
X234030Y69633D01*
X233530D01*
X234030D01*
X234530Y69134D01*
Y68634D01*
X234030Y68134D01*
X233030D01*
X232530Y68634D01*
X131131Y71133D02*
X133131Y68134D01*
Y71133D02*
X131131Y68134D01*
X136130D02*
X134131D01*
X136130Y70133D01*
Y70633D01*
X135630Y71133D01*
X134630D01*
X134131Y70633D01*
X32732Y71133D02*
X34731Y68134D01*
Y71133D02*
X32732Y68134D01*
X35730D02*
X36730D01*
X36230D01*
Y71133D01*
X35730Y70633D01*
M02*
