G04*
G04 #@! TF.GenerationSoftware,Altium Limited,Altium Designer,19.1.9 (167)*
G04*
G04 Layer_Color=16711935*
%FSLAX25Y25*%
%MOIN*%
G70*
G01*
G75*
%ADD31C,0.03937*%
D31*
X23622Y49213D02*
X22603Y49078D01*
X21654Y48685D01*
X20838Y48059D01*
X20212Y47244D01*
X19819Y46295D01*
X19685Y45276D01*
X15748Y25591D02*
X16767Y25725D01*
X17717Y26118D01*
X18532Y26744D01*
X19158Y27559D01*
X19551Y28509D01*
X19685Y29528D01*
X3937Y25591D02*
X2918Y25456D01*
X1969Y25063D01*
X1153Y24437D01*
X527Y23622D01*
X134Y22672D01*
X-0Y21654D01*
X0Y-32480D02*
X134Y-33499D01*
X527Y-34449D01*
X1153Y-35264D01*
X1969Y-35890D01*
X2918Y-36283D01*
X3937Y-36417D01*
X19685Y-40354D02*
X19551Y-39335D01*
X19158Y-38386D01*
X18532Y-37570D01*
X17717Y-36945D01*
X16767Y-36551D01*
X15748Y-36417D01*
X19685Y-45276D02*
X19819Y-46295D01*
X20212Y-47244D01*
X20838Y-48059D01*
X21654Y-48685D01*
X22603Y-49078D01*
X23622Y-49213D01*
X338583D02*
X339602Y-49078D01*
X340551Y-48685D01*
X341367Y-48059D01*
X341992Y-47244D01*
X342386Y-46295D01*
X342520Y-45276D01*
X346457Y-36417D02*
X345438Y-36551D01*
X344488Y-36945D01*
X343673Y-37570D01*
X343047Y-38386D01*
X342654Y-39335D01*
X342520Y-40354D01*
X358268Y-36417D02*
X359287Y-36283D01*
X360236Y-35890D01*
X361052Y-35264D01*
X361677Y-34449D01*
X362071Y-33499D01*
X362205Y-32480D01*
X362205Y21654D02*
X362071Y22672D01*
X361677Y23622D01*
X361052Y24437D01*
X360236Y25063D01*
X359287Y25456D01*
X358268Y25591D01*
X342520Y29528D02*
X342654Y28509D01*
X343047Y27559D01*
X343673Y26744D01*
X344488Y26118D01*
X345438Y25725D01*
X346457Y25591D01*
X342520Y45276D02*
X342386Y46295D01*
X341992Y47244D01*
X341367Y48059D01*
X340551Y48685D01*
X339602Y49078D01*
X338583Y49213D01*
X0Y-32480D02*
Y21654D01*
X23622Y49213D02*
X338583D01*
X19685Y29528D02*
Y45276D01*
X3937Y25591D02*
X15748D01*
X3937Y-36417D02*
X15748D01*
X19685Y-45276D02*
Y-40354D01*
X23622Y-49213D02*
X338583D01*
X342520Y-45276D02*
Y-40354D01*
X346457Y-36417D02*
X358268D01*
X362205Y-32480D02*
Y21654D01*
X346457Y25591D02*
X358268D01*
X342520Y29528D02*
Y45276D01*
M02*
