M48
;Layer_Color=9474304
;FILE_FORMAT=2:5
INCH,TZ
;TYPE=PLATED
T1F00S00C0.01181
T2F00S00C0.02800
T3F00S00C0.04724
T4F00S00C0.06299
%
T01
X64734Y16634
X68800Y22736
X87566Y16634
X90200Y4600
X162466Y16634
X167000Y26300
X186167Y16867
X188500Y4800
X260000Y16634
X265400Y27100
X284334Y16634
X287028Y4372
T02
X16500Y7392
X46600Y7800
T03
X82677Y-16732
X181102
X279528
T04
X67677Y0
X97677
X166102
X196102
X264528
X294528
M30
