G04*
G04 #@! TF.GenerationSoftware,Altium Limited,Altium Designer,19.1.9 (167)*
G04*
G04 Layer_Physical_Order=1*
G04 Layer_Color=255*
%FSLAX25Y25*%
%MOIN*%
G70*
G01*
G75*
%ADD10C,0.01000*%
%ADD15C,0.02000*%
%ADD16C,0.09449*%
%ADD17C,0.07087*%
%ADD18C,0.05000*%
%ADD19C,0.02362*%
G36*
X342520Y45276D02*
Y29528D01*
X346457Y25591D01*
X358268D01*
X358268Y25591D01*
X362205Y21654D01*
Y-32480D01*
X358268Y-36417D01*
X346457D01*
X342520Y-40354D01*
Y-45420D01*
X343000Y-45900D01*
X339687Y-49213D01*
X23622D01*
X19685Y-45276D01*
Y-40354D01*
X15748Y-36417D01*
X3937D01*
X0Y-32480D01*
Y21654D01*
X-0Y21654D01*
X3937Y25591D01*
X15748D01*
X15748Y25591D01*
X19685Y29528D01*
Y45276D01*
X23622Y49213D01*
X338583D01*
X342520Y45276D01*
D02*
G37*
%LPC*%
G36*
X265900Y29224D02*
Y27600D01*
X267524D01*
X267455Y27951D01*
X266972Y28673D01*
X266251Y29155D01*
X265900Y29224D01*
D02*
G37*
G36*
X264900D02*
X264549Y29155D01*
X263827Y28673D01*
X263345Y27951D01*
X263276Y27600D01*
X264900D01*
Y29224D01*
D02*
G37*
G36*
X167500Y28424D02*
Y26800D01*
X169124D01*
X169054Y27151D01*
X168572Y27872D01*
X167851Y28355D01*
X167500Y28424D01*
D02*
G37*
G36*
X267524Y26600D02*
X265900D01*
Y24976D01*
X266251Y25045D01*
X266972Y25528D01*
X267455Y26249D01*
X267524Y26600D01*
D02*
G37*
G36*
X264900D02*
X263276D01*
X263345Y26249D01*
X263827Y25528D01*
X264549Y25045D01*
X264900Y24976D01*
Y26600D01*
D02*
G37*
G36*
X169124Y25800D02*
X167500D01*
Y24176D01*
X167851Y24245D01*
X168572Y24727D01*
X169054Y25449D01*
X169124Y25800D01*
D02*
G37*
G36*
X69300Y24861D02*
Y23236D01*
X70924D01*
X70855Y23587D01*
X70372Y24309D01*
X69651Y24791D01*
X69300Y24861D01*
D02*
G37*
G36*
X70924Y22236D02*
X69300D01*
Y20612D01*
X69651Y20682D01*
X70372Y21164D01*
X70855Y21885D01*
X70924Y22236D01*
D02*
G37*
G36*
X51308Y44239D02*
X50528Y44084D01*
X49866Y43642D01*
X17071Y10847D01*
X16500Y10922D01*
X15586Y10802D01*
X14735Y10449D01*
X14004Y9888D01*
X13443Y9157D01*
X13090Y8306D01*
X12970Y7392D01*
X13090Y6478D01*
X13443Y5627D01*
X14004Y4896D01*
X14735Y4335D01*
X15586Y3982D01*
X16500Y3862D01*
X17414Y3982D01*
X18265Y4335D01*
X18996Y4896D01*
X19557Y5627D01*
X19910Y6478D01*
X20030Y7392D01*
X19955Y7963D01*
X52153Y40161D01*
X62695D01*
Y17508D01*
X62679Y17485D01*
X62510Y16634D01*
X62679Y15783D01*
X63161Y15061D01*
X63883Y14579D01*
X64734Y14410D01*
X65585Y14579D01*
X66306Y15061D01*
X66335Y15104D01*
X85965D01*
X85994Y15061D01*
X86715Y14579D01*
X87566Y14410D01*
X88417Y14579D01*
X89139Y15061D01*
X89621Y15783D01*
X89790Y16634D01*
X89621Y17485D01*
X89139Y18206D01*
X88417Y18688D01*
X87566Y18858D01*
X86715Y18688D01*
X85994Y18206D01*
X85965Y18163D01*
X66773D01*
Y21012D01*
X67273Y21133D01*
X67949Y20682D01*
X68300Y20612D01*
Y22736D01*
Y24861D01*
X67949Y24791D01*
X67273Y24339D01*
X66773Y24460D01*
Y40161D01*
X160427D01*
Y17508D01*
X160412Y17485D01*
X160242Y16634D01*
X160412Y15783D01*
X160894Y15061D01*
X161615Y14579D01*
X162466Y14410D01*
X163317Y14579D01*
X163340Y14595D01*
X185836D01*
X186123Y14652D01*
X186167Y14643D01*
X187018Y14812D01*
X187739Y15294D01*
X188222Y16016D01*
X188391Y16867D01*
X188222Y17718D01*
X187739Y18439D01*
X187018Y18922D01*
X186167Y19091D01*
X185316Y18922D01*
X184944Y18673D01*
X164505D01*
Y25276D01*
X164573Y25303D01*
X165005Y25359D01*
X165427Y24727D01*
X166149Y24245D01*
X166500Y24176D01*
Y26300D01*
Y28424D01*
X166149Y28355D01*
X165427Y27872D01*
X165005Y27241D01*
X164573Y27297D01*
X164505Y27324D01*
Y40161D01*
X233655D01*
X257924Y15892D01*
X257945Y15783D01*
X258428Y15061D01*
X259149Y14579D01*
X260000Y14410D01*
X260851Y14579D01*
X260874Y14595D01*
X283460D01*
X283483Y14579D01*
X284334Y14410D01*
X285185Y14579D01*
X285906Y15061D01*
X286388Y15783D01*
X286558Y16634D01*
X286388Y17485D01*
X285906Y18206D01*
X285185Y18688D01*
X284334Y18858D01*
X283483Y18688D01*
X283460Y18673D01*
X260911D01*
X235942Y43642D01*
X235280Y44084D01*
X234500Y44239D01*
X51308D01*
X51308Y44239D01*
D02*
G37*
G36*
X47100Y11264D02*
Y8300D01*
X50064D01*
X50010Y8714D01*
X49657Y9565D01*
X49096Y10296D01*
X48365Y10857D01*
X47514Y11210D01*
X47100Y11264D01*
D02*
G37*
G36*
X46100D02*
X45686Y11210D01*
X44835Y10857D01*
X44104Y10296D01*
X43543Y9565D01*
X43190Y8714D01*
X43136Y8300D01*
X46100D01*
Y11264D01*
D02*
G37*
G36*
X189000Y6924D02*
Y5300D01*
X190624D01*
X190554Y5651D01*
X190073Y6373D01*
X189351Y6855D01*
X189000Y6924D01*
D02*
G37*
G36*
X188000D02*
X187649Y6855D01*
X186927Y6373D01*
X186445Y5651D01*
X186376Y5300D01*
X188000D01*
Y6924D01*
D02*
G37*
G36*
X90700Y6724D02*
Y5100D01*
X92324D01*
X92255Y5451D01*
X91773Y6173D01*
X91051Y6655D01*
X90700Y6724D01*
D02*
G37*
G36*
X89700D02*
X89349Y6655D01*
X88627Y6173D01*
X88146Y5451D01*
X88076Y5100D01*
X89700D01*
Y6724D01*
D02*
G37*
G36*
X287528Y6497D02*
Y4872D01*
X289152D01*
X289082Y5223D01*
X288600Y5945D01*
X287879Y6427D01*
X287528Y6497D01*
D02*
G37*
G36*
X286528D02*
X286176Y6427D01*
X285455Y5945D01*
X284973Y5223D01*
X284903Y4872D01*
X286528D01*
Y6497D01*
D02*
G37*
G36*
X50064Y7300D02*
X47100D01*
Y4336D01*
X47514Y4390D01*
X48365Y4743D01*
X49096Y5304D01*
X49657Y6035D01*
X50010Y6886D01*
X50064Y7300D01*
D02*
G37*
G36*
X46100D02*
X43136D01*
X43190Y6886D01*
X43543Y6035D01*
X44104Y5304D01*
X44835Y4743D01*
X45686Y4390D01*
X46100Y4336D01*
Y7300D01*
D02*
G37*
G36*
X190624Y4300D02*
X189000D01*
Y2676D01*
X189351Y2745D01*
X190073Y3227D01*
X190554Y3949D01*
X190624Y4300D01*
D02*
G37*
G36*
X188000D02*
X186376D01*
X186445Y3949D01*
X186927Y3227D01*
X187649Y2745D01*
X188000Y2676D01*
Y4300D01*
D02*
G37*
G36*
X92324Y4100D02*
X90700D01*
Y2476D01*
X91051Y2545D01*
X91773Y3028D01*
X92255Y3749D01*
X92324Y4100D01*
D02*
G37*
G36*
X89700D02*
X88076D01*
X88146Y3749D01*
X88627Y3028D01*
X89349Y2545D01*
X89700Y2476D01*
Y4100D01*
D02*
G37*
G36*
X289152Y3872D02*
X287528D01*
Y2248D01*
X287879Y2318D01*
X288600Y2800D01*
X289082Y3521D01*
X289152Y3872D01*
D02*
G37*
G36*
X286528D02*
X284903D01*
X284973Y3521D01*
X285455Y2800D01*
X286176Y2318D01*
X286528Y2248D01*
Y3872D01*
D02*
G37*
G36*
X295028Y5708D02*
Y500D01*
X300236D01*
X300105Y1494D01*
X299528Y2887D01*
X298610Y4083D01*
X297414Y5000D01*
X296022Y5577D01*
X295028Y5708D01*
D02*
G37*
G36*
X294028D02*
X293033Y5577D01*
X291641Y5000D01*
X290445Y4083D01*
X289527Y2887D01*
X288950Y1494D01*
X288820Y500D01*
X294028D01*
Y5708D01*
D02*
G37*
G36*
X196602D02*
Y500D01*
X201810D01*
X201679Y1494D01*
X201103Y2887D01*
X200185Y4083D01*
X198989Y5000D01*
X197597Y5577D01*
X196602Y5708D01*
D02*
G37*
G36*
X195602D02*
X194608Y5577D01*
X193216Y5000D01*
X192020Y4083D01*
X191102Y2887D01*
X190525Y1494D01*
X190394Y500D01*
X195602D01*
Y5708D01*
D02*
G37*
G36*
X98177D02*
Y500D01*
X103385D01*
X103254Y1494D01*
X102677Y2887D01*
X101760Y4083D01*
X100564Y5000D01*
X99172Y5577D01*
X98177Y5708D01*
D02*
G37*
G36*
X97177D02*
X96183Y5577D01*
X94790Y5000D01*
X93594Y4083D01*
X92677Y2887D01*
X92100Y1494D01*
X91969Y500D01*
X97177D01*
Y5708D01*
D02*
G37*
G36*
X300236Y-500D02*
X295028D01*
Y-5708D01*
X296022Y-5577D01*
X297414Y-5000D01*
X298610Y-4083D01*
X299528Y-2887D01*
X300105Y-1494D01*
X300236Y-500D01*
D02*
G37*
G36*
X294028D02*
X288820D01*
X288950Y-1494D01*
X289527Y-2887D01*
X290445Y-4083D01*
X291641Y-5000D01*
X293033Y-5577D01*
X294028Y-5708D01*
Y-500D01*
D02*
G37*
G36*
X201810D02*
X196602D01*
Y-5708D01*
X197597Y-5577D01*
X198989Y-5000D01*
X200185Y-4083D01*
X201103Y-2887D01*
X201679Y-1494D01*
X201810Y-500D01*
D02*
G37*
G36*
X195602D02*
X190394D01*
X190525Y-1494D01*
X191102Y-2887D01*
X192020Y-4083D01*
X193216Y-5000D01*
X194608Y-5577D01*
X195602Y-5708D01*
Y-500D01*
D02*
G37*
G36*
X103385D02*
X98177D01*
Y-5708D01*
X99172Y-5577D01*
X100564Y-5000D01*
X101760Y-4083D01*
X102677Y-2887D01*
X103254Y-1494D01*
X103385Y-500D01*
D02*
G37*
G36*
X97177D02*
X91969D01*
X92100Y-1494D01*
X92677Y-2887D01*
X93594Y-4083D01*
X94790Y-5000D01*
X96183Y-5577D01*
X97177Y-5708D01*
Y-500D01*
D02*
G37*
G36*
X264528Y5774D02*
X263033Y5577D01*
X261641Y5000D01*
X260445Y4083D01*
X259527Y2887D01*
X258950Y1494D01*
X258754Y0D01*
X258950Y-1494D01*
X259527Y-2887D01*
X260445Y-4083D01*
X261641Y-5000D01*
X263033Y-5577D01*
X264528Y-5774D01*
X266022Y-5577D01*
X267414Y-5000D01*
X268610Y-4083D01*
X269528Y-2887D01*
X270105Y-1494D01*
X270301Y0D01*
X270105Y1494D01*
X269528Y2887D01*
X268610Y4083D01*
X267414Y5000D01*
X266022Y5577D01*
X264528Y5774D01*
D02*
G37*
G36*
X166102D02*
X164608Y5577D01*
X163215Y5000D01*
X162020Y4083D01*
X161102Y2887D01*
X160525Y1494D01*
X160328Y0D01*
X160525Y-1494D01*
X161102Y-2887D01*
X162020Y-4083D01*
X163215Y-5000D01*
X164608Y-5577D01*
X166102Y-5774D01*
X167597Y-5577D01*
X168989Y-5000D01*
X170185Y-4083D01*
X171103Y-2887D01*
X171679Y-1494D01*
X171876Y0D01*
X171679Y1494D01*
X171103Y2887D01*
X170185Y4083D01*
X168989Y5000D01*
X167597Y5577D01*
X166102Y5774D01*
D02*
G37*
G36*
X67677D02*
X66183Y5577D01*
X64790Y5000D01*
X63595Y4083D01*
X62677Y2887D01*
X62100Y1494D01*
X61903Y0D01*
X62100Y-1494D01*
X62677Y-2887D01*
X63595Y-4083D01*
X64790Y-5000D01*
X66183Y-5577D01*
X67677Y-5774D01*
X69172Y-5577D01*
X70564Y-5000D01*
X71760Y-4083D01*
X72677Y-2887D01*
X73254Y-1494D01*
X73451Y0D01*
X73254Y1494D01*
X72677Y2887D01*
X71760Y4083D01*
X70564Y5000D01*
X69172Y5577D01*
X67677Y5774D01*
D02*
G37*
G36*
X279528Y-12150D02*
X278342Y-12306D01*
X277236Y-12764D01*
X276287Y-13492D01*
X275559Y-14441D01*
X275101Y-15546D01*
X274945Y-16732D01*
X275101Y-17918D01*
X275559Y-19024D01*
X276287Y-19973D01*
X277236Y-20701D01*
X278342Y-21159D01*
X279528Y-21315D01*
X280714Y-21159D01*
X281819Y-20701D01*
X282768Y-19973D01*
X283496Y-19024D01*
X283954Y-17918D01*
X284110Y-16732D01*
X283954Y-15546D01*
X283496Y-14441D01*
X282768Y-13492D01*
X281819Y-12764D01*
X280714Y-12306D01*
X279528Y-12150D01*
D02*
G37*
G36*
X181102D02*
X179916Y-12306D01*
X178811Y-12764D01*
X177862Y-13492D01*
X177134Y-14441D01*
X176676Y-15546D01*
X176520Y-16732D01*
X176676Y-17918D01*
X177134Y-19024D01*
X177862Y-19973D01*
X178811Y-20701D01*
X179916Y-21159D01*
X181102Y-21315D01*
X182288Y-21159D01*
X183394Y-20701D01*
X184343Y-19973D01*
X185071Y-19024D01*
X185529Y-17918D01*
X185685Y-16732D01*
X185529Y-15546D01*
X185071Y-14441D01*
X184343Y-13492D01*
X183394Y-12764D01*
X182288Y-12306D01*
X181102Y-12150D01*
D02*
G37*
G36*
X82677D02*
X81491Y-12306D01*
X80386Y-12764D01*
X79437Y-13492D01*
X78709Y-14441D01*
X78251Y-15546D01*
X78095Y-16732D01*
X78251Y-17918D01*
X78709Y-19024D01*
X79437Y-19973D01*
X80386Y-20701D01*
X81491Y-21159D01*
X82677Y-21315D01*
X83863Y-21159D01*
X84968Y-20701D01*
X85918Y-19973D01*
X86646Y-19024D01*
X87103Y-17918D01*
X87260Y-16732D01*
X87103Y-15546D01*
X86646Y-14441D01*
X85918Y-13492D01*
X84968Y-12764D01*
X83863Y-12306D01*
X82677Y-12150D01*
D02*
G37*
%LPD*%
D10*
X64734Y16634D02*
X87566D01*
D15*
X234500Y42200D02*
X260066Y16634D01*
X260000D02*
X260066D01*
X284334D01*
X186069Y16867D02*
X186167D01*
X185836Y16634D02*
X186069Y16867D01*
X162466Y16634D02*
X185836D01*
X64734D02*
Y42034D01*
X64900Y42200D02*
X162466D01*
X51308D02*
X64900D01*
X64734Y42034D02*
X64900Y42200D01*
X162466D02*
X234500D01*
X162466Y16634D02*
Y42200D01*
X16500Y7392D02*
X51308Y42200D01*
D16*
X264528Y0D02*
D03*
X294528D02*
D03*
X166102D02*
D03*
X196102D02*
D03*
X67677D02*
D03*
X97677D02*
D03*
D17*
X279528Y-16732D02*
D03*
X181102D02*
D03*
X82677D02*
D03*
D18*
X46600Y7800D02*
D03*
X16500Y7392D02*
D03*
D19*
X87566Y16634D02*
D03*
X284334D02*
D03*
X186167Y16867D02*
D03*
X287028Y4372D02*
D03*
X188500Y4800D02*
D03*
X90200Y4600D02*
D03*
X64734Y16634D02*
D03*
X162466D02*
D03*
X260000D02*
D03*
X68800Y22736D02*
D03*
X167000Y26300D02*
D03*
X265400Y27100D02*
D03*
M02*
