G04*
G04 #@! TF.GenerationSoftware,Altium Limited,Altium Designer,19.1.9 (167)*
G04*
G04 Layer_Physical_Order=2*
G04 Layer_Color=16711680*
%FSLAX25Y25*%
%MOIN*%
G70*
G01*
G75*
%ADD10C,0.01000*%
%ADD11C,0.00600*%
%ADD16C,0.09449*%
%ADD17C,0.07087*%
%ADD18C,0.05000*%
%ADD19C,0.02362*%
%ADD20R,0.03937X0.12205*%
%ADD21R,0.03347X0.03347*%
%ADD22R,0.03150X0.03150*%
%ADD23O,0.02362X0.07480*%
%ADD24C,0.03000*%
D10*
X178602Y28937D02*
X181084D01*
X67677Y0D02*
X76900D01*
X87566Y16634D02*
X93669Y22736D01*
X96457D01*
X284334Y16634D02*
X290436Y22736D01*
X293307D01*
X186167Y16867D02*
X192036Y22736D01*
X194882D01*
X299500Y28937D02*
X300363D01*
X287028D02*
X299500D01*
X299606Y28831D01*
Y22950D02*
Y28831D01*
X293307Y16634D02*
X293324Y16650D01*
X299606D01*
X188602Y28937D02*
X198863D01*
X201181Y26619D01*
Y22835D02*
Y26619D01*
X194882Y16634D02*
X194980Y16535D01*
X201181D01*
X96457Y16634D02*
X96555Y16535D01*
X102756D01*
X90177Y28937D02*
X100163D01*
X102756Y26344D01*
Y22835D02*
Y26344D01*
X340500Y-15400D02*
Y3685D01*
X299985Y44200D02*
X340500Y3685D01*
X84100Y44200D02*
X299985D01*
X335709Y-3032D02*
Y5648D01*
X299157Y42200D02*
X335709Y5648D01*
X100800Y42200D02*
X299157D01*
X325709Y-3032D02*
Y12820D01*
X298328Y40200D02*
X325709Y12820D01*
X178700Y40200D02*
X298328D01*
X322240Y-16840D02*
Y13460D01*
X297500Y38200D02*
X322240Y13460D01*
X191400Y38200D02*
X297500D01*
X320000Y-15900D02*
Y12700D01*
X297100Y35600D02*
X320000Y12700D01*
X274800Y35600D02*
X297100D01*
X315709Y-3032D02*
Y13591D01*
X300363Y28937D02*
X315709Y13591D01*
X337211Y-18689D02*
X340500Y-15400D01*
X337177Y-18689D02*
X337211D01*
X335709Y-20157D02*
X337177Y-18689D01*
X335709Y-24291D02*
Y-20157D01*
X287028Y4372D02*
Y10433D01*
X282028Y-13103D02*
Y10433D01*
X279528Y-15603D02*
X282028Y-13103D01*
X279528Y-16732D02*
Y-15603D01*
X181102Y28937D02*
X183602D01*
X188500Y4800D02*
Y10331D01*
X188602Y10433D01*
X82677Y28937D02*
X85177D01*
X80177D02*
X82677D01*
X68800Y13900D02*
X72267Y10433D01*
X75177D01*
X68800Y13900D02*
Y16634D01*
X90200Y4600D02*
Y10410D01*
X90177Y10433D02*
X90200Y10410D01*
X324240Y-22823D02*
Y-18840D01*
X322240Y-16840D02*
X324240Y-18840D01*
X317177Y-18723D02*
X320000Y-15900D01*
X317177Y-22823D02*
Y-18723D01*
X64734Y16634D02*
X68800D01*
X167000Y13700D02*
X170267Y10433D01*
X167000Y13700D02*
Y16634D01*
X162466D02*
X167000D01*
X260000D02*
X265400D01*
X16496Y7388D02*
X16500Y7392D01*
X26496Y-3032D02*
X27965Y-4500D01*
X268567Y10433D02*
X272028D01*
X265400Y13600D02*
X268567Y10433D01*
X265400Y13600D02*
Y16634D01*
X170267Y10433D02*
X173602D01*
X90177Y31577D02*
X100800Y42200D01*
X90177Y28937D02*
Y31577D01*
X75177Y35277D02*
X84100Y44200D01*
X75177Y28937D02*
Y35277D01*
X324240Y-22823D02*
X325709Y-24291D01*
X188602Y35402D02*
X191400Y38200D01*
X188602Y28937D02*
Y35402D01*
X173602Y28937D02*
Y35102D01*
X178700Y40200D01*
X315709Y-24291D02*
X317177Y-22823D01*
X82677Y-16732D02*
Y-15603D01*
X85177Y-13103D01*
Y10433D01*
X76900Y0D02*
X80177Y3277D01*
Y10433D01*
X166102Y0D02*
X177500D01*
X178602Y1102D01*
Y10433D01*
X181102Y-16732D02*
Y-15603D01*
X183602Y-13103D01*
Y10433D01*
X167000Y22736D02*
Y26300D01*
X265400Y22736D02*
Y27100D01*
X272258Y33058D02*
X274800Y35600D01*
X272258Y29167D02*
Y33058D01*
X272028Y28937D02*
X272258Y29167D01*
X264528Y0D02*
X273800D01*
X277028Y3228D01*
Y10433D01*
D11*
X181084Y-5717D02*
Y28937D01*
X149500Y-37300D02*
X181084Y-5717D01*
X28029Y-29958D02*
X32769Y-34698D01*
X244100Y-38900D02*
X279528Y-3472D01*
X37100Y-38900D02*
X244100D01*
X32898Y-34698D02*
X37100Y-38900D01*
X279528Y-3472D02*
Y28937D01*
X32769Y-34698D02*
X32898D01*
X26496Y-28296D02*
X28094Y-29894D01*
X26496Y-28425D02*
Y-28296D01*
Y-28425D02*
X28029Y-29958D01*
X279528Y28937D02*
X282028D01*
X277028D02*
X279528D01*
X45300Y-37300D02*
X149500D01*
X38165Y-30165D02*
X45300Y-37300D01*
X38165Y-30165D02*
Y-30094D01*
X37171Y-29100D02*
X38165Y-30094D01*
X37100Y-29100D02*
X37171D01*
X26496Y-28296D02*
Y-24291D01*
X68900Y-11700D02*
X82677Y2077D01*
X31100Y-11700D02*
X68900D01*
X28234Y-8834D02*
X31100Y-11700D01*
X28165Y-8834D02*
X28234D01*
X26496Y-7165D02*
X28165Y-8834D01*
X26496Y-7165D02*
Y-3032D01*
X82677Y2077D02*
Y28937D01*
D16*
X264528Y0D02*
D03*
X294528D02*
D03*
X166102D02*
D03*
X196102D02*
D03*
X67677D02*
D03*
X97677D02*
D03*
D17*
X279528Y-16732D02*
D03*
X181102D02*
D03*
X82677D02*
D03*
D18*
X46600Y7800D02*
D03*
X16500Y7392D02*
D03*
D19*
X87566Y16634D02*
D03*
X284334D02*
D03*
X186167Y16867D02*
D03*
X287028Y4372D02*
D03*
X188500Y4800D02*
D03*
X90200Y4600D02*
D03*
X64734Y16634D02*
D03*
X162466D02*
D03*
X260000D02*
D03*
X68800Y22736D02*
D03*
X167000Y26300D02*
D03*
X265400Y27100D02*
D03*
D20*
X46496Y-24291D02*
D03*
X36496D02*
D03*
X46496Y-3032D02*
D03*
X36496D02*
D03*
X26496Y-24291D02*
D03*
Y-3032D02*
D03*
X16496D02*
D03*
Y-24291D02*
D03*
X116890Y-3032D02*
D03*
X126890D02*
D03*
X116890Y-24291D02*
D03*
X126890D02*
D03*
X136890Y-3032D02*
D03*
Y-24291D02*
D03*
X146890D02*
D03*
Y-3032D02*
D03*
X215315Y-3039D02*
D03*
X225315D02*
D03*
X215315Y-24299D02*
D03*
X225315D02*
D03*
X235315Y-3039D02*
D03*
Y-24299D02*
D03*
X245315D02*
D03*
Y-3039D02*
D03*
X315709Y-3032D02*
D03*
X325709D02*
D03*
X315709Y-24291D02*
D03*
X325709D02*
D03*
X335709Y-3032D02*
D03*
Y-24291D02*
D03*
X345709D02*
D03*
Y-3032D02*
D03*
D21*
X96457Y22736D02*
D03*
Y16634D02*
D03*
X194882Y22736D02*
D03*
Y16634D02*
D03*
X293307Y22736D02*
D03*
Y16634D02*
D03*
X68800Y22736D02*
D03*
Y16634D02*
D03*
X167000Y22736D02*
D03*
Y16634D02*
D03*
X265400Y22736D02*
D03*
Y16634D02*
D03*
D22*
X201181Y22835D02*
D03*
Y16535D02*
D03*
X299606Y22950D02*
D03*
Y16650D02*
D03*
X102756Y22835D02*
D03*
Y16535D02*
D03*
D23*
X90177Y10433D02*
D03*
X85177D02*
D03*
X80177D02*
D03*
X75177D02*
D03*
X90177Y28937D02*
D03*
X85177D02*
D03*
X80177D02*
D03*
X75177D02*
D03*
X188602Y10433D02*
D03*
X183602D02*
D03*
X178602D02*
D03*
X173602D02*
D03*
X188602Y28937D02*
D03*
X183602D02*
D03*
X178602D02*
D03*
X173602D02*
D03*
X287028Y10433D02*
D03*
X282028D02*
D03*
X277028D02*
D03*
X272028D02*
D03*
X287028Y28937D02*
D03*
X282028D02*
D03*
X277028D02*
D03*
X272028D02*
D03*
D24*
X46496Y-3032D02*
X46600Y-2928D01*
Y7800D01*
X16496Y-3032D02*
Y7388D01*
M02*
