G04*
G04 #@! TF.GenerationSoftware,Altium Limited,Altium Designer,19.1.9 (167)*
G04*
G04 Layer_Color=32768*
%FSLAX25Y25*%
%MOIN*%
G70*
G01*
G75*
%ADD32C,0.00394*%
D32*
X31496Y-15630D02*
Y-11693D01*
X29528Y-13661D02*
X33465D01*
X10709Y-31181D02*
X52284D01*
Y3858D01*
X10709D02*
X52284D01*
X10709Y-31181D02*
Y3858D01*
X131890Y-15630D02*
Y-11693D01*
X129921Y-13661D02*
X133858D01*
X111102Y3858D02*
X152677D01*
X111102Y-31181D02*
Y3858D01*
Y-31181D02*
X152677D01*
Y3858D01*
X230315Y-15638D02*
Y-11701D01*
X228346Y-13669D02*
X232283D01*
X209528Y3850D02*
X251102D01*
X209528Y-31189D02*
Y3850D01*
Y-31189D02*
X251102D01*
Y3850D01*
X330709Y-15630D02*
Y-11693D01*
X328740Y-13661D02*
X332677D01*
X309921Y3858D02*
X351496D01*
X309921Y-31181D02*
Y3858D01*
Y-31181D02*
X351496D01*
Y3858D01*
X198622Y25689D02*
X203740D01*
X198622Y13681D02*
X203740D01*
X198622D02*
Y25689D01*
X203740Y13681D02*
Y25689D01*
X201181Y17913D02*
Y21457D01*
X199409Y19685D02*
X202953D01*
X297047Y25804D02*
X302165D01*
X297047Y13796D02*
X302165D01*
X297047D02*
Y25804D01*
X302165Y13796D02*
Y25804D01*
X299606Y18028D02*
Y21572D01*
X297835Y19800D02*
X301378D01*
X100197Y25689D02*
X105315D01*
X100197Y13681D02*
X105315D01*
X100197D02*
Y25689D01*
X105315Y13681D02*
Y25689D01*
X102756Y17913D02*
Y21457D01*
X100984Y19685D02*
X104528D01*
X80709D02*
X84646D01*
X82677Y17717D02*
Y21654D01*
X92913Y6299D02*
Y33071D01*
X72441Y6299D02*
Y33071D01*
Y6299D02*
X92913D01*
X72441Y33071D02*
X92913D01*
X179134Y19685D02*
X183071D01*
X181102Y17717D02*
Y21654D01*
X191339Y6299D02*
Y33071D01*
X170866Y6299D02*
Y33071D01*
Y6299D02*
X191339D01*
X170866Y33071D02*
X191339D01*
X277559Y19685D02*
X281496D01*
X279528Y17717D02*
Y21654D01*
X289764Y6299D02*
Y33071D01*
X269291Y6299D02*
Y33071D01*
Y6299D02*
X289764D01*
X269291Y33071D02*
X289764D01*
M02*
