G04*
G04 #@! TF.GenerationSoftware,Altium Limited,Altium Designer,19.1.9 (167)*
G04*
G04 Layer_Color=32896*
%FSLAX25Y25*%
%MOIN*%
G70*
G01*
G75*
%ADD10C,0.01000*%
%ADD11C,0.00600*%
%ADD29C,0.00984*%
%ADD30C,0.00787*%
G36*
X140220Y44637D02*
X141072D01*
Y44542D01*
X141640D01*
Y44448D01*
X142113D01*
Y44353D01*
X142587D01*
Y44258D01*
X143060D01*
Y44164D01*
X143533D01*
Y44069D01*
X143912D01*
Y43974D01*
X144385D01*
Y43880D01*
X144859D01*
Y43785D01*
X145048D01*
Y43690D01*
Y43596D01*
Y43501D01*
Y43406D01*
X145142D01*
Y43312D01*
X145048D01*
Y43217D01*
X145142D01*
Y43122D01*
Y43028D01*
Y42933D01*
X145048D01*
Y42838D01*
Y42744D01*
Y42649D01*
Y42554D01*
Y42460D01*
Y42365D01*
X144953D01*
Y42270D01*
Y42176D01*
X144859D01*
Y42081D01*
X144764D01*
Y41986D01*
X144669D01*
Y41892D01*
Y41797D01*
X144574D01*
Y41702D01*
X144480D01*
Y41608D01*
X144385D01*
Y41513D01*
X144290D01*
Y41418D01*
Y41324D01*
X144196D01*
Y41229D01*
X144101D01*
Y41134D01*
Y41040D01*
X144007D01*
Y40945D01*
Y40850D01*
Y40756D01*
X143912D01*
Y40661D01*
Y40566D01*
Y40472D01*
Y40377D01*
X143817D01*
Y40282D01*
Y40188D01*
Y40093D01*
X143722D01*
Y39998D01*
Y39904D01*
Y39809D01*
X143628D01*
Y39714D01*
Y39620D01*
Y39525D01*
Y39430D01*
X143533D01*
Y39336D01*
Y39241D01*
Y39146D01*
X143438D01*
Y39052D01*
Y38957D01*
Y38862D01*
X143344D01*
Y38768D01*
Y38673D01*
Y38578D01*
X143249D01*
Y38484D01*
Y38389D01*
X143155D01*
Y38294D01*
Y38200D01*
Y38105D01*
X143060D01*
Y38010D01*
Y37916D01*
Y37821D01*
X142965D01*
Y37726D01*
Y37632D01*
X142870D01*
Y37537D01*
Y37442D01*
X142776D01*
Y37348D01*
Y37253D01*
Y37158D01*
X142681D01*
Y37064D01*
X142587D01*
Y36969D01*
Y36874D01*
X142492D01*
Y36780D01*
Y36685D01*
X142397D01*
Y36590D01*
X142303D01*
Y36496D01*
X142208D01*
Y36401D01*
Y36306D01*
X142018D01*
Y36212D01*
X141924D01*
Y36117D01*
X141829D01*
Y36022D01*
X141640D01*
Y35928D01*
X141545D01*
Y35833D01*
X141356D01*
Y35738D01*
X141166D01*
Y35644D01*
X140977D01*
Y35549D01*
X140693D01*
Y35454D01*
X140409D01*
Y35360D01*
X140031D01*
Y35265D01*
X139652D01*
Y35170D01*
X138895D01*
Y35076D01*
X137380D01*
Y35170D01*
X136528D01*
Y35265D01*
X136149D01*
Y35360D01*
X135865D01*
Y35454D01*
X135581D01*
Y35549D01*
X135392D01*
Y35644D01*
X135203D01*
Y35738D01*
X135013D01*
Y35833D01*
X134919D01*
Y35928D01*
X134729D01*
Y36022D01*
X134635D01*
Y36117D01*
X134540D01*
Y36212D01*
X134351D01*
Y36306D01*
X134256D01*
Y36401D01*
X134161D01*
Y36496D01*
X134067D01*
Y36590D01*
X133972D01*
Y36685D01*
X133877D01*
Y36780D01*
X133783D01*
Y36874D01*
Y36969D01*
X133688D01*
Y37064D01*
X133593D01*
Y37158D01*
X133499D01*
Y37253D01*
X133404D01*
Y37348D01*
Y37442D01*
X133309D01*
Y37537D01*
X133215D01*
Y37632D01*
Y37726D01*
X133120D01*
Y37821D01*
X133025D01*
Y37916D01*
Y38010D01*
X132931D01*
Y38105D01*
Y38200D01*
X132836D01*
Y38294D01*
Y38389D01*
X132741D01*
Y38484D01*
X132647D01*
Y38578D01*
Y38673D01*
Y38768D01*
X132552D01*
Y38862D01*
Y38957D01*
X132457D01*
Y39052D01*
Y39146D01*
X132363D01*
Y39241D01*
Y39336D01*
Y39430D01*
X132268D01*
Y39525D01*
Y39620D01*
Y39714D01*
X132173D01*
Y39809D01*
Y39904D01*
Y39998D01*
Y40093D01*
X132079D01*
Y40188D01*
Y40282D01*
Y40377D01*
X131984D01*
Y40472D01*
Y40566D01*
Y40661D01*
X131889D01*
Y40756D01*
Y40850D01*
X131795D01*
Y40945D01*
Y41040D01*
X131700D01*
Y41134D01*
Y41229D01*
X131605D01*
Y41324D01*
X131511D01*
Y41418D01*
X131227D01*
Y41513D01*
X130564D01*
Y41418D01*
X130091D01*
Y41324D01*
X129996D01*
Y41229D01*
X129901D01*
Y41134D01*
X129807D01*
Y41040D01*
X129712D01*
Y40945D01*
X129617D01*
Y40850D01*
Y40756D01*
X129523D01*
Y40661D01*
Y40566D01*
X129428D01*
Y40472D01*
Y40377D01*
Y40282D01*
X129333D01*
Y40188D01*
Y40093D01*
Y39998D01*
X129239D01*
Y39904D01*
Y39809D01*
Y39714D01*
X129144D01*
Y39620D01*
Y39525D01*
Y39430D01*
X129049D01*
Y39336D01*
Y39241D01*
Y39146D01*
X128955D01*
Y39052D01*
Y38957D01*
X128860D01*
Y38862D01*
Y38768D01*
Y38673D01*
X128765D01*
Y38578D01*
Y38484D01*
X128671D01*
Y38389D01*
Y38294D01*
X128576D01*
Y38200D01*
Y38105D01*
X128481D01*
Y38010D01*
Y37916D01*
X128387D01*
Y37821D01*
Y37726D01*
X128292D01*
Y37632D01*
X128197D01*
Y37537D01*
Y37442D01*
X128103D01*
Y37348D01*
X128008D01*
Y37253D01*
Y37158D01*
X127913D01*
Y37064D01*
X127819D01*
Y36969D01*
X127724D01*
Y36874D01*
X127629D01*
Y36780D01*
X127535D01*
Y36685D01*
X127440D01*
Y36590D01*
X127345D01*
Y36496D01*
X127251D01*
Y36401D01*
X127156D01*
Y36306D01*
X127061D01*
Y36212D01*
X126872D01*
Y36117D01*
X126777D01*
Y36022D01*
X126588D01*
Y35928D01*
X126399D01*
Y35833D01*
X126304D01*
Y35738D01*
X126020D01*
Y35644D01*
X125831D01*
Y35549D01*
X125547D01*
Y35454D01*
X125263D01*
Y35360D01*
X124979D01*
Y35265D01*
X124505D01*
Y35170D01*
X122139D01*
Y35265D01*
X121666D01*
Y35360D01*
X121287D01*
Y35454D01*
X121098D01*
Y35549D01*
X120814D01*
Y35644D01*
X120624D01*
Y35738D01*
X120435D01*
Y35833D01*
X120246D01*
Y35928D01*
X120056D01*
Y36022D01*
X119962D01*
Y36117D01*
X119867D01*
Y36212D01*
X119677D01*
Y36306D01*
X119583D01*
Y36401D01*
X119488D01*
Y36496D01*
X119394D01*
Y36590D01*
X119299D01*
Y36685D01*
X119204D01*
Y36780D01*
X119109D01*
Y36874D01*
X119015D01*
Y36969D01*
Y37064D01*
X118920D01*
Y37158D01*
X118825D01*
Y37253D01*
Y37348D01*
X118731D01*
Y37442D01*
Y37537D01*
X118636D01*
Y37632D01*
Y37726D01*
X118542D01*
Y37821D01*
Y37916D01*
X118447D01*
Y38010D01*
Y38105D01*
Y38200D01*
X118352D01*
Y38294D01*
Y38389D01*
Y38484D01*
X118257D01*
Y38578D01*
Y38673D01*
Y38768D01*
X118163D01*
Y38862D01*
Y38957D01*
Y39052D01*
X118068D01*
Y39146D01*
Y39241D01*
Y39336D01*
Y39430D01*
X117973D01*
Y39525D01*
Y39620D01*
Y39714D01*
Y39809D01*
X117879D01*
Y39904D01*
Y39998D01*
Y40093D01*
X117784D01*
Y40188D01*
Y40282D01*
Y40377D01*
Y40472D01*
X117690D01*
Y40566D01*
Y40661D01*
Y40756D01*
Y40850D01*
X117595D01*
Y40945D01*
Y41040D01*
X117500D01*
Y41134D01*
Y41229D01*
Y41324D01*
X117405D01*
Y41418D01*
Y41513D01*
X117311D01*
Y41608D01*
X117216D01*
Y41702D01*
X117122D01*
Y41797D01*
X117027D01*
Y41892D01*
X116932D01*
Y41986D01*
X116838D01*
Y42081D01*
X116743D01*
Y42176D01*
X116648D01*
Y42270D01*
Y42365D01*
Y42460D01*
Y42554D01*
Y42649D01*
Y42744D01*
Y42838D01*
Y42933D01*
Y43028D01*
Y43122D01*
Y43217D01*
Y43312D01*
Y43406D01*
Y43501D01*
Y43596D01*
Y43690D01*
X116743D01*
Y43785D01*
X117122D01*
Y43880D01*
X117595D01*
Y43974D01*
X117973D01*
Y44069D01*
X118352D01*
Y44164D01*
X118636D01*
Y44258D01*
X119015D01*
Y44353D01*
X119488D01*
Y44448D01*
X120056D01*
Y44542D01*
X120719D01*
Y44637D01*
X121571D01*
Y44732D01*
X123464D01*
Y44637D01*
X124222D01*
Y44542D01*
X124884D01*
Y44448D01*
X125357D01*
Y44353D01*
X125925D01*
Y44258D01*
X126493D01*
Y44164D01*
X126967D01*
Y44069D01*
X127440D01*
Y43974D01*
X127913D01*
Y43880D01*
X128481D01*
Y43785D01*
X129049D01*
Y43690D01*
X130469D01*
Y43596D01*
X131321D01*
Y43690D01*
X132457D01*
Y43785D01*
X133025D01*
Y43880D01*
X133499D01*
Y43974D01*
X133972D01*
Y44069D01*
X134351D01*
Y44164D01*
X134824D01*
Y44258D01*
X135297D01*
Y44353D01*
X135865D01*
Y44448D01*
X136528D01*
Y44542D01*
X137380D01*
Y44637D01*
X138421D01*
Y44732D01*
X140220D01*
Y44637D01*
D02*
G37*
G36*
X124695Y27786D02*
X124600D01*
Y27881D01*
X124695D01*
Y27786D01*
D02*
G37*
G36*
X148456Y32709D02*
Y32614D01*
Y32520D01*
Y32425D01*
Y32331D01*
Y32236D01*
Y32141D01*
Y32046D01*
Y31952D01*
Y31857D01*
Y31762D01*
Y31668D01*
Y31573D01*
Y31479D01*
Y31384D01*
Y31289D01*
X148550D01*
Y31194D01*
X148456D01*
Y31100D01*
X148550D01*
Y31005D01*
Y30911D01*
Y30816D01*
Y30721D01*
Y30626D01*
Y30532D01*
Y30437D01*
Y30343D01*
Y30248D01*
Y30153D01*
Y30059D01*
Y29964D01*
Y29869D01*
Y29774D01*
Y29680D01*
Y29585D01*
Y29491D01*
Y29396D01*
Y29301D01*
Y29206D01*
Y29112D01*
Y29017D01*
Y28923D01*
Y28828D01*
Y28733D01*
Y28638D01*
Y28544D01*
Y28449D01*
Y28354D01*
Y28260D01*
Y28165D01*
Y28071D01*
Y27976D01*
Y27881D01*
Y27786D01*
Y27692D01*
Y27597D01*
X148645D01*
Y27503D01*
Y27408D01*
Y27313D01*
Y27218D01*
Y27124D01*
Y27029D01*
Y26934D01*
Y26840D01*
Y26745D01*
Y26651D01*
Y26556D01*
Y26461D01*
Y26366D01*
Y26272D01*
Y26177D01*
Y26083D01*
Y25988D01*
Y25893D01*
Y25798D01*
Y25704D01*
Y25609D01*
Y25515D01*
Y25420D01*
Y25325D01*
Y25231D01*
Y25136D01*
Y25041D01*
Y24947D01*
Y24852D01*
Y24757D01*
Y24663D01*
Y24568D01*
Y24473D01*
Y24379D01*
Y24284D01*
Y24189D01*
Y24095D01*
Y24000D01*
Y23905D01*
Y23811D01*
Y23716D01*
Y23621D01*
Y23527D01*
Y23432D01*
Y23337D01*
Y23243D01*
Y23148D01*
Y23053D01*
Y22959D01*
Y22864D01*
Y22769D01*
Y22675D01*
Y22580D01*
X148740D01*
Y22485D01*
X148645D01*
Y22391D01*
X148740D01*
Y22296D01*
Y22201D01*
Y22107D01*
X148645D01*
Y22012D01*
X148740D01*
Y21917D01*
Y21823D01*
Y21728D01*
Y21633D01*
Y21539D01*
Y21444D01*
Y21349D01*
Y21255D01*
Y21160D01*
Y21065D01*
Y20971D01*
Y20876D01*
Y20781D01*
Y20687D01*
Y20592D01*
Y20497D01*
Y20403D01*
Y20308D01*
Y20213D01*
Y20119D01*
Y20024D01*
Y19929D01*
Y19835D01*
Y19740D01*
Y19645D01*
Y19551D01*
Y19456D01*
Y19361D01*
Y19267D01*
Y19172D01*
Y19077D01*
Y18983D01*
Y18888D01*
Y18793D01*
Y18699D01*
Y18604D01*
Y18509D01*
Y18415D01*
X148645D01*
Y18320D01*
X148550D01*
Y18225D01*
X148456D01*
Y18131D01*
Y18036D01*
X148361D01*
Y17941D01*
X148266D01*
Y17847D01*
X148172D01*
Y17752D01*
Y17657D01*
X148077D01*
Y17563D01*
X147982D01*
Y17468D01*
X147888D01*
Y17373D01*
Y17279D01*
X147793D01*
Y17184D01*
X147698D01*
Y17089D01*
X147604D01*
Y16995D01*
X147509D01*
Y16900D01*
Y16805D01*
X147414D01*
Y16711D01*
X147320D01*
Y16616D01*
X147225D01*
Y16521D01*
Y16427D01*
X147130D01*
Y16332D01*
X147036D01*
Y16237D01*
X146941D01*
Y16143D01*
Y16048D01*
X146846D01*
Y15953D01*
X146752D01*
Y15859D01*
X146657D01*
Y15764D01*
Y15669D01*
X146562D01*
Y15575D01*
X146468D01*
Y15480D01*
X146373D01*
Y15385D01*
X146279D01*
Y15291D01*
Y15196D01*
X146184D01*
Y15101D01*
X146089D01*
Y15007D01*
X145994D01*
Y14912D01*
Y14817D01*
X145900D01*
Y14723D01*
X145805D01*
Y14628D01*
X145711D01*
Y14533D01*
Y14439D01*
X145616D01*
Y14344D01*
X145521D01*
Y14249D01*
X145426D01*
Y14155D01*
Y14060D01*
X145332D01*
Y13965D01*
X145237D01*
Y13871D01*
X145142D01*
Y13776D01*
X145048D01*
Y13681D01*
Y13587D01*
X144953D01*
Y13492D01*
X144859D01*
Y13397D01*
X144764D01*
Y13303D01*
Y13208D01*
X144669D01*
Y13113D01*
X144574D01*
Y13019D01*
X144480D01*
Y12924D01*
Y12829D01*
X144385D01*
Y12735D01*
X144290D01*
Y12640D01*
X144196D01*
Y12545D01*
Y12451D01*
X144101D01*
Y12356D01*
X144007D01*
Y12261D01*
X143912D01*
Y12167D01*
Y12072D01*
X143817D01*
Y11977D01*
X143722D01*
Y11883D01*
X143628D01*
Y11788D01*
Y11693D01*
X143533D01*
Y11599D01*
X143438D01*
Y11504D01*
X143344D01*
Y11409D01*
X143249D01*
Y11315D01*
Y11220D01*
X143060D01*
Y11125D01*
X142870D01*
Y11031D01*
X142681D01*
Y10936D01*
X142492D01*
Y10841D01*
X142303D01*
Y10747D01*
X142113D01*
Y10652D01*
X141924D01*
Y10557D01*
X141829D01*
Y10463D01*
X141545D01*
Y10368D01*
X141451D01*
Y10273D01*
X141261D01*
Y10179D01*
X141072D01*
Y10084D01*
X140883D01*
Y9989D01*
X140693D01*
Y9895D01*
X140504D01*
Y9800D01*
X140314D01*
Y9705D01*
X140125D01*
Y9611D01*
X139936D01*
Y9516D01*
X139747D01*
Y9421D01*
X139557D01*
Y9327D01*
X139368D01*
Y9232D01*
X139179D01*
Y9137D01*
X138989D01*
Y9043D01*
X138800D01*
Y8948D01*
X138611D01*
Y8854D01*
X138421D01*
Y8759D01*
X138232D01*
Y8664D01*
X138043D01*
Y8569D01*
X137853D01*
Y8475D01*
X137664D01*
Y8380D01*
X137475D01*
Y8286D01*
X137285D01*
Y8191D01*
X137096D01*
Y8096D01*
X136907D01*
Y8002D01*
X136717D01*
Y7907D01*
X135771D01*
Y7812D01*
X134729D01*
Y7717D01*
X134161D01*
Y7812D01*
X134067D01*
Y7907D01*
X133972D01*
Y8002D01*
X133877D01*
Y8096D01*
X133783D01*
Y8191D01*
X133688D01*
Y8286D01*
X133593D01*
Y8380D01*
X133499D01*
Y8475D01*
X133404D01*
Y8569D01*
X133309D01*
Y8664D01*
X133215D01*
Y8759D01*
X133120D01*
Y8854D01*
X133025D01*
Y8948D01*
X132931D01*
Y9043D01*
X132836D01*
Y9137D01*
X132741D01*
Y9232D01*
X132647D01*
Y9327D01*
X132552D01*
Y9421D01*
X132457D01*
Y9516D01*
X132268D01*
Y9611D01*
X132173D01*
Y9705D01*
X132079D01*
Y9800D01*
X131984D01*
Y9895D01*
X131889D01*
Y9989D01*
X131795D01*
Y10084D01*
X131700D01*
Y10179D01*
X131605D01*
Y10273D01*
X131511D01*
Y10368D01*
X131416D01*
Y10463D01*
X131321D01*
Y10557D01*
X131227D01*
Y10652D01*
X131132D01*
Y10747D01*
X127913D01*
Y10841D01*
X127819D01*
Y10936D01*
X127724D01*
Y11031D01*
X127629D01*
Y11125D01*
X127535D01*
Y11220D01*
X127251D01*
Y11315D01*
X127345D01*
Y11409D01*
Y11504D01*
Y11599D01*
Y11693D01*
X127251D01*
Y11788D01*
X127440D01*
Y11693D01*
X127629D01*
Y11788D01*
X127819D01*
Y11883D01*
X127913D01*
Y11977D01*
X128008D01*
Y12072D01*
X128103D01*
Y12167D01*
Y12261D01*
Y12356D01*
Y12451D01*
Y12545D01*
X128008D01*
Y12640D01*
X127913D01*
Y12735D01*
X127819D01*
Y12829D01*
X127724D01*
Y12924D01*
X127629D01*
Y13019D01*
X127440D01*
Y13113D01*
X127345D01*
Y13208D01*
X127251D01*
Y13303D01*
X127156D01*
Y13397D01*
X127061D01*
Y13492D01*
X126872D01*
Y13397D01*
X126683D01*
Y13492D01*
X126777D01*
Y13587D01*
X126872D01*
Y13681D01*
Y13776D01*
Y13871D01*
X126967D01*
Y13965D01*
Y14060D01*
Y14155D01*
Y14249D01*
Y14344D01*
X126872D01*
Y14439D01*
Y14533D01*
X126777D01*
Y14628D01*
Y14723D01*
X126683D01*
Y14817D01*
X126588D01*
Y14912D01*
X126493D01*
Y15007D01*
X126399D01*
Y15101D01*
X126304D01*
Y15196D01*
X126209D01*
Y15291D01*
X126115D01*
Y15385D01*
X126020D01*
Y15480D01*
X125925D01*
Y15575D01*
X125831D01*
Y15669D01*
X125736D01*
Y15764D01*
X125641D01*
Y15859D01*
X125547D01*
Y15953D01*
X125452D01*
Y16048D01*
X125357D01*
Y16143D01*
X125168D01*
Y16237D01*
X125073D01*
Y16332D01*
X124979D01*
Y16427D01*
X124884D01*
Y16521D01*
X124789D01*
Y16616D01*
X124695D01*
Y16711D01*
X124600D01*
Y16805D01*
X124505D01*
Y16900D01*
X124411D01*
Y16995D01*
X124316D01*
Y17089D01*
X124222D01*
Y17184D01*
X124127D01*
Y17279D01*
X124032D01*
Y17373D01*
X123937D01*
Y17468D01*
X123748D01*
Y17563D01*
X123464D01*
Y17657D01*
X123180D01*
Y17563D01*
X122896D01*
Y17468D01*
X122707D01*
Y17373D01*
X122612D01*
Y17468D01*
Y17563D01*
X122707D01*
Y17657D01*
Y17752D01*
X122612D01*
Y17847D01*
X122518D01*
Y17941D01*
X122423D01*
Y18036D01*
X122328D01*
Y18131D01*
X122233D01*
Y18225D01*
X122139D01*
Y18320D01*
X122044D01*
Y18415D01*
X121950D01*
Y18509D01*
X121855D01*
Y18604D01*
X121760D01*
Y18699D01*
X121666D01*
Y18793D01*
X121287D01*
Y18699D01*
X121192D01*
Y18793D01*
Y18888D01*
X121098D01*
Y18983D01*
X121003D01*
Y19077D01*
X120908D01*
Y19172D01*
X120814D01*
Y19267D01*
X120719D01*
Y19361D01*
X120624D01*
Y19456D01*
X120529D01*
Y19551D01*
X120435D01*
Y19645D01*
X120340D01*
Y19740D01*
X120246D01*
Y19835D01*
X120151D01*
Y19929D01*
X120056D01*
Y20024D01*
X119962D01*
Y20119D01*
X119867D01*
Y20213D01*
X119772D01*
Y20308D01*
X119677D01*
Y20403D01*
X119583D01*
Y20497D01*
X119488D01*
Y20592D01*
X119394D01*
Y20687D01*
X119299D01*
Y20781D01*
X113714D01*
Y20876D01*
Y20971D01*
Y21065D01*
Y21160D01*
Y21255D01*
Y21349D01*
Y21444D01*
Y21539D01*
Y21633D01*
Y21728D01*
Y21823D01*
Y21917D01*
Y22012D01*
Y22107D01*
Y22201D01*
Y22296D01*
Y22391D01*
Y22485D01*
Y22580D01*
Y22675D01*
Y22769D01*
Y22864D01*
Y22959D01*
Y23053D01*
Y23148D01*
Y23243D01*
Y23337D01*
Y23432D01*
Y23527D01*
Y23621D01*
Y23716D01*
Y23811D01*
Y23905D01*
Y24000D01*
Y24095D01*
Y24189D01*
Y24284D01*
Y24379D01*
Y24473D01*
Y24568D01*
Y24663D01*
Y24757D01*
X113808D01*
Y24663D01*
X113903D01*
Y24568D01*
X113998D01*
Y24473D01*
X114092D01*
Y24379D01*
X114187D01*
Y24284D01*
X114282D01*
Y24189D01*
X114376D01*
Y24095D01*
X114471D01*
Y24000D01*
X114566D01*
Y23905D01*
X114660D01*
Y23811D01*
X114755D01*
Y23716D01*
X114850D01*
Y23621D01*
X114944D01*
Y23527D01*
X115039D01*
Y23432D01*
X115134D01*
Y23337D01*
X115323D01*
Y23243D01*
X115418D01*
Y23148D01*
X115512D01*
Y23053D01*
X115607D01*
Y22959D01*
X115702D01*
Y22864D01*
X115796D01*
Y22769D01*
X115891D01*
Y22675D01*
X115986D01*
Y22580D01*
X116080D01*
Y22485D01*
X116175D01*
Y22391D01*
X116270D01*
Y22296D01*
X116364D01*
Y22201D01*
X116459D01*
Y22107D01*
X116554D01*
Y22012D01*
X116648D01*
Y21917D01*
X116743D01*
Y21823D01*
X124979D01*
Y21728D01*
X124884D01*
Y21633D01*
Y21539D01*
Y21444D01*
Y21349D01*
Y21255D01*
Y21160D01*
Y21065D01*
Y20971D01*
Y20876D01*
Y20781D01*
Y20687D01*
Y20592D01*
Y20497D01*
Y20403D01*
Y20308D01*
Y20213D01*
X124979D01*
Y20119D01*
Y20024D01*
Y19929D01*
Y19835D01*
Y19740D01*
Y19645D01*
Y19551D01*
Y19456D01*
X125073D01*
Y19361D01*
X126209D01*
Y19267D01*
X126777D01*
Y19172D01*
Y19077D01*
Y18983D01*
Y18888D01*
Y18793D01*
Y18699D01*
Y18604D01*
X126683D01*
Y18509D01*
X126588D01*
Y18415D01*
X126493D01*
Y18320D01*
X126399D01*
Y18225D01*
X126304D01*
Y18131D01*
Y18036D01*
X126399D01*
Y17941D01*
X126493D01*
Y17847D01*
X126588D01*
Y17752D01*
X126683D01*
Y17847D01*
X126777D01*
Y17941D01*
X126872D01*
Y18036D01*
X126967D01*
Y18131D01*
X127061D01*
Y18225D01*
X127156D01*
Y18320D01*
X127251D01*
Y18415D01*
Y18509D01*
Y18604D01*
Y18699D01*
Y18793D01*
Y18888D01*
Y18983D01*
Y19077D01*
Y19172D01*
Y19267D01*
X128576D01*
Y19361D01*
X128765D01*
Y19456D01*
Y19551D01*
X128860D01*
Y19645D01*
Y19740D01*
Y19835D01*
X128955D01*
Y19929D01*
Y20024D01*
Y20119D01*
X129049D01*
Y20213D01*
Y20308D01*
X129144D01*
Y20403D01*
Y20497D01*
X129239D01*
Y20592D01*
Y20687D01*
X129333D01*
Y20781D01*
Y20876D01*
X129428D01*
Y20971D01*
Y21065D01*
X129523D01*
Y21160D01*
Y21255D01*
X129617D01*
Y21349D01*
X129712D01*
Y21444D01*
Y21539D01*
Y21633D01*
X129807D01*
Y21728D01*
Y21823D01*
X129901D01*
Y21917D01*
Y22012D01*
X129996D01*
Y22107D01*
Y22201D01*
Y22296D01*
X130091D01*
Y22391D01*
Y22485D01*
X130185D01*
Y22580D01*
Y22675D01*
X130469D01*
Y22769D01*
X131700D01*
Y22675D01*
X132173D01*
Y22580D01*
X132268D01*
Y22485D01*
Y22391D01*
X132363D01*
Y22296D01*
Y22201D01*
X132457D01*
Y22107D01*
Y22012D01*
X132552D01*
Y21917D01*
Y21823D01*
X132647D01*
Y21728D01*
Y21633D01*
Y21539D01*
X132741D01*
Y21444D01*
Y21349D01*
X132836D01*
Y21255D01*
Y21160D01*
X132931D01*
Y21065D01*
Y20971D01*
X133025D01*
Y20876D01*
Y20781D01*
X133120D01*
Y20687D01*
X133215D01*
Y20592D01*
X133309D01*
Y20497D01*
Y20403D01*
Y20308D01*
X133404D01*
Y20213D01*
Y20119D01*
X133499D01*
Y20024D01*
Y19929D01*
Y19835D01*
X133593D01*
Y19740D01*
Y19645D01*
Y19551D01*
X133688D01*
Y19456D01*
Y19361D01*
X137380D01*
Y19456D01*
X137475D01*
Y19551D01*
Y19645D01*
Y19740D01*
Y19835D01*
Y19929D01*
Y20024D01*
Y20119D01*
X137569D01*
Y20213D01*
X137475D01*
Y20308D01*
X137569D01*
Y20403D01*
X137475D01*
Y20497D01*
X137569D01*
Y20592D01*
Y20687D01*
Y20781D01*
Y20876D01*
Y20971D01*
Y21065D01*
Y21160D01*
Y21255D01*
Y21349D01*
Y21444D01*
Y21539D01*
Y21633D01*
Y21728D01*
Y21823D01*
Y21917D01*
Y22012D01*
Y22107D01*
Y22201D01*
Y22296D01*
Y22391D01*
Y22485D01*
Y22580D01*
Y22675D01*
X137475D01*
Y22769D01*
Y22864D01*
Y22959D01*
Y23053D01*
Y23148D01*
Y23243D01*
Y23337D01*
Y23432D01*
X137380D01*
Y23527D01*
Y23621D01*
X137285D01*
Y23716D01*
Y23811D01*
X137191D01*
Y23905D01*
Y24000D01*
X137096D01*
Y24095D01*
X137001D01*
Y24189D01*
X136907D01*
Y24284D01*
Y24379D01*
X136812D01*
Y24473D01*
X136717D01*
Y24568D01*
X136623D01*
Y24663D01*
X136528D01*
Y24757D01*
X136433D01*
Y24852D01*
X136244D01*
Y24947D01*
X136149D01*
Y25041D01*
X136055D01*
Y25136D01*
X135960D01*
Y25231D01*
X135865D01*
Y25325D01*
X135771D01*
Y25420D01*
X135676D01*
Y25515D01*
X135581D01*
Y25609D01*
X135487D01*
Y25704D01*
X135392D01*
Y25798D01*
X135297D01*
Y25893D01*
X135203D01*
Y25988D01*
X135108D01*
Y26083D01*
X134919D01*
Y26177D01*
X134824D01*
Y26272D01*
X134729D01*
Y26366D01*
X134635D01*
Y26461D01*
X134540D01*
Y26556D01*
X134445D01*
Y26651D01*
X134351D01*
Y26745D01*
X134256D01*
Y26840D01*
X134161D01*
Y26934D01*
X133972D01*
Y27029D01*
X133877D01*
Y27124D01*
X133783D01*
Y27218D01*
X133688D01*
Y27313D01*
X133593D01*
Y27408D01*
X133215D01*
Y27313D01*
X133025D01*
Y27218D01*
X132836D01*
Y27124D01*
X132647D01*
Y27029D01*
X132457D01*
Y26934D01*
X132268D01*
Y26840D01*
X132079D01*
Y26745D01*
X131889D01*
Y26651D01*
X131700D01*
Y26556D01*
X131511D01*
Y26461D01*
X131321D01*
Y26366D01*
X131037D01*
Y26461D01*
X130848D01*
Y26556D01*
X130659D01*
Y26651D01*
X130469D01*
Y26745D01*
X130280D01*
Y26840D01*
X130091D01*
Y26934D01*
X129901D01*
Y27029D01*
X129712D01*
Y27124D01*
X129523D01*
Y27218D01*
X129333D01*
Y27313D01*
X129049D01*
Y27408D01*
X128765D01*
Y27313D01*
X128671D01*
Y27218D01*
X128576D01*
Y27124D01*
X128481D01*
Y27029D01*
X128387D01*
Y26934D01*
X128292D01*
Y26840D01*
X128197D01*
Y26745D01*
X128103D01*
Y26651D01*
X128008D01*
Y26556D01*
X127819D01*
Y26461D01*
X127724D01*
Y26366D01*
X127629D01*
Y26272D01*
X127535D01*
Y26177D01*
X127440D01*
Y26083D01*
X127345D01*
Y25988D01*
X127251D01*
Y25893D01*
X127156D01*
Y25798D01*
X127061D01*
Y25704D01*
X126967D01*
Y25609D01*
X126872D01*
Y25515D01*
X126777D01*
Y25420D01*
X126683D01*
Y25325D01*
X126588D01*
Y25231D01*
X126493D01*
Y25136D01*
X126399D01*
Y25041D01*
X126304D01*
Y24947D01*
X126209D01*
Y24852D01*
X126115D01*
Y24757D01*
X126020D01*
Y24663D01*
X125925D01*
Y24568D01*
X125831D01*
Y24473D01*
X125736D01*
Y24379D01*
X125641D01*
Y24284D01*
X125547D01*
Y24189D01*
X125452D01*
Y24095D01*
X125357D01*
Y24000D01*
X125263D01*
Y23905D01*
X125168D01*
Y23811D01*
Y23716D01*
X125073D01*
Y23621D01*
X124979D01*
Y23527D01*
Y23432D01*
Y23337D01*
X117311D01*
Y23432D01*
X117216D01*
Y23527D01*
X117122D01*
Y23621D01*
X117027D01*
Y23716D01*
X116932D01*
Y23811D01*
X116838D01*
Y23905D01*
X116743D01*
Y24000D01*
X116648D01*
Y24095D01*
X116554D01*
Y24189D01*
X116459D01*
Y24284D01*
X116364D01*
Y24379D01*
X116270D01*
Y24473D01*
X116175D01*
Y24568D01*
X116080D01*
Y24663D01*
X115986D01*
Y24757D01*
X115891D01*
Y24852D01*
X115796D01*
Y24947D01*
X115702D01*
Y25041D01*
X115607D01*
Y25136D01*
X115512D01*
Y25231D01*
X115418D01*
Y25325D01*
X115323D01*
Y25420D01*
X115228D01*
Y25515D01*
X115134D01*
Y25609D01*
X115039D01*
Y25704D01*
X114944D01*
Y25798D01*
X114850D01*
Y25893D01*
X114755D01*
Y25988D01*
X114660D01*
Y26083D01*
X114566D01*
Y26177D01*
X114471D01*
Y26272D01*
X114376D01*
Y26366D01*
X114282D01*
Y26461D01*
X114092D01*
Y26556D01*
Y26651D01*
X113903D01*
Y26745D01*
X113808D01*
Y26840D01*
X113714D01*
Y26934D01*
Y27029D01*
Y27124D01*
Y27218D01*
Y27313D01*
Y27408D01*
Y27503D01*
Y27597D01*
Y27692D01*
Y27786D01*
Y27881D01*
Y27976D01*
Y28071D01*
Y28165D01*
Y28260D01*
Y28354D01*
Y28449D01*
Y28544D01*
Y28638D01*
Y28733D01*
Y28828D01*
Y28923D01*
Y29017D01*
Y29112D01*
Y29206D01*
Y29301D01*
Y29396D01*
Y29491D01*
Y29585D01*
Y29680D01*
Y29774D01*
Y29869D01*
Y29964D01*
X113808D01*
Y30059D01*
Y30153D01*
Y30248D01*
Y30343D01*
Y30437D01*
Y30532D01*
Y30626D01*
Y30721D01*
Y30816D01*
Y30911D01*
Y31005D01*
Y31100D01*
Y31194D01*
Y31289D01*
Y31384D01*
Y31479D01*
Y31573D01*
Y31668D01*
Y31762D01*
Y31857D01*
Y31952D01*
Y32046D01*
Y32141D01*
Y32236D01*
Y32331D01*
Y32425D01*
X113903D01*
Y32331D01*
X113998D01*
Y32236D01*
Y32141D01*
X114092D01*
Y32046D01*
Y31952D01*
X114187D01*
Y31857D01*
Y31762D01*
X114282D01*
Y31668D01*
Y31573D01*
X114376D01*
Y31479D01*
Y31384D01*
X114471D01*
Y31289D01*
Y31194D01*
X114566D01*
Y31100D01*
Y31005D01*
X114660D01*
Y30911D01*
Y30816D01*
X114755D01*
Y30721D01*
Y30626D01*
X114850D01*
Y30532D01*
Y30437D01*
X114944D01*
Y30343D01*
Y30248D01*
X115039D01*
Y30153D01*
Y30059D01*
X115134D01*
Y29964D01*
Y29869D01*
X115228D01*
Y29774D01*
Y29680D01*
X115323D01*
Y29585D01*
Y29491D01*
Y29396D01*
X115418D01*
Y29301D01*
Y29206D01*
X115512D01*
Y29112D01*
Y29017D01*
X115607D01*
Y28923D01*
Y28828D01*
X115702D01*
Y28733D01*
Y28638D01*
X115796D01*
Y28544D01*
Y28449D01*
X115891D01*
Y28354D01*
Y28260D01*
X115986D01*
Y28165D01*
Y28071D01*
Y27976D01*
X116080D01*
Y27881D01*
X116175D01*
Y27786D01*
Y27692D01*
Y27597D01*
X116270D01*
Y27503D01*
Y27408D01*
X116364D01*
Y27313D01*
Y27218D01*
X116459D01*
Y27124D01*
Y27029D01*
X116554D01*
Y26934D01*
Y26840D01*
X116648D01*
Y26745D01*
Y26651D01*
X116743D01*
Y26556D01*
Y26461D01*
X116838D01*
Y26366D01*
Y26272D01*
Y26177D01*
X116932D01*
Y26083D01*
Y25988D01*
X117027D01*
Y25893D01*
Y25798D01*
X117122D01*
Y25704D01*
Y25609D01*
X117216D01*
Y25515D01*
Y25420D01*
X117311D01*
Y25325D01*
Y25231D01*
X117405D01*
Y25136D01*
Y25041D01*
X117500D01*
Y24947D01*
Y24852D01*
X117595D01*
Y24757D01*
Y24663D01*
X117784D01*
Y24568D01*
X118352D01*
Y24473D01*
X119015D01*
Y24379D01*
X119867D01*
Y24284D01*
X120814D01*
Y24189D01*
X121476D01*
Y24284D01*
Y24379D01*
X121571D01*
Y24473D01*
Y24568D01*
X121666D01*
Y24663D01*
Y24757D01*
X121760D01*
Y24852D01*
Y24947D01*
X121855D01*
Y25041D01*
Y25136D01*
X121950D01*
Y25231D01*
Y25325D01*
X122044D01*
Y25420D01*
Y25515D01*
X122139D01*
Y25609D01*
Y25704D01*
X122233D01*
Y25798D01*
Y25893D01*
X122328D01*
Y25988D01*
Y26083D01*
X122423D01*
Y26177D01*
X122518D01*
Y26272D01*
Y26366D01*
X122612D01*
Y26461D01*
X122707D01*
Y26556D01*
X122801D01*
Y26651D01*
Y26745D01*
X122991D01*
Y26840D01*
X123085D01*
Y26934D01*
X123180D01*
Y27029D01*
X123370D01*
Y27124D01*
X123464D01*
Y27218D01*
X123653D01*
Y27313D01*
X123748D01*
Y27408D01*
X123937D01*
Y27503D01*
X124127D01*
Y27597D01*
X124222D01*
Y27692D01*
X124411D01*
Y27786D01*
X124600D01*
Y27692D01*
X124695D01*
Y27597D01*
X124600D01*
Y27503D01*
X124695D01*
Y27408D01*
X124600D01*
Y27313D01*
X124695D01*
Y27218D01*
X124600D01*
Y27124D01*
X124695D01*
Y27029D01*
X124600D01*
Y26934D01*
X124695D01*
Y26840D01*
X124600D01*
Y26745D01*
X124695D01*
Y26651D01*
X124600D01*
Y26556D01*
X124505D01*
Y26461D01*
X124316D01*
Y26366D01*
X124127D01*
Y26272D01*
X124032D01*
Y26177D01*
X123748D01*
Y26272D01*
X123559D01*
Y26177D01*
X123275D01*
Y26083D01*
X123180D01*
Y25988D01*
X123085D01*
Y25893D01*
X122991D01*
Y25798D01*
Y25704D01*
Y25609D01*
Y25515D01*
X122896D01*
Y25420D01*
X122991D01*
Y25325D01*
Y25231D01*
X123085D01*
Y25136D01*
Y25041D01*
X123275D01*
Y24947D01*
X123464D01*
Y24852D01*
X123843D01*
Y24947D01*
X124032D01*
Y25041D01*
X124127D01*
Y25136D01*
X124222D01*
Y25231D01*
X124316D01*
Y25325D01*
Y25420D01*
Y25515D01*
Y25609D01*
Y25704D01*
Y25798D01*
X124411D01*
Y25893D01*
X124600D01*
Y25988D01*
X124695D01*
Y26083D01*
X124884D01*
Y26177D01*
X124979D01*
Y26272D01*
X125168D01*
Y26366D01*
Y26461D01*
Y26556D01*
Y26651D01*
Y26745D01*
Y26840D01*
Y26934D01*
Y27029D01*
Y27124D01*
Y27218D01*
Y27313D01*
Y27408D01*
Y27503D01*
Y27597D01*
Y27692D01*
Y27786D01*
Y27881D01*
Y27976D01*
Y28071D01*
Y28165D01*
Y28260D01*
X125357D01*
Y28354D01*
X125547D01*
Y28449D01*
X125736D01*
Y28544D01*
X125831D01*
Y28638D01*
X126020D01*
Y28733D01*
X126209D01*
Y28828D01*
X126399D01*
Y28923D01*
X126588D01*
Y29017D01*
X126872D01*
Y29112D01*
X127061D01*
Y29206D01*
X127345D01*
Y29301D01*
X127629D01*
Y29396D01*
X128008D01*
Y29491D01*
X128292D01*
Y29585D01*
X128671D01*
Y29680D01*
X128955D01*
Y29774D01*
X129333D01*
Y29869D01*
X129617D01*
Y29964D01*
X130185D01*
Y29869D01*
X130375D01*
Y29774D01*
X130564D01*
Y29680D01*
X130753D01*
Y29585D01*
X130943D01*
Y29491D01*
X131416D01*
Y29585D01*
X131511D01*
Y29680D01*
X131700D01*
Y29774D01*
X131889D01*
Y29869D01*
X131984D01*
Y29964D01*
X132173D01*
Y30059D01*
X132268D01*
Y29964D01*
X132647D01*
Y29869D01*
X133025D01*
Y29774D01*
X133404D01*
Y29680D01*
X133688D01*
Y29585D01*
X134067D01*
Y29491D01*
X134445D01*
Y29396D01*
X134824D01*
Y29301D01*
X135297D01*
Y29206D01*
X135487D01*
Y29112D01*
X135676D01*
Y29017D01*
X135865D01*
Y28923D01*
X136055D01*
Y28828D01*
X136244D01*
Y28733D01*
X136433D01*
Y28638D01*
X136623D01*
Y28544D01*
X136717D01*
Y28449D01*
X136907D01*
Y28354D01*
X137096D01*
Y28260D01*
X137285D01*
Y28165D01*
X137380D01*
Y28071D01*
X137569D01*
Y27976D01*
X137759D01*
Y27881D01*
X137948D01*
Y27786D01*
X138137D01*
Y27692D01*
X137001D01*
Y27786D01*
Y27881D01*
X136907D01*
Y27976D01*
X136717D01*
Y28071D01*
X136055D01*
Y27976D01*
X135960D01*
Y27881D01*
X135865D01*
Y27786D01*
X135771D01*
Y27692D01*
Y27597D01*
Y27503D01*
Y27408D01*
Y27313D01*
Y27218D01*
Y27124D01*
X135865D01*
Y27029D01*
Y26934D01*
X136055D01*
Y26840D01*
X136149D01*
Y26745D01*
X136717D01*
Y26840D01*
X136812D01*
Y26934D01*
X137001D01*
Y27029D01*
Y27124D01*
X137853D01*
Y27029D01*
X137569D01*
Y26934D01*
X137475D01*
Y26840D01*
X137380D01*
Y26745D01*
Y26651D01*
X137285D01*
Y26556D01*
Y26461D01*
Y26366D01*
Y26272D01*
Y26177D01*
X137380D01*
Y26083D01*
Y25988D01*
X137475D01*
Y25893D01*
X137569D01*
Y25798D01*
X137853D01*
Y25704D01*
X138137D01*
Y25798D01*
X138327D01*
Y25893D01*
X138421D01*
Y25988D01*
X138516D01*
Y26083D01*
X138611D01*
Y26177D01*
X140031D01*
Y26083D01*
Y25988D01*
X140125D01*
Y25893D01*
Y25798D01*
X140220D01*
Y25704D01*
X140314D01*
Y25609D01*
Y25515D01*
X140409D01*
Y25420D01*
Y25325D01*
X139747D01*
Y25420D01*
X139652D01*
Y25515D01*
X139557D01*
Y25609D01*
X139463D01*
Y25704D01*
X138800D01*
Y25609D01*
X138705D01*
Y25515D01*
X138611D01*
Y25420D01*
X138516D01*
Y25325D01*
Y25231D01*
Y25136D01*
X138421D01*
Y25041D01*
Y24947D01*
Y24852D01*
X138516D01*
Y24757D01*
Y24663D01*
X138611D01*
Y24568D01*
X138705D01*
Y24473D01*
X138895D01*
Y24379D01*
X139463D01*
Y24473D01*
X139557D01*
Y24568D01*
X139652D01*
Y24663D01*
X139747D01*
Y24757D01*
X140788D01*
Y24663D01*
X140883D01*
Y24568D01*
Y24473D01*
X140977D01*
Y24379D01*
X141640D01*
Y24473D01*
X142587D01*
Y24568D01*
X143438D01*
Y24663D01*
X144196D01*
Y24757D01*
X144669D01*
Y24852D01*
X144764D01*
Y24947D01*
X144859D01*
Y25041D01*
Y25136D01*
X144953D01*
Y25231D01*
Y25325D01*
Y25420D01*
X145048D01*
Y25515D01*
Y25609D01*
X145142D01*
Y25704D01*
Y25798D01*
X145237D01*
Y25893D01*
Y25988D01*
X145332D01*
Y26083D01*
Y26177D01*
Y26272D01*
X145426D01*
Y26366D01*
Y26461D01*
X145521D01*
Y26556D01*
Y26651D01*
X145616D01*
Y26745D01*
Y26840D01*
X145711D01*
Y26934D01*
Y27029D01*
Y27124D01*
X145805D01*
Y27218D01*
Y27313D01*
X145900D01*
Y27408D01*
Y27503D01*
X145994D01*
Y27597D01*
Y27692D01*
X146089D01*
Y27786D01*
Y27881D01*
Y27976D01*
X146184D01*
Y28071D01*
Y28165D01*
X146279D01*
Y28260D01*
Y28354D01*
X146373D01*
Y28449D01*
Y28544D01*
X146468D01*
Y28638D01*
Y28733D01*
Y28828D01*
X146562D01*
Y28923D01*
Y29017D01*
X146657D01*
Y29112D01*
Y29206D01*
X146752D01*
Y29301D01*
Y29396D01*
X146846D01*
Y29491D01*
Y29585D01*
Y29680D01*
X146941D01*
Y29774D01*
Y29869D01*
X147036D01*
Y29964D01*
Y30059D01*
X147130D01*
Y30153D01*
Y30248D01*
X147225D01*
Y30343D01*
Y30437D01*
Y30532D01*
X147320D01*
Y30626D01*
Y30721D01*
X147414D01*
Y30816D01*
Y30911D01*
X147509D01*
Y31005D01*
Y31100D01*
X147604D01*
Y31194D01*
Y31289D01*
Y31384D01*
X147698D01*
Y31479D01*
Y31573D01*
X147793D01*
Y31668D01*
Y31762D01*
X147888D01*
Y31857D01*
Y31952D01*
X147982D01*
Y32046D01*
Y32141D01*
X148077D01*
Y32236D01*
Y32331D01*
X148172D01*
Y32425D01*
Y32520D01*
X148266D01*
Y32614D01*
Y32709D01*
X148361D01*
Y32804D01*
X148456D01*
Y32709D01*
D02*
G37*
G36*
X136623Y27503D02*
Y27408D01*
Y27313D01*
X136528D01*
Y27218D01*
X136244D01*
Y27313D01*
Y27408D01*
Y27503D01*
Y27597D01*
X136623D01*
Y27503D01*
D02*
G37*
G36*
X139273Y27029D02*
X139368D01*
Y26934D01*
X139557D01*
Y26840D01*
X139652D01*
Y26745D01*
Y26651D01*
X138611D01*
Y26745D01*
X138516D01*
Y26840D01*
X138421D01*
Y26934D01*
X138327D01*
Y27029D01*
X138137D01*
Y27124D01*
X139273D01*
Y27029D01*
D02*
G37*
G36*
X138043Y26556D02*
X138137D01*
Y26461D01*
X138232D01*
Y26366D01*
X138137D01*
Y26272D01*
X138043D01*
Y26177D01*
X137853D01*
Y26272D01*
X137759D01*
Y26366D01*
Y26461D01*
Y26556D01*
X137853D01*
Y26651D01*
X138043D01*
Y26556D01*
D02*
G37*
G36*
X123748Y25704D02*
X123843D01*
Y25609D01*
Y25515D01*
Y25420D01*
X123748D01*
Y25325D01*
X123559D01*
Y25420D01*
X123464D01*
Y25515D01*
Y25609D01*
Y25704D01*
X123559D01*
Y25798D01*
X123748D01*
Y25704D01*
D02*
G37*
G36*
X139273Y25136D02*
X139368D01*
Y25041D01*
Y24947D01*
X139273D01*
Y24852D01*
X138989D01*
Y24947D01*
X138895D01*
Y25041D01*
Y25136D01*
X138989D01*
Y25231D01*
X139273D01*
Y25136D01*
D02*
G37*
G36*
X113808Y25988D02*
X113903D01*
Y25893D01*
X113998D01*
Y25798D01*
X114187D01*
Y25704D01*
X114282D01*
Y25609D01*
X114376D01*
Y25515D01*
X114471D01*
Y25420D01*
X114566D01*
Y25325D01*
X114660D01*
Y25231D01*
X114755D01*
Y25136D01*
X114850D01*
Y25041D01*
X114944D01*
Y24947D01*
X115039D01*
Y24852D01*
X115134D01*
Y24757D01*
X115228D01*
Y24663D01*
X115323D01*
Y24568D01*
X115418D01*
Y24473D01*
X115512D01*
Y24379D01*
X115607D01*
Y24284D01*
X115702D01*
Y24189D01*
X115796D01*
Y24095D01*
X115891D01*
Y24000D01*
X115986D01*
Y23905D01*
X116080D01*
Y23811D01*
X116175D01*
Y23716D01*
X116270D01*
Y23621D01*
X116364D01*
Y23527D01*
X116459D01*
Y23432D01*
X116554D01*
Y23337D01*
X116648D01*
Y23243D01*
X116743D01*
Y23148D01*
X116838D01*
Y23053D01*
X116932D01*
Y22959D01*
X117027D01*
Y22864D01*
X117122D01*
Y22769D01*
X124979D01*
Y22675D01*
Y22580D01*
Y22485D01*
Y22391D01*
X124884D01*
Y22296D01*
X124789D01*
Y22391D01*
X124695D01*
Y22296D01*
X124600D01*
Y22391D01*
X124505D01*
Y22296D01*
X124411D01*
Y22391D01*
X124316D01*
Y22296D01*
X124222D01*
Y22391D01*
X124127D01*
Y22296D01*
X124032D01*
Y22391D01*
X123937D01*
Y22296D01*
X123843D01*
Y22391D01*
X123748D01*
Y22296D01*
X123653D01*
Y22391D01*
X123559D01*
Y22296D01*
X123464D01*
Y22391D01*
X123370D01*
Y22296D01*
X123275D01*
Y22391D01*
X123180D01*
Y22296D01*
X123085D01*
Y22391D01*
X122991D01*
Y22296D01*
X122896D01*
Y22391D01*
X122801D01*
Y22296D01*
X122707D01*
Y22391D01*
X122612D01*
Y22296D01*
X122518D01*
Y22391D01*
X122423D01*
Y22296D01*
X122328D01*
Y22391D01*
X122233D01*
Y22296D01*
X122139D01*
Y22391D01*
X122044D01*
Y22296D01*
X121950D01*
Y22391D01*
X121855D01*
Y22296D01*
X121760D01*
Y22391D01*
X121666D01*
Y22296D01*
X121571D01*
Y22391D01*
X121476D01*
Y22296D01*
X121381D01*
Y22391D01*
X121287D01*
Y22296D01*
X121192D01*
Y22391D01*
X121098D01*
Y22296D01*
X121003D01*
Y22391D01*
X120908D01*
Y22296D01*
X120814D01*
Y22391D01*
X120719D01*
Y22296D01*
X120624D01*
Y22391D01*
X120529D01*
Y22296D01*
X120435D01*
Y22391D01*
X120340D01*
Y22296D01*
X120246D01*
Y22391D01*
X120151D01*
Y22296D01*
X120056D01*
Y22391D01*
X119962D01*
Y22296D01*
X119867D01*
Y22391D01*
X119772D01*
Y22296D01*
X119677D01*
Y22391D01*
X119583D01*
Y22296D01*
X119488D01*
Y22391D01*
X119394D01*
Y22296D01*
X119299D01*
Y22391D01*
X119204D01*
Y22296D01*
X119109D01*
Y22391D01*
X119015D01*
Y22296D01*
X118920D01*
Y22391D01*
X118825D01*
Y22296D01*
X118731D01*
Y22391D01*
X118636D01*
Y22296D01*
X118542D01*
Y22391D01*
X118447D01*
Y22296D01*
X118352D01*
Y22391D01*
X118257D01*
Y22296D01*
X118163D01*
Y22391D01*
X118068D01*
Y22296D01*
X117973D01*
Y22391D01*
X117879D01*
Y22296D01*
X117784D01*
Y22391D01*
X117690D01*
Y22296D01*
X117595D01*
Y22391D01*
X117500D01*
Y22296D01*
X117405D01*
Y22391D01*
X117311D01*
Y22296D01*
X117216D01*
Y22391D01*
X116932D01*
Y22485D01*
X116838D01*
Y22580D01*
X116743D01*
Y22675D01*
X116648D01*
Y22769D01*
X116554D01*
Y22864D01*
X116459D01*
Y22959D01*
X116364D01*
Y23053D01*
X116270D01*
Y23148D01*
X116175D01*
Y23243D01*
X116080D01*
Y23337D01*
X115986D01*
Y23432D01*
X115891D01*
Y23527D01*
X115796D01*
Y23621D01*
X115702D01*
Y23716D01*
X115607D01*
Y23811D01*
X115512D01*
Y23905D01*
X115418D01*
Y24000D01*
X115228D01*
Y24095D01*
X115134D01*
Y24189D01*
X115039D01*
Y24284D01*
X114944D01*
Y24379D01*
X114850D01*
Y24473D01*
X114755D01*
Y24568D01*
X114660D01*
Y24663D01*
X114566D01*
Y24757D01*
X114471D01*
Y24852D01*
X114376D01*
Y24947D01*
X114282D01*
Y25041D01*
X114187D01*
Y25136D01*
X114092D01*
Y25231D01*
X113998D01*
Y25325D01*
X113903D01*
Y25420D01*
X113808D01*
Y25515D01*
X113714D01*
Y25609D01*
Y25704D01*
Y25798D01*
Y25893D01*
Y25988D01*
Y26083D01*
X113808D01*
Y25988D01*
D02*
G37*
G36*
X114092Y19267D02*
X113998D01*
Y19361D01*
X114092D01*
Y19267D01*
D02*
G37*
G36*
X113998Y19172D02*
X113903D01*
Y19077D01*
X113808D01*
Y18983D01*
X113714D01*
Y19077D01*
Y19172D01*
Y19267D01*
X113998D01*
Y19172D01*
D02*
G37*
G36*
X121192Y18604D02*
X121098D01*
Y18699D01*
X121192D01*
Y18604D01*
D02*
G37*
G36*
X121098Y18509D02*
X121003D01*
Y18604D01*
X121098D01*
Y18509D01*
D02*
G37*
G36*
X114566Y18793D02*
Y18699D01*
Y18604D01*
Y18509D01*
X114187D01*
Y18604D01*
Y18699D01*
Y18793D01*
X114282D01*
Y18888D01*
X114566D01*
Y18793D01*
D02*
G37*
G36*
X113808Y18320D02*
Y18225D01*
X113714D01*
Y18320D01*
Y18415D01*
X113808D01*
Y18320D01*
D02*
G37*
G36*
X121571D02*
X121666D01*
Y18225D01*
X121760D01*
Y18131D01*
X121855D01*
Y18036D01*
X121950D01*
Y17941D01*
X122044D01*
Y17847D01*
X122139D01*
Y17752D01*
X122233D01*
Y17657D01*
X122328D01*
Y17563D01*
X122233D01*
Y17468D01*
X122139D01*
Y17373D01*
X122044D01*
Y17468D01*
X121950D01*
Y17563D01*
X121855D01*
Y17657D01*
X121760D01*
Y17752D01*
X121666D01*
Y17847D01*
X121571D01*
Y17941D01*
X121476D01*
Y18036D01*
X121381D01*
Y18131D01*
X121192D01*
Y18225D01*
X121287D01*
Y18320D01*
X121381D01*
Y18415D01*
X121571D01*
Y18320D01*
D02*
G37*
G36*
X122612Y17279D02*
X122518D01*
Y17373D01*
X122612D01*
Y17279D01*
D02*
G37*
G36*
X122518Y17184D02*
X122423D01*
Y17279D01*
X122518D01*
Y17184D01*
D02*
G37*
G36*
X122423Y17089D02*
X122328D01*
Y17184D01*
X122423D01*
Y17089D01*
D02*
G37*
G36*
X122328Y16995D02*
X122233D01*
Y16900D01*
X122139D01*
Y16805D01*
X122044D01*
Y16711D01*
X121950D01*
Y16616D01*
X121855D01*
Y16711D01*
Y16805D01*
Y16900D01*
Y16995D01*
Y17089D01*
X122044D01*
Y16995D01*
X122139D01*
Y17089D01*
X122328D01*
Y16995D01*
D02*
G37*
G36*
X119109Y20119D02*
X119204D01*
Y20024D01*
X119299D01*
Y19929D01*
X119394D01*
Y19835D01*
X119488D01*
Y19740D01*
X119583D01*
Y19645D01*
X119677D01*
Y19551D01*
X119772D01*
Y19456D01*
X119867D01*
Y19361D01*
X119962D01*
Y19267D01*
X120056D01*
Y19172D01*
X120151D01*
Y19077D01*
X120246D01*
Y18983D01*
X120340D01*
Y18888D01*
X120435D01*
Y18793D01*
X120529D01*
Y18699D01*
X120624D01*
Y18604D01*
X120719D01*
Y18509D01*
X121003D01*
Y18415D01*
X120908D01*
Y18320D01*
Y18225D01*
Y18131D01*
Y18036D01*
X121003D01*
Y17941D01*
X121098D01*
Y17847D01*
X121192D01*
Y17752D01*
X121287D01*
Y17657D01*
X121098D01*
Y17752D01*
X121003D01*
Y17847D01*
X120908D01*
Y17941D01*
X120814D01*
Y18036D01*
X120529D01*
Y17941D01*
X120435D01*
Y17847D01*
X120340D01*
Y17752D01*
X120246D01*
Y17657D01*
X120151D01*
Y17563D01*
X120056D01*
Y17468D01*
Y17373D01*
Y17279D01*
X119772D01*
Y17184D01*
X119677D01*
Y17089D01*
X119583D01*
Y16995D01*
X119488D01*
Y16900D01*
X119394D01*
Y16805D01*
X119299D01*
Y16711D01*
Y16616D01*
Y16521D01*
X119394D01*
Y16427D01*
X119488D01*
Y16332D01*
X119583D01*
Y16237D01*
X119677D01*
Y16143D01*
X119772D01*
Y16048D01*
X119867D01*
Y15953D01*
X119962D01*
Y15859D01*
X119772D01*
Y15953D01*
Y16048D01*
X119583D01*
Y16143D01*
X119488D01*
Y16237D01*
X119394D01*
Y16332D01*
X119299D01*
Y16427D01*
X119204D01*
Y16521D01*
X119015D01*
Y16427D01*
X118920D01*
Y16332D01*
X118825D01*
Y16237D01*
X118636D01*
Y16143D01*
X118542D01*
Y16048D01*
Y15953D01*
Y15859D01*
Y15764D01*
Y15669D01*
X118636D01*
Y15575D01*
X118731D01*
Y15480D01*
X118825D01*
Y15385D01*
X118920D01*
Y15291D01*
X119015D01*
Y15196D01*
X119109D01*
Y15101D01*
X119204D01*
Y15007D01*
X119299D01*
Y14912D01*
X119394D01*
Y14817D01*
X119583D01*
Y14723D01*
X119867D01*
Y14628D01*
Y14533D01*
X119772D01*
Y14439D01*
Y14344D01*
X119677D01*
Y14249D01*
Y14155D01*
Y14060D01*
Y13965D01*
Y13871D01*
X119772D01*
Y13776D01*
Y13681D01*
X119867D01*
Y13587D01*
Y13492D01*
X119962D01*
Y13397D01*
X120056D01*
Y13303D01*
X120151D01*
Y13208D01*
X120246D01*
Y13113D01*
X120340D01*
Y13019D01*
X120435D01*
Y12924D01*
X120529D01*
Y12829D01*
X120624D01*
Y12735D01*
X120719D01*
Y12640D01*
X120246D01*
Y12735D01*
Y12829D01*
Y12924D01*
Y13019D01*
X120151D01*
Y13113D01*
X120056D01*
Y13208D01*
X119962D01*
Y13303D01*
X119867D01*
Y13397D01*
X119772D01*
Y13492D01*
X119583D01*
Y13397D01*
X119394D01*
Y13303D01*
X119299D01*
Y13208D01*
X119204D01*
Y13113D01*
X119109D01*
Y13019D01*
X119015D01*
Y12924D01*
X118920D01*
Y12829D01*
X118825D01*
Y12735D01*
X118731D01*
Y12640D01*
X118636D01*
Y12545D01*
X118542D01*
Y12451D01*
X118447D01*
Y12356D01*
X118352D01*
Y12451D01*
X118257D01*
Y12545D01*
Y12640D01*
X118163D01*
Y12735D01*
X118068D01*
Y12829D01*
X117973D01*
Y12924D01*
X117879D01*
Y13019D01*
Y13113D01*
X117784D01*
Y13208D01*
X117690D01*
Y13303D01*
X117595D01*
Y13397D01*
X117500D01*
Y13492D01*
Y13587D01*
X117405D01*
Y13681D01*
X117311D01*
Y13776D01*
X117216D01*
Y13871D01*
Y13965D01*
X117122D01*
Y14060D01*
X117027D01*
Y14155D01*
X116932D01*
Y14249D01*
X116838D01*
Y14344D01*
Y14439D01*
X116743D01*
Y14533D01*
X116648D01*
Y14628D01*
X116554D01*
Y14723D01*
X116459D01*
Y14817D01*
Y14912D01*
X116364D01*
Y15007D01*
X116270D01*
Y15101D01*
X116175D01*
Y15196D01*
Y15291D01*
X116080D01*
Y15385D01*
X115986D01*
Y15480D01*
X115891D01*
Y15575D01*
X115796D01*
Y15669D01*
X115702D01*
Y15764D01*
Y15859D01*
X115607D01*
Y15953D01*
X115512D01*
Y16048D01*
X115418D01*
Y16143D01*
Y16237D01*
X115323D01*
Y16332D01*
X115228D01*
Y16427D01*
X115134D01*
Y16521D01*
X115039D01*
Y16616D01*
Y16711D01*
X114944D01*
Y16805D01*
X114850D01*
Y16900D01*
X114755D01*
Y16995D01*
X114660D01*
Y17089D01*
Y17184D01*
X114566D01*
Y17279D01*
X114471D01*
Y17373D01*
X114376D01*
Y17468D01*
X114282D01*
Y17563D01*
Y17657D01*
X114187D01*
Y17752D01*
X114092D01*
Y17847D01*
X113998D01*
Y17941D01*
Y18036D01*
X113903D01*
Y18131D01*
X114092D01*
Y18036D01*
X114755D01*
Y18131D01*
X114850D01*
Y18225D01*
X114944D01*
Y18320D01*
X115039D01*
Y18415D01*
X116080D01*
Y18320D01*
X116175D01*
Y18225D01*
X116270D01*
Y18131D01*
X116364D01*
Y18036D01*
X116459D01*
Y17941D01*
X116554D01*
Y17847D01*
X116648D01*
Y17752D01*
X116743D01*
Y17657D01*
X116838D01*
Y17563D01*
X116932D01*
Y17468D01*
X117027D01*
Y17373D01*
X117122D01*
Y17279D01*
X117311D01*
Y17184D01*
Y17089D01*
X117500D01*
Y16995D01*
X117595D01*
Y16900D01*
X117690D01*
Y16805D01*
X117784D01*
Y16711D01*
X117879D01*
Y16616D01*
X117973D01*
Y16521D01*
X118068D01*
Y16427D01*
X118163D01*
Y16332D01*
X118257D01*
Y16237D01*
X118447D01*
Y16332D01*
X118542D01*
Y16427D01*
X118636D01*
Y16521D01*
X118731D01*
Y16616D01*
X118636D01*
Y16711D01*
X118542D01*
Y16805D01*
X118447D01*
Y16900D01*
X118352D01*
Y16995D01*
X118257D01*
Y17089D01*
X118163D01*
Y17184D01*
X118068D01*
Y17279D01*
X117973D01*
Y17373D01*
X117879D01*
Y17468D01*
X117784D01*
Y17563D01*
X117595D01*
Y17657D01*
X117500D01*
Y17752D01*
X117405D01*
Y17847D01*
X117311D01*
Y17941D01*
X117216D01*
Y18036D01*
X117122D01*
Y18131D01*
X117027D01*
Y18225D01*
X116932D01*
Y18320D01*
X116838D01*
Y18415D01*
X116743D01*
Y18509D01*
X116648D01*
Y18604D01*
X116554D01*
Y18699D01*
X116459D01*
Y18793D01*
X116364D01*
Y18888D01*
X116270D01*
Y18983D01*
X115039D01*
Y19077D01*
X114944D01*
Y19172D01*
X114850D01*
Y19267D01*
X114660D01*
Y19361D01*
X116743D01*
Y19267D01*
X116838D01*
Y19172D01*
X117027D01*
Y19077D01*
X117122D01*
Y18983D01*
X117216D01*
Y18888D01*
X117311D01*
Y18793D01*
X117405D01*
Y18699D01*
X117500D01*
Y18604D01*
X117595D01*
Y18509D01*
X117690D01*
Y18415D01*
X117784D01*
Y18320D01*
X117879D01*
Y18225D01*
X117973D01*
Y18131D01*
X118068D01*
Y18036D01*
X118163D01*
Y17941D01*
X118257D01*
Y17847D01*
X118352D01*
Y17752D01*
X118447D01*
Y17657D01*
X118542D01*
Y17563D01*
X118636D01*
Y17468D01*
X118731D01*
Y17373D01*
X118825D01*
Y17279D01*
X118920D01*
Y17184D01*
X119015D01*
Y17089D01*
X119109D01*
Y16995D01*
X119299D01*
Y17089D01*
X119394D01*
Y17184D01*
X119488D01*
Y17279D01*
X119583D01*
Y17373D01*
X119488D01*
Y17468D01*
X119394D01*
Y17563D01*
X119299D01*
Y17657D01*
X119204D01*
Y17752D01*
X119109D01*
Y17847D01*
X119015D01*
Y17941D01*
X118920D01*
Y18036D01*
X118825D01*
Y18131D01*
X118731D01*
Y18225D01*
X118636D01*
Y18320D01*
X118542D01*
Y18415D01*
X118447D01*
Y18509D01*
X118352D01*
Y18604D01*
X118257D01*
Y18699D01*
X118163D01*
Y18793D01*
X118068D01*
Y18888D01*
X117973D01*
Y18983D01*
X117879D01*
Y19077D01*
X117784D01*
Y19172D01*
X117690D01*
Y19267D01*
X117595D01*
Y19361D01*
X117500D01*
Y19456D01*
X117405D01*
Y19551D01*
X117311D01*
Y19645D01*
X117216D01*
Y19740D01*
X117122D01*
Y19835D01*
X113714D01*
Y19929D01*
Y20024D01*
Y20119D01*
Y20213D01*
X119109D01*
Y20119D01*
D02*
G37*
G36*
X120814Y17563D02*
X120908D01*
Y17468D01*
X121003D01*
Y17373D01*
X121098D01*
Y17279D01*
X121192D01*
Y17184D01*
X121287D01*
Y17089D01*
X121381D01*
Y16995D01*
X121476D01*
Y16900D01*
X121571D01*
Y16805D01*
X121476D01*
Y16711D01*
X121381D01*
Y16616D01*
X121192D01*
Y16711D01*
X121098D01*
Y16805D01*
X121003D01*
Y16900D01*
X120908D01*
Y16995D01*
X120814D01*
Y17089D01*
X120719D01*
Y17184D01*
X120624D01*
Y17279D01*
X120529D01*
Y17373D01*
X120435D01*
Y17468D01*
X120529D01*
Y17563D01*
X120624D01*
Y17657D01*
X120814D01*
Y17563D01*
D02*
G37*
G36*
X121855Y16521D02*
X121760D01*
Y16427D01*
X121666D01*
Y16332D01*
X121571D01*
Y16237D01*
X121476D01*
Y16143D01*
X121287D01*
Y16048D01*
X121192D01*
Y15953D01*
X121098D01*
Y16048D01*
Y16143D01*
Y16237D01*
X121003D01*
Y16332D01*
X121192D01*
Y16237D01*
X121381D01*
Y16332D01*
X121476D01*
Y16427D01*
X121571D01*
Y16521D01*
X121666D01*
Y16616D01*
X121855D01*
Y16521D01*
D02*
G37*
G36*
X121098Y15859D02*
X121003D01*
Y15953D01*
X121098D01*
Y15859D01*
D02*
G37*
G36*
X119962Y16805D02*
X120056D01*
Y16711D01*
X120151D01*
Y16616D01*
X120246D01*
Y16521D01*
X120340D01*
Y16427D01*
X120435D01*
Y16332D01*
X120529D01*
Y16237D01*
X120624D01*
Y16143D01*
X120719D01*
Y16048D01*
X120624D01*
Y15953D01*
X120529D01*
Y15859D01*
X120435D01*
Y15953D01*
X120340D01*
Y16048D01*
X120246D01*
Y16143D01*
X120151D01*
Y16237D01*
X120056D01*
Y16332D01*
X119962D01*
Y16427D01*
X119867D01*
Y16521D01*
X119772D01*
Y16616D01*
X119677D01*
Y16711D01*
X119772D01*
Y16805D01*
X119867D01*
Y16900D01*
X119962D01*
Y16805D01*
D02*
G37*
G36*
X121003Y15764D02*
X120908D01*
Y15859D01*
X121003D01*
Y15764D01*
D02*
G37*
G36*
X120908Y15669D02*
X120814D01*
Y15764D01*
X120908D01*
Y15669D01*
D02*
G37*
G36*
X120814Y15575D02*
X120719D01*
Y15669D01*
X120814D01*
Y15575D01*
D02*
G37*
G36*
X120719Y15480D02*
X120624D01*
Y15575D01*
X120719D01*
Y15480D01*
D02*
G37*
G36*
X120340D02*
X120624D01*
Y15385D01*
X120529D01*
Y15291D01*
X120435D01*
Y15196D01*
X120340D01*
Y15291D01*
Y15385D01*
X120246D01*
Y15480D01*
Y15575D01*
X120340D01*
Y15480D01*
D02*
G37*
G36*
Y15101D02*
X120246D01*
Y15196D01*
X120340D01*
Y15101D01*
D02*
G37*
G36*
X119204Y16048D02*
X119299D01*
Y15953D01*
X119394D01*
Y15859D01*
X119488D01*
Y15764D01*
X119583D01*
Y15669D01*
X119677D01*
Y15575D01*
X119772D01*
Y15480D01*
X119867D01*
Y15385D01*
X119962D01*
Y15291D01*
X119867D01*
Y15196D01*
X119772D01*
Y15101D01*
X119583D01*
Y15196D01*
X119488D01*
Y15291D01*
X119394D01*
Y15385D01*
X119299D01*
Y15480D01*
X119204D01*
Y15575D01*
X119109D01*
Y15669D01*
X119015D01*
Y15764D01*
X118920D01*
Y15859D01*
X118825D01*
Y15953D01*
X118920D01*
Y16048D01*
X119015D01*
Y16143D01*
X119204D01*
Y16048D01*
D02*
G37*
G36*
X120246Y15007D02*
X120151D01*
Y15101D01*
X120246D01*
Y15007D01*
D02*
G37*
G36*
X120151Y14912D02*
X120056D01*
Y15007D01*
X120151D01*
Y14912D01*
D02*
G37*
G36*
X120056Y14817D02*
X119962D01*
Y14912D01*
X120056D01*
Y14817D01*
D02*
G37*
G36*
X119962Y14723D02*
X119867D01*
Y14817D01*
X119962D01*
Y14723D01*
D02*
G37*
G36*
X126683Y13303D02*
X126588D01*
Y13397D01*
X126683D01*
Y13303D01*
D02*
G37*
G36*
X126588Y13208D02*
X126493D01*
Y13303D01*
X126588D01*
Y13208D01*
D02*
G37*
G36*
X126493Y13113D02*
X126399D01*
Y13208D01*
X126493D01*
Y13113D01*
D02*
G37*
G36*
X126399Y13019D02*
X126304D01*
Y13113D01*
X126399D01*
Y13019D01*
D02*
G37*
G36*
X126304Y12924D02*
Y12829D01*
Y12735D01*
X126399D01*
Y12640D01*
X126209D01*
Y12735D01*
X126115D01*
Y12640D01*
X125925D01*
Y12735D01*
X126020D01*
Y12829D01*
X126115D01*
Y12924D01*
X126209D01*
Y13019D01*
X126304D01*
Y12924D01*
D02*
G37*
G36*
X125925Y12545D02*
X125831D01*
Y12640D01*
X125925D01*
Y12545D01*
D02*
G37*
G36*
X120246D02*
X120151D01*
Y12640D01*
X120246D01*
Y12545D01*
D02*
G37*
G36*
X125831Y12451D02*
X125736D01*
Y12545D01*
X125831D01*
Y12451D01*
D02*
G37*
G36*
X120151D02*
X120056D01*
Y12545D01*
X120151D01*
Y12451D01*
D02*
G37*
G36*
X125736Y12356D02*
X125641D01*
Y12451D01*
X125736D01*
Y12356D01*
D02*
G37*
G36*
X120056D02*
X119962D01*
Y12451D01*
X120056D01*
Y12356D01*
D02*
G37*
G36*
X125641Y12261D02*
X125547D01*
Y12356D01*
X125641D01*
Y12261D01*
D02*
G37*
G36*
X119962D02*
X119867D01*
Y12356D01*
X119962D01*
Y12261D01*
D02*
G37*
G36*
X119867Y12167D02*
X119772D01*
Y12261D01*
X119867D01*
Y12167D01*
D02*
G37*
G36*
X127061Y13019D02*
X127156D01*
Y12924D01*
X127251D01*
Y12829D01*
X127345D01*
Y12735D01*
X127440D01*
Y12640D01*
X127535D01*
Y12545D01*
X127629D01*
Y12451D01*
X127724D01*
Y12356D01*
X127819D01*
Y12261D01*
X127724D01*
Y12167D01*
X127629D01*
Y12072D01*
X127440D01*
Y12167D01*
X127345D01*
Y12261D01*
X127251D01*
Y12356D01*
X127156D01*
Y12451D01*
X127061D01*
Y12545D01*
X126967D01*
Y12640D01*
X126872D01*
Y12735D01*
X126777D01*
Y12829D01*
X126683D01*
Y12924D01*
X126777D01*
Y13019D01*
X126872D01*
Y13113D01*
X127061D01*
Y13019D01*
D02*
G37*
G36*
X119772D02*
Y12924D01*
X119962D01*
Y12829D01*
X119867D01*
Y12735D01*
X119772D01*
Y12640D01*
X119677D01*
Y12545D01*
X119583D01*
Y12451D01*
X119488D01*
Y12356D01*
X119394D01*
Y12261D01*
X119299D01*
Y12167D01*
X119204D01*
Y12072D01*
X119015D01*
Y12167D01*
X118920D01*
Y12261D01*
X118825D01*
Y12356D01*
X118920D01*
Y12451D01*
X119015D01*
Y12545D01*
X119109D01*
Y12640D01*
X119204D01*
Y12735D01*
X119299D01*
Y12829D01*
X119394D01*
Y12924D01*
X119488D01*
Y13019D01*
X119583D01*
Y13113D01*
X119772D01*
Y13019D01*
D02*
G37*
G36*
X121098Y12261D02*
X121192D01*
Y12167D01*
X121287D01*
Y12072D01*
X121381D01*
Y11977D01*
X121476D01*
Y11883D01*
X121003D01*
Y11977D01*
X121098D01*
Y12072D01*
Y12167D01*
X121003D01*
Y12261D01*
Y12356D01*
X121098D01*
Y12261D01*
D02*
G37*
G36*
X125168Y11788D02*
X125073D01*
Y11883D01*
X125168D01*
Y11788D01*
D02*
G37*
G36*
X121003D02*
X120908D01*
Y11883D01*
X121003D01*
Y11788D01*
D02*
G37*
G36*
X125073Y11693D02*
X124979D01*
Y11788D01*
X125073D01*
Y11693D01*
D02*
G37*
G36*
X120908D02*
X120814D01*
Y11788D01*
X120908D01*
Y11693D01*
D02*
G37*
G36*
X124979Y11599D02*
X124884D01*
Y11693D01*
X124979D01*
Y11599D01*
D02*
G37*
G36*
X120814D02*
X120719D01*
Y11693D01*
X120814D01*
Y11599D01*
D02*
G37*
G36*
X124884Y11504D02*
X124789D01*
Y11599D01*
X124884D01*
Y11504D01*
D02*
G37*
G36*
X120719D02*
X120624D01*
Y11599D01*
X120719D01*
Y11504D01*
D02*
G37*
G36*
X120624Y11409D02*
X120529D01*
Y11504D01*
X120624D01*
Y11409D01*
D02*
G37*
G36*
X126209Y12261D02*
X126304D01*
Y12167D01*
X126399D01*
Y12072D01*
X126493D01*
Y11977D01*
X126588D01*
Y11883D01*
X126683D01*
Y11788D01*
X126777D01*
Y11693D01*
X126872D01*
Y11599D01*
X126967D01*
Y11504D01*
Y11409D01*
X126872D01*
Y11315D01*
X126683D01*
Y11409D01*
X126588D01*
Y11504D01*
X126493D01*
Y11599D01*
X126399D01*
Y11693D01*
X126304D01*
Y11788D01*
X126209D01*
Y11883D01*
X126115D01*
Y11977D01*
X126020D01*
Y12072D01*
X125925D01*
Y12167D01*
X126020D01*
Y12261D01*
X126115D01*
Y12356D01*
X126209D01*
Y12261D01*
D02*
G37*
G36*
X125547Y12167D02*
Y12072D01*
Y11977D01*
X125641D01*
Y11883D01*
X125736D01*
Y11788D01*
X125831D01*
Y11693D01*
X125925D01*
Y11599D01*
X126020D01*
Y11504D01*
X126115D01*
Y11409D01*
X126209D01*
Y11315D01*
X126020D01*
Y11409D01*
X125925D01*
Y11504D01*
X125831D01*
Y11599D01*
X125736D01*
Y11693D01*
X125641D01*
Y11788D01*
X125547D01*
Y11883D01*
X125168D01*
Y11977D01*
X125263D01*
Y12072D01*
X125357D01*
Y12167D01*
X125452D01*
Y12261D01*
X125547D01*
Y12167D01*
D02*
G37*
G36*
X120529Y11315D02*
X120435D01*
Y11409D01*
X120529D01*
Y11315D01*
D02*
G37*
G36*
Y12261D02*
X120624D01*
Y12167D01*
X120719D01*
Y12072D01*
X120624D01*
Y11977D01*
X120529D01*
Y11883D01*
X120435D01*
Y11788D01*
X120340D01*
Y11693D01*
X120246D01*
Y11599D01*
X120151D01*
Y11504D01*
X120056D01*
Y11409D01*
X119962D01*
Y11315D01*
X119772D01*
Y11409D01*
X119677D01*
Y11504D01*
Y11599D01*
X119772D01*
Y11693D01*
X119867D01*
Y11788D01*
X119962D01*
Y11883D01*
X120056D01*
Y11977D01*
X120151D01*
Y12072D01*
X120246D01*
Y12167D01*
X120340D01*
Y12261D01*
X120435D01*
Y12356D01*
X120529D01*
Y12261D01*
D02*
G37*
G36*
X120435Y11220D02*
X120340D01*
Y11315D01*
X120435D01*
Y11220D01*
D02*
G37*
G36*
X127251Y11125D02*
X127156D01*
Y11220D01*
X127251D01*
Y11125D01*
D02*
G37*
G36*
X120340D02*
X120246D01*
Y11220D01*
X120340D01*
Y11125D01*
D02*
G37*
G36*
X127156Y11031D02*
X127061D01*
Y11125D01*
X127156D01*
Y11031D01*
D02*
G37*
G36*
X121855D02*
X121760D01*
Y11125D01*
X121855D01*
Y11031D01*
D02*
G37*
G36*
X120246D02*
X120151D01*
Y11125D01*
X120246D01*
Y11031D01*
D02*
G37*
G36*
X119772Y12072D02*
X119677D01*
Y11977D01*
X119583D01*
Y11883D01*
X119488D01*
Y11788D01*
X119394D01*
Y11693D01*
X119299D01*
Y11599D01*
Y11504D01*
Y11409D01*
Y11315D01*
X119394D01*
Y11220D01*
X119488D01*
Y11125D01*
X119583D01*
Y11031D01*
X119394D01*
Y11125D01*
X119299D01*
Y11220D01*
Y11315D01*
X119204D01*
Y11409D01*
X119109D01*
Y11504D01*
X119015D01*
Y11599D01*
X118920D01*
Y11693D01*
X119204D01*
Y11788D01*
X119299D01*
Y11883D01*
X119394D01*
Y11977D01*
X119488D01*
Y12072D01*
X119583D01*
Y12167D01*
X119772D01*
Y12072D01*
D02*
G37*
G36*
X123653Y17184D02*
X123748D01*
Y17089D01*
X123843D01*
Y16995D01*
X123937D01*
Y16900D01*
X124032D01*
Y16805D01*
X124127D01*
Y16711D01*
X124222D01*
Y16616D01*
X124316D01*
Y16521D01*
X124411D01*
Y16427D01*
X124505D01*
Y16332D01*
X124695D01*
Y16237D01*
X124789D01*
Y16143D01*
X124884D01*
Y16048D01*
X124979D01*
Y15953D01*
X125073D01*
Y15859D01*
X125168D01*
Y15764D01*
X125263D01*
Y15669D01*
X125357D01*
Y15575D01*
X125452D01*
Y15480D01*
X125547D01*
Y15385D01*
X125641D01*
Y15291D01*
X125736D01*
Y15196D01*
X125831D01*
Y15101D01*
X125925D01*
Y15007D01*
X126020D01*
Y14912D01*
X126115D01*
Y14817D01*
X126209D01*
Y14723D01*
X126304D01*
Y14628D01*
X126399D01*
Y14533D01*
X126493D01*
Y14439D01*
Y14344D01*
X126588D01*
Y14249D01*
Y14155D01*
Y14060D01*
Y13965D01*
Y13871D01*
Y13776D01*
X126493D01*
Y13681D01*
X126399D01*
Y13587D01*
X126304D01*
Y13492D01*
X126209D01*
Y13397D01*
X126115D01*
Y13303D01*
X126020D01*
Y13208D01*
X125925D01*
Y13113D01*
X125831D01*
Y13019D01*
X125736D01*
Y12924D01*
X125641D01*
Y12829D01*
X125547D01*
Y12735D01*
X125452D01*
Y12640D01*
X125357D01*
Y12545D01*
X125263D01*
Y12451D01*
X125168D01*
Y12356D01*
X125073D01*
Y12261D01*
X124979D01*
Y12167D01*
X124884D01*
Y12072D01*
X124789D01*
Y11977D01*
X124695D01*
Y11883D01*
X124600D01*
Y11788D01*
X124505D01*
Y11693D01*
X124411D01*
Y11599D01*
X124316D01*
Y11504D01*
X124222D01*
Y11409D01*
X124127D01*
Y11315D01*
X124032D01*
Y11220D01*
X123937D01*
Y11125D01*
X123843D01*
Y11031D01*
X123653D01*
Y10936D01*
X122991D01*
Y11031D01*
X122896D01*
Y11125D01*
X122707D01*
Y11220D01*
X122612D01*
Y11315D01*
X122518D01*
Y11409D01*
X122423D01*
Y11504D01*
X122328D01*
Y11599D01*
X122233D01*
Y11693D01*
X122139D01*
Y11788D01*
X122044D01*
Y11883D01*
X121950D01*
Y11977D01*
X121855D01*
Y12072D01*
X121760D01*
Y12167D01*
X121666D01*
Y12261D01*
X121571D01*
Y12356D01*
X121476D01*
Y12451D01*
X121381D01*
Y12545D01*
X121287D01*
Y12640D01*
X121192D01*
Y12735D01*
X121098D01*
Y12829D01*
X121003D01*
Y12924D01*
X120908D01*
Y13019D01*
X120814D01*
Y13113D01*
X120719D01*
Y13208D01*
X120624D01*
Y13303D01*
X120529D01*
Y13397D01*
X120435D01*
Y13492D01*
X120340D01*
Y13587D01*
X120246D01*
Y13681D01*
X120151D01*
Y13776D01*
X120056D01*
Y13871D01*
Y13965D01*
Y14060D01*
Y14155D01*
Y14249D01*
Y14344D01*
X120151D01*
Y14439D01*
Y14533D01*
X120246D01*
Y14628D01*
X120340D01*
Y14723D01*
X120435D01*
Y14817D01*
X120529D01*
Y14912D01*
X120624D01*
Y15007D01*
X120719D01*
Y15101D01*
X120814D01*
Y15196D01*
X120908D01*
Y15291D01*
X121003D01*
Y15385D01*
X121098D01*
Y15480D01*
X121192D01*
Y15575D01*
X121287D01*
Y15669D01*
X121381D01*
Y15764D01*
X121476D01*
Y15859D01*
X121571D01*
Y15953D01*
X121666D01*
Y16048D01*
X121760D01*
Y16143D01*
X121855D01*
Y16237D01*
X121950D01*
Y16332D01*
X122139D01*
Y16427D01*
X122233D01*
Y16521D01*
X122328D01*
Y16616D01*
X122423D01*
Y16711D01*
X122518D01*
Y16805D01*
X122612D01*
Y16900D01*
X122707D01*
Y16995D01*
X122801D01*
Y17089D01*
X122896D01*
Y17184D01*
X123085D01*
Y17279D01*
X123653D01*
Y17184D01*
D02*
G37*
G36*
X121760Y10936D02*
X121666D01*
Y11031D01*
X121760D01*
Y10936D01*
D02*
G37*
G36*
X120151D02*
X120056D01*
Y11031D01*
X120151D01*
Y10936D01*
D02*
G37*
G36*
X121666Y10841D02*
X121571D01*
Y10936D01*
X121666D01*
Y10841D01*
D02*
G37*
G36*
X121571Y10747D02*
X121476D01*
Y10841D01*
X121571D01*
Y10747D01*
D02*
G37*
G36*
X120056Y10841D02*
Y10747D01*
X119962D01*
Y10841D01*
X119772D01*
Y10936D01*
X120056D01*
Y10841D01*
D02*
G37*
G36*
X121476Y10652D02*
X121381D01*
Y10747D01*
X121476D01*
Y10652D01*
D02*
G37*
G36*
X125452Y11504D02*
X125547D01*
Y11409D01*
X125641D01*
Y11315D01*
X125736D01*
Y11220D01*
X125831D01*
Y11125D01*
X125925D01*
Y11031D01*
X126020D01*
Y10936D01*
X126115D01*
Y10841D01*
X126209D01*
Y10747D01*
X126115D01*
Y10652D01*
X126020D01*
Y10557D01*
X125831D01*
Y10652D01*
X125736D01*
Y10747D01*
X125641D01*
Y10841D01*
X125547D01*
Y10936D01*
X125452D01*
Y11031D01*
X125357D01*
Y11125D01*
X125263D01*
Y11220D01*
X125168D01*
Y11315D01*
X125073D01*
Y11409D01*
X125263D01*
Y11504D01*
X125357D01*
Y11599D01*
X125452D01*
Y11504D01*
D02*
G37*
G36*
X124789Y11409D02*
Y11315D01*
Y11220D01*
Y11125D01*
X124411D01*
Y11031D01*
X124316D01*
Y10936D01*
X124222D01*
Y10841D01*
X124127D01*
Y10747D01*
X124032D01*
Y10652D01*
X123937D01*
Y10557D01*
Y10463D01*
X124032D01*
Y10368D01*
X124127D01*
Y10273D01*
X124222D01*
Y10179D01*
X124316D01*
Y10084D01*
X124411D01*
Y9989D01*
X124505D01*
Y9895D01*
X124600D01*
Y9800D01*
X124695D01*
Y9705D01*
X124789D01*
Y9611D01*
X124884D01*
Y9516D01*
X124979D01*
Y9421D01*
X125357D01*
Y9516D01*
X125452D01*
Y9611D01*
X125547D01*
Y9705D01*
X125641D01*
Y9800D01*
X125736D01*
Y9895D01*
Y9989D01*
Y10084D01*
Y10179D01*
X126115D01*
Y10273D01*
X126209D01*
Y10368D01*
X126304D01*
Y10463D01*
X126399D01*
Y10557D01*
X126493D01*
Y10652D01*
X126588D01*
Y10747D01*
Y10841D01*
Y10936D01*
X126872D01*
Y11031D01*
X127061D01*
Y10936D01*
Y10841D01*
Y10747D01*
X127251D01*
Y10652D01*
X127345D01*
Y10557D01*
X127440D01*
Y10463D01*
X127535D01*
Y10368D01*
X127629D01*
Y10273D01*
X127724D01*
Y10179D01*
X130943D01*
Y10084D01*
X131037D01*
Y9989D01*
X131132D01*
Y9895D01*
X131227D01*
Y9800D01*
X131321D01*
Y9705D01*
X131416D01*
Y9611D01*
X131511D01*
Y9516D01*
X131605D01*
Y9421D01*
X131700D01*
Y9327D01*
X131795D01*
Y9232D01*
X131889D01*
Y9137D01*
X131984D01*
Y9043D01*
X132173D01*
Y8948D01*
X132268D01*
Y8854D01*
X132363D01*
Y8759D01*
X132457D01*
Y8664D01*
X132552D01*
Y8569D01*
X132647D01*
Y8475D01*
X132741D01*
Y8380D01*
X132836D01*
Y8286D01*
X132931D01*
Y8191D01*
X133025D01*
Y8096D01*
X133120D01*
Y8002D01*
X133215D01*
Y7907D01*
X133309D01*
Y7812D01*
X133404D01*
Y7717D01*
X133499D01*
Y7623D01*
X128955D01*
Y7717D01*
X127440D01*
Y7812D01*
X126967D01*
Y7907D01*
Y8002D01*
Y8096D01*
Y8191D01*
Y8286D01*
Y8380D01*
Y8475D01*
Y8569D01*
Y8664D01*
X126872D01*
Y8759D01*
X126777D01*
Y8854D01*
X126683D01*
Y8948D01*
X126588D01*
Y9043D01*
X126493D01*
Y9137D01*
X126399D01*
Y9232D01*
X126304D01*
Y9327D01*
X126209D01*
Y9421D01*
X126115D01*
Y9516D01*
X126020D01*
Y9611D01*
X125925D01*
Y9705D01*
X125736D01*
Y9611D01*
X125641D01*
Y9516D01*
X125547D01*
Y9421D01*
X125452D01*
Y9327D01*
Y9232D01*
X125641D01*
Y9137D01*
X125736D01*
Y9043D01*
X125831D01*
Y8948D01*
X125925D01*
Y8854D01*
X126020D01*
Y8759D01*
X126115D01*
Y8664D01*
X126209D01*
Y8569D01*
X126304D01*
Y8475D01*
X126399D01*
Y8380D01*
Y8286D01*
Y8191D01*
Y8096D01*
Y8002D01*
Y7907D01*
Y7812D01*
X126209D01*
Y7907D01*
X125831D01*
Y8002D01*
X125641D01*
Y8096D01*
X125452D01*
Y8191D01*
X125263D01*
Y8286D01*
X125073D01*
Y8380D01*
X124884D01*
Y8475D01*
X124695D01*
Y8569D01*
X124505D01*
Y8664D01*
X124222D01*
Y8759D01*
X124032D01*
Y8854D01*
X123843D01*
Y8948D01*
X123653D01*
Y9043D01*
X123464D01*
Y9137D01*
X123275D01*
Y9232D01*
X123085D01*
Y9327D01*
X122896D01*
Y9421D01*
X122707D01*
Y9516D01*
X122518D01*
Y9611D01*
X122328D01*
Y9705D01*
X122139D01*
Y9800D01*
X122044D01*
Y9895D01*
X122139D01*
Y9989D01*
X122233D01*
Y10084D01*
X122328D01*
Y10179D01*
X122423D01*
Y10273D01*
X122518D01*
Y10368D01*
X122612D01*
Y10463D01*
Y10557D01*
Y10652D01*
Y10747D01*
X122518D01*
Y10841D01*
X122423D01*
Y10936D01*
X122328D01*
Y11031D01*
X122233D01*
Y11125D01*
X121855D01*
Y11220D01*
Y11315D01*
Y11409D01*
Y11504D01*
X121950D01*
Y11409D01*
X122044D01*
Y11315D01*
X122233D01*
Y11220D01*
X122328D01*
Y11125D01*
X122423D01*
Y11031D01*
X122518D01*
Y10936D01*
X122612D01*
Y10841D01*
X122707D01*
Y10747D01*
X122801D01*
Y10652D01*
X123085D01*
Y10557D01*
X123559D01*
Y10652D01*
X123843D01*
Y10747D01*
X123937D01*
Y10841D01*
X124032D01*
Y10936D01*
X124127D01*
Y11031D01*
X124222D01*
Y11125D01*
X124316D01*
Y11220D01*
X124505D01*
Y11315D01*
X124600D01*
Y11409D01*
X124695D01*
Y11504D01*
X124789D01*
Y11409D01*
D02*
G37*
G36*
X121381Y10557D02*
X121287D01*
Y10652D01*
X121381D01*
Y10557D01*
D02*
G37*
G36*
X121287Y11504D02*
X121381D01*
Y11409D01*
X121476D01*
Y11315D01*
Y11220D01*
X121381D01*
Y11125D01*
X121287D01*
Y11031D01*
X121192D01*
Y10936D01*
X121098D01*
Y10841D01*
X121003D01*
Y10747D01*
X120908D01*
Y10652D01*
X120814D01*
Y10557D01*
X120529D01*
Y10652D01*
X120435D01*
Y10747D01*
Y10841D01*
X120529D01*
Y10936D01*
X120624D01*
Y11031D01*
X120719D01*
Y11125D01*
X120814D01*
Y11220D01*
X120908D01*
Y11315D01*
X121003D01*
Y11409D01*
X121098D01*
Y11504D01*
X121192D01*
Y11599D01*
X121287D01*
Y11504D01*
D02*
G37*
G36*
Y10463D02*
X121192D01*
Y10368D01*
X121098D01*
Y10273D01*
X120908D01*
Y10368D01*
X121003D01*
Y10463D01*
X121098D01*
Y10557D01*
X121287D01*
Y10463D01*
D02*
G37*
G36*
X122139Y10652D02*
X122233D01*
Y10557D01*
Y10463D01*
X122139D01*
Y10368D01*
X122044D01*
Y10273D01*
X121950D01*
Y10179D01*
X121855D01*
Y10084D01*
X121760D01*
Y9989D01*
X121476D01*
Y10084D01*
X121381D01*
Y10179D01*
X121476D01*
Y10273D01*
X121571D01*
Y10368D01*
X121666D01*
Y10463D01*
X121760D01*
Y10557D01*
X121855D01*
Y10652D01*
X121950D01*
Y10747D01*
X122139D01*
Y10652D01*
D02*
G37*
G36*
X124600Y10747D02*
X124695D01*
Y10652D01*
X124789D01*
Y10557D01*
X124884D01*
Y10463D01*
X124979D01*
Y10368D01*
X125073D01*
Y10273D01*
X125168D01*
Y10179D01*
X125263D01*
Y10084D01*
X125357D01*
Y9989D01*
Y9895D01*
X125263D01*
Y9800D01*
X125073D01*
Y9895D01*
X124979D01*
Y9989D01*
X124884D01*
Y10084D01*
X124789D01*
Y10179D01*
X124600D01*
Y10273D01*
Y10368D01*
X124505D01*
Y10463D01*
X124316D01*
Y10557D01*
Y10652D01*
X124411D01*
Y10747D01*
X124505D01*
Y10841D01*
X124600D01*
Y10747D01*
D02*
G37*
G36*
X249319Y44732D02*
Y44622D01*
Y44513D01*
Y44403D01*
Y44294D01*
Y44184D01*
Y44075D01*
Y43966D01*
Y43856D01*
Y43747D01*
Y43637D01*
Y43528D01*
Y43418D01*
Y43309D01*
Y43200D01*
Y43090D01*
Y42981D01*
Y42871D01*
Y42762D01*
Y42652D01*
Y42543D01*
Y42433D01*
Y42324D01*
Y42215D01*
Y42105D01*
Y41996D01*
Y41886D01*
Y41777D01*
Y41667D01*
Y41558D01*
Y41448D01*
Y41339D01*
Y41230D01*
Y41120D01*
Y41011D01*
Y40901D01*
Y40792D01*
Y40682D01*
Y40573D01*
Y40463D01*
Y40354D01*
Y40244D01*
Y40135D01*
Y40026D01*
Y39916D01*
Y39807D01*
Y39697D01*
Y39588D01*
Y39478D01*
Y39369D01*
Y39259D01*
Y39150D01*
Y39041D01*
Y38931D01*
Y38822D01*
Y38712D01*
Y38603D01*
Y38493D01*
Y38384D01*
Y38274D01*
Y38165D01*
Y38056D01*
Y37946D01*
Y37837D01*
Y37727D01*
Y37618D01*
Y37508D01*
Y37399D01*
Y37290D01*
Y37180D01*
Y37071D01*
Y36961D01*
Y36852D01*
Y36742D01*
Y36633D01*
Y36523D01*
Y36414D01*
Y36305D01*
Y36195D01*
Y36086D01*
Y35976D01*
Y35867D01*
Y35757D01*
Y35648D01*
Y35538D01*
Y35429D01*
Y35320D01*
Y35210D01*
Y35101D01*
Y34991D01*
Y34882D01*
Y34772D01*
Y34663D01*
Y34553D01*
Y34444D01*
Y34334D01*
Y34225D01*
Y34116D01*
Y34006D01*
Y33897D01*
Y33787D01*
Y33678D01*
Y33568D01*
Y33459D01*
Y33349D01*
Y33240D01*
Y33131D01*
Y33021D01*
Y32912D01*
Y32802D01*
Y32693D01*
Y32583D01*
Y32474D01*
Y32364D01*
Y32255D01*
Y32146D01*
Y32036D01*
Y31927D01*
Y31817D01*
Y31708D01*
Y31598D01*
Y31489D01*
Y31380D01*
Y31270D01*
Y31161D01*
Y31051D01*
Y30942D01*
Y30832D01*
Y30723D01*
Y30613D01*
Y30504D01*
Y30395D01*
Y30285D01*
Y30176D01*
Y30066D01*
Y29957D01*
Y29847D01*
Y29738D01*
Y29628D01*
Y29519D01*
Y29409D01*
Y29300D01*
Y29191D01*
Y29081D01*
Y28972D01*
Y28862D01*
Y28753D01*
Y28643D01*
Y28534D01*
Y28424D01*
Y28315D01*
Y28206D01*
Y28096D01*
Y27987D01*
Y27877D01*
Y27768D01*
Y27658D01*
Y27549D01*
Y27439D01*
Y27330D01*
Y27220D01*
Y27111D01*
Y27002D01*
Y26892D01*
Y26783D01*
Y26673D01*
Y26564D01*
Y26454D01*
Y26345D01*
Y26235D01*
Y26126D01*
Y26017D01*
Y25907D01*
Y25798D01*
Y25688D01*
Y25579D01*
Y25469D01*
Y25360D01*
Y25251D01*
Y25141D01*
Y25032D01*
Y24922D01*
Y24813D01*
Y24703D01*
Y24594D01*
Y24484D01*
Y24375D01*
Y24265D01*
Y24156D01*
Y24047D01*
Y23937D01*
Y23828D01*
Y23718D01*
Y23609D01*
Y23499D01*
Y23390D01*
Y23280D01*
Y23171D01*
Y23062D01*
Y22952D01*
Y22843D01*
Y22733D01*
Y22624D01*
Y22514D01*
Y22405D01*
Y22296D01*
Y22186D01*
Y22077D01*
Y21967D01*
Y21858D01*
Y21748D01*
Y21639D01*
Y21529D01*
Y21420D01*
Y21310D01*
Y21201D01*
Y21092D01*
Y20982D01*
Y20873D01*
Y20763D01*
Y20654D01*
Y20544D01*
Y20435D01*
Y20325D01*
Y20216D01*
Y20107D01*
Y19997D01*
Y19888D01*
Y19778D01*
Y19669D01*
Y19559D01*
Y19450D01*
Y19341D01*
Y19231D01*
Y19122D01*
Y19012D01*
Y18903D01*
Y18793D01*
Y18684D01*
Y18574D01*
Y18465D01*
Y18356D01*
Y18246D01*
Y18137D01*
Y18027D01*
Y17918D01*
Y17808D01*
Y17699D01*
Y17589D01*
Y17480D01*
Y17370D01*
Y17261D01*
Y17152D01*
Y17042D01*
Y16933D01*
Y16823D01*
Y16714D01*
Y16604D01*
Y16495D01*
Y16386D01*
Y16276D01*
Y16167D01*
Y16057D01*
Y15948D01*
Y15838D01*
Y15729D01*
Y15619D01*
Y15510D01*
Y15401D01*
Y15291D01*
Y15182D01*
Y15072D01*
Y14963D01*
Y14853D01*
Y14744D01*
Y14634D01*
Y14525D01*
Y14415D01*
Y14306D01*
Y14197D01*
Y14087D01*
Y13978D01*
Y13868D01*
Y13759D01*
Y13649D01*
Y13540D01*
Y13431D01*
Y13321D01*
Y13212D01*
Y13102D01*
Y12993D01*
Y12883D01*
Y12774D01*
Y12664D01*
Y12555D01*
Y12445D01*
Y12336D01*
Y12227D01*
Y12117D01*
Y12008D01*
Y11898D01*
Y11789D01*
Y11679D01*
Y11570D01*
Y11461D01*
Y11351D01*
Y11242D01*
Y11132D01*
Y11023D01*
Y10913D01*
Y10804D01*
Y10694D01*
Y10585D01*
Y10475D01*
Y10366D01*
Y10257D01*
Y10147D01*
Y10038D01*
Y9928D01*
Y9819D01*
Y9709D01*
Y9600D01*
Y9490D01*
Y9381D01*
Y9272D01*
Y9162D01*
Y9053D01*
Y8943D01*
Y8834D01*
Y8724D01*
Y8615D01*
Y8506D01*
Y8396D01*
Y8287D01*
Y8177D01*
Y8068D01*
Y7958D01*
Y7849D01*
Y7739D01*
Y7630D01*
Y7520D01*
Y7411D01*
Y7302D01*
Y7192D01*
Y7083D01*
Y6973D01*
Y6864D01*
Y6754D01*
Y6645D01*
Y6536D01*
Y6426D01*
X210904D01*
Y6536D01*
Y6645D01*
Y6754D01*
Y6864D01*
Y6973D01*
Y7083D01*
Y7192D01*
Y7302D01*
Y7411D01*
Y7520D01*
Y7630D01*
Y7739D01*
Y7849D01*
Y7958D01*
Y8068D01*
Y8177D01*
Y8287D01*
Y8396D01*
Y8506D01*
Y8615D01*
Y8724D01*
Y8834D01*
Y8943D01*
Y9053D01*
Y9162D01*
Y9272D01*
Y9381D01*
Y9490D01*
Y9600D01*
Y9709D01*
Y9819D01*
Y9928D01*
Y10038D01*
Y10147D01*
Y10257D01*
Y10366D01*
Y10475D01*
Y10585D01*
Y10694D01*
Y10804D01*
Y10913D01*
Y11023D01*
Y11132D01*
Y11242D01*
Y11351D01*
Y11461D01*
Y11570D01*
Y11679D01*
Y11789D01*
Y11898D01*
Y12008D01*
Y12117D01*
Y12227D01*
Y12336D01*
Y12445D01*
Y12555D01*
Y12664D01*
Y12774D01*
Y12883D01*
Y12993D01*
Y13102D01*
Y13212D01*
Y13321D01*
Y13431D01*
Y13540D01*
Y13649D01*
Y13759D01*
Y13868D01*
Y13978D01*
Y14087D01*
Y14197D01*
Y14306D01*
Y14415D01*
Y14525D01*
Y14634D01*
Y14744D01*
Y14853D01*
Y14963D01*
Y15072D01*
Y15182D01*
Y15291D01*
Y15401D01*
Y15510D01*
Y15619D01*
Y15729D01*
Y15838D01*
Y15948D01*
Y16057D01*
Y16167D01*
Y16276D01*
Y16386D01*
Y16495D01*
Y16604D01*
Y16714D01*
Y16823D01*
Y16933D01*
Y17042D01*
Y17152D01*
Y17261D01*
Y17370D01*
Y17480D01*
Y17589D01*
Y17699D01*
Y17808D01*
Y17918D01*
Y18027D01*
Y18137D01*
Y18246D01*
Y18356D01*
Y18465D01*
Y18574D01*
Y18684D01*
Y18793D01*
Y18903D01*
Y19012D01*
Y19122D01*
Y19231D01*
Y19341D01*
Y19450D01*
Y19559D01*
Y19669D01*
Y19778D01*
Y19888D01*
Y19997D01*
Y20107D01*
Y20216D01*
Y20325D01*
Y20435D01*
Y20544D01*
Y20654D01*
Y20763D01*
Y20873D01*
Y20982D01*
Y21092D01*
Y21201D01*
Y21310D01*
Y21420D01*
Y21529D01*
Y21639D01*
Y21748D01*
Y21858D01*
Y21967D01*
Y22077D01*
Y22186D01*
Y22296D01*
Y22405D01*
Y22514D01*
Y22624D01*
Y22733D01*
Y22843D01*
Y22952D01*
Y23062D01*
Y23171D01*
Y23280D01*
Y23390D01*
Y23499D01*
Y23609D01*
Y23718D01*
Y23828D01*
Y23937D01*
Y24047D01*
Y24156D01*
Y24265D01*
Y24375D01*
Y24484D01*
Y24594D01*
Y24703D01*
Y24813D01*
Y24922D01*
Y25032D01*
Y25141D01*
Y25251D01*
Y25360D01*
Y25469D01*
Y25579D01*
Y25688D01*
Y25798D01*
Y25907D01*
Y26017D01*
Y26126D01*
Y26235D01*
Y26345D01*
Y26454D01*
Y26564D01*
Y26673D01*
Y26783D01*
Y26892D01*
Y27002D01*
Y27111D01*
Y27220D01*
Y27330D01*
Y27439D01*
Y27549D01*
Y27658D01*
Y27768D01*
Y27877D01*
Y27987D01*
Y28096D01*
Y28206D01*
Y28315D01*
Y28424D01*
Y28534D01*
Y28643D01*
Y28753D01*
Y28862D01*
Y28972D01*
Y29081D01*
Y29191D01*
Y29300D01*
Y29409D01*
Y29519D01*
Y29628D01*
Y29738D01*
Y29847D01*
Y29957D01*
Y30066D01*
Y30176D01*
Y30285D01*
Y30395D01*
Y30504D01*
Y30613D01*
Y30723D01*
Y30832D01*
Y30942D01*
Y31051D01*
Y31161D01*
Y31270D01*
Y31380D01*
Y31489D01*
Y31598D01*
Y31708D01*
Y31817D01*
Y31927D01*
Y32036D01*
Y32146D01*
Y32255D01*
Y32364D01*
Y32474D01*
Y32583D01*
Y32693D01*
Y32802D01*
Y32912D01*
Y33021D01*
Y33131D01*
Y33240D01*
Y33349D01*
Y33459D01*
Y33568D01*
Y33678D01*
Y33787D01*
Y33897D01*
Y34006D01*
Y34116D01*
Y34225D01*
Y34334D01*
Y34444D01*
Y34553D01*
Y34663D01*
Y34772D01*
Y34882D01*
Y34991D01*
Y35101D01*
Y35210D01*
Y35320D01*
Y35429D01*
Y35538D01*
Y35648D01*
Y35757D01*
Y35867D01*
Y35976D01*
Y36086D01*
Y36195D01*
Y36305D01*
Y36414D01*
Y36523D01*
Y36633D01*
Y36742D01*
Y36852D01*
Y36961D01*
Y37071D01*
Y37180D01*
Y37290D01*
Y37399D01*
Y37508D01*
Y37618D01*
Y37727D01*
Y37837D01*
Y37946D01*
Y38056D01*
Y38165D01*
Y38274D01*
Y38384D01*
Y38493D01*
Y38603D01*
Y38712D01*
Y38822D01*
Y38931D01*
Y39041D01*
Y39150D01*
Y39259D01*
Y39369D01*
Y39478D01*
Y39588D01*
Y39697D01*
Y39807D01*
Y39916D01*
Y40026D01*
Y40135D01*
Y40244D01*
Y40354D01*
Y40463D01*
Y40573D01*
Y40682D01*
Y40792D01*
Y40901D01*
Y41011D01*
Y41120D01*
Y41230D01*
Y41339D01*
Y41448D01*
Y41558D01*
Y41667D01*
Y41777D01*
Y41886D01*
Y41996D01*
Y42105D01*
Y42215D01*
Y42324D01*
Y42433D01*
Y42543D01*
Y42652D01*
Y42762D01*
Y42871D01*
Y42981D01*
Y43090D01*
Y43200D01*
Y43309D01*
Y43418D01*
Y43528D01*
Y43637D01*
Y43747D01*
Y43856D01*
Y43966D01*
Y44075D01*
Y44184D01*
Y44294D01*
Y44403D01*
Y44513D01*
Y44622D01*
Y44732D01*
Y44841D01*
X249319D01*
Y44732D01*
D02*
G37*
%LPC*%
G36*
X132457Y21160D02*
X131511D01*
Y21065D01*
Y20971D01*
Y20876D01*
Y20781D01*
Y20687D01*
Y20592D01*
Y20497D01*
Y20403D01*
Y20308D01*
X132457D01*
Y20403D01*
X132552D01*
Y20497D01*
Y20592D01*
Y20687D01*
Y20781D01*
Y20876D01*
Y20971D01*
Y21065D01*
X132457D01*
Y21160D01*
D02*
G37*
G36*
X142018Y20781D02*
X141545D01*
Y20687D01*
X141356D01*
Y20592D01*
X141261D01*
Y20497D01*
X141166D01*
Y20403D01*
X141072D01*
Y20308D01*
Y20213D01*
Y20119D01*
Y20024D01*
Y19929D01*
Y19835D01*
Y19740D01*
X140977D01*
Y19645D01*
X140883D01*
Y19551D01*
X140788D01*
Y19456D01*
X140693D01*
Y19361D01*
X140598D01*
Y19267D01*
X140504D01*
Y19172D01*
X140409D01*
Y19077D01*
X140314D01*
Y18983D01*
X140220D01*
Y18888D01*
X140031D01*
Y18793D01*
Y18699D01*
X139841D01*
Y18604D01*
X139747D01*
Y18509D01*
X139652D01*
Y18415D01*
X139557D01*
Y18320D01*
Y18225D01*
Y18131D01*
Y18036D01*
Y17941D01*
Y17847D01*
Y17752D01*
Y17657D01*
Y17563D01*
Y17468D01*
Y17373D01*
Y17279D01*
Y17184D01*
Y17089D01*
Y16995D01*
Y16900D01*
Y16805D01*
Y16711D01*
Y16616D01*
Y16521D01*
Y16427D01*
Y16332D01*
Y16237D01*
Y16143D01*
Y16048D01*
Y15953D01*
Y15859D01*
Y15764D01*
Y15669D01*
Y15575D01*
Y15480D01*
Y15385D01*
Y15291D01*
X139463D01*
Y15196D01*
X139273D01*
Y15101D01*
Y15007D01*
X139179D01*
Y14912D01*
Y14817D01*
Y14723D01*
Y14628D01*
Y14533D01*
Y14439D01*
Y14344D01*
X139273D01*
Y14249D01*
X139368D01*
Y14155D01*
X139463D01*
Y14060D01*
X139747D01*
Y13965D01*
X139936D01*
Y14060D01*
X140220D01*
Y14155D01*
X140314D01*
Y14249D01*
X140409D01*
Y14344D01*
Y14439D01*
X140504D01*
Y14533D01*
Y14628D01*
Y14723D01*
Y14817D01*
Y14912D01*
Y15007D01*
X140409D01*
Y15101D01*
X140314D01*
Y15196D01*
X140220D01*
Y15291D01*
X140125D01*
Y15385D01*
Y15480D01*
Y15575D01*
Y15669D01*
Y15764D01*
Y15859D01*
Y15953D01*
Y16048D01*
Y16143D01*
Y16237D01*
Y16332D01*
Y16427D01*
Y16521D01*
Y16616D01*
Y16711D01*
Y16805D01*
Y16900D01*
Y16995D01*
Y17089D01*
Y17184D01*
Y17279D01*
Y17373D01*
Y17468D01*
Y17563D01*
Y17657D01*
Y17752D01*
Y17847D01*
Y17941D01*
Y18036D01*
Y18131D01*
Y18225D01*
X140314D01*
Y18320D01*
Y18415D01*
X140504D01*
Y18509D01*
X140598D01*
Y18604D01*
X140693D01*
Y18699D01*
X140788D01*
Y18793D01*
X140883D01*
Y18888D01*
X140977D01*
Y18983D01*
X141072D01*
Y19077D01*
X141166D01*
Y19172D01*
X141261D01*
Y19267D01*
X141356D01*
Y19361D01*
X141451D01*
Y19456D01*
X141735D01*
Y19361D01*
X141829D01*
Y19456D01*
X142113D01*
Y19551D01*
X142208D01*
Y19645D01*
X142303D01*
Y19740D01*
X142397D01*
Y19835D01*
Y19929D01*
X142492D01*
Y20024D01*
Y20119D01*
Y20213D01*
X142397D01*
Y20308D01*
Y20403D01*
Y20497D01*
X142303D01*
Y20592D01*
X142208D01*
Y20687D01*
X142018D01*
Y20781D01*
D02*
G37*
G36*
X131321Y21160D02*
X129901D01*
Y21065D01*
Y20971D01*
Y20876D01*
Y20781D01*
Y20687D01*
Y20592D01*
Y20497D01*
Y20403D01*
Y20308D01*
Y20213D01*
Y20119D01*
Y20024D01*
Y19929D01*
Y19835D01*
Y19740D01*
Y19645D01*
Y19551D01*
Y19456D01*
Y19361D01*
Y19267D01*
Y19172D01*
X130375D01*
Y19077D01*
X130280D01*
Y18983D01*
X130375D01*
Y18888D01*
X130280D01*
Y18793D01*
X130185D01*
Y18699D01*
X130091D01*
Y18604D01*
X129996D01*
Y18509D01*
X128197D01*
Y18415D01*
X128103D01*
Y18320D01*
X128008D01*
Y18225D01*
X127913D01*
Y18131D01*
X127819D01*
Y18036D01*
X127724D01*
Y17941D01*
X127629D01*
Y17847D01*
X127535D01*
Y17752D01*
X127440D01*
Y17657D01*
X127345D01*
Y17563D01*
X127251D01*
Y17468D01*
X127156D01*
Y17373D01*
X127061D01*
Y17279D01*
X127156D01*
Y17184D01*
X127345D01*
Y17089D01*
Y16995D01*
X127535D01*
Y17089D01*
X127629D01*
Y17184D01*
X127724D01*
Y17279D01*
X127819D01*
Y17373D01*
X127913D01*
Y17468D01*
X128008D01*
Y17563D01*
X128103D01*
Y17657D01*
X128197D01*
Y17752D01*
X128292D01*
Y17847D01*
X128387D01*
Y17941D01*
X130091D01*
Y18036D01*
X130280D01*
Y18131D01*
X130375D01*
Y18225D01*
X130469D01*
Y18320D01*
X130564D01*
Y18415D01*
X130659D01*
Y18509D01*
X130753D01*
Y18604D01*
X130848D01*
Y18699D01*
Y18793D01*
Y18888D01*
Y18983D01*
Y19077D01*
Y19172D01*
X130375D01*
Y19267D01*
X130848D01*
Y19172D01*
X131321D01*
Y19267D01*
Y19361D01*
Y19456D01*
Y19551D01*
Y19645D01*
Y19740D01*
Y19835D01*
Y19929D01*
Y20024D01*
Y20119D01*
Y20213D01*
Y20308D01*
Y20403D01*
Y20497D01*
Y20592D01*
Y20687D01*
Y20781D01*
Y20876D01*
Y20971D01*
Y21065D01*
Y21160D01*
D02*
G37*
G36*
X132552Y19835D02*
X131511D01*
Y19740D01*
Y19645D01*
Y19551D01*
Y19456D01*
Y19361D01*
Y19267D01*
Y19172D01*
Y19077D01*
Y18983D01*
Y18888D01*
Y18793D01*
X132457D01*
Y18888D01*
Y18983D01*
Y19077D01*
X132552D01*
Y19172D01*
Y19267D01*
Y19361D01*
Y19456D01*
Y19551D01*
Y19645D01*
Y19740D01*
Y19835D01*
D02*
G37*
G36*
X143249Y22959D02*
X143155D01*
Y22864D01*
X142870D01*
Y22769D01*
X142681D01*
Y22675D01*
X142587D01*
Y22580D01*
Y22485D01*
X142492D01*
Y22391D01*
Y22296D01*
Y22201D01*
Y22107D01*
Y22012D01*
X142587D01*
Y21917D01*
Y21823D01*
X142681D01*
Y21728D01*
X142776D01*
Y21633D01*
X142965D01*
Y21539D01*
Y21444D01*
Y21349D01*
Y21255D01*
Y21160D01*
Y21065D01*
Y20971D01*
Y20876D01*
Y20781D01*
Y20687D01*
Y20592D01*
Y20497D01*
Y20403D01*
Y20308D01*
Y20213D01*
Y20119D01*
Y20024D01*
Y19929D01*
Y19835D01*
Y19740D01*
Y19645D01*
Y19551D01*
Y19456D01*
X142870D01*
Y19361D01*
X142776D01*
Y19267D01*
X142681D01*
Y19172D01*
X142587D01*
Y19077D01*
X142397D01*
Y18983D01*
X142303D01*
Y18888D01*
X142208D01*
Y18793D01*
X142113D01*
Y18699D01*
X141829D01*
Y18793D01*
X141735D01*
Y18699D01*
X141451D01*
Y18604D01*
X141261D01*
Y18509D01*
X141166D01*
Y18415D01*
Y18320D01*
X141072D01*
Y18225D01*
Y18131D01*
Y18036D01*
Y17941D01*
Y17847D01*
X141166D01*
Y17752D01*
Y17657D01*
X141261D01*
Y17563D01*
X141356D01*
Y17468D01*
X141545D01*
Y17373D01*
X142018D01*
Y17468D01*
X142208D01*
Y17563D01*
X142303D01*
Y17657D01*
X142397D01*
Y17752D01*
Y17847D01*
Y17941D01*
X142492D01*
Y18036D01*
Y18131D01*
Y18225D01*
X142397D01*
Y18320D01*
X142492D01*
Y18415D01*
X142587D01*
Y18509D01*
X142681D01*
Y18604D01*
X142870D01*
Y18699D01*
X142965D01*
Y18793D01*
X143060D01*
Y18888D01*
X143155D01*
Y18983D01*
X143249D01*
Y19077D01*
X143344D01*
Y19172D01*
X143438D01*
Y19267D01*
Y19361D01*
Y19456D01*
Y19551D01*
Y19645D01*
Y19740D01*
Y19835D01*
Y19929D01*
Y20024D01*
Y20119D01*
Y20213D01*
Y20308D01*
Y20403D01*
Y20497D01*
Y20592D01*
Y20687D01*
Y20781D01*
Y20876D01*
Y20971D01*
Y21065D01*
Y21160D01*
Y21255D01*
Y21349D01*
Y21444D01*
Y21539D01*
Y21633D01*
X143628D01*
Y21728D01*
X143722D01*
Y21823D01*
X143817D01*
Y21917D01*
Y22012D01*
X143912D01*
Y22107D01*
Y22201D01*
Y22296D01*
Y22391D01*
Y22485D01*
X143817D01*
Y22580D01*
Y22675D01*
X143722D01*
Y22769D01*
X143533D01*
Y22864D01*
X143249D01*
Y22959D01*
D02*
G37*
G36*
X132268Y18699D02*
X131795D01*
Y18604D01*
X131700D01*
Y18509D01*
Y18415D01*
Y18320D01*
Y18225D01*
Y18131D01*
X131605D01*
Y18036D01*
X131416D01*
Y17941D01*
Y17847D01*
X131321D01*
Y17752D01*
Y17657D01*
Y17563D01*
Y17468D01*
Y17373D01*
Y17279D01*
X131416D01*
Y17184D01*
Y17089D01*
X131511D01*
Y16995D01*
X131700D01*
Y16900D01*
X132268D01*
Y16995D01*
X132457D01*
Y17089D01*
X132552D01*
Y17184D01*
X132647D01*
Y17279D01*
Y17373D01*
Y17468D01*
Y17563D01*
Y17657D01*
Y17752D01*
Y17847D01*
Y17941D01*
X132552D01*
Y18036D01*
X132457D01*
Y18131D01*
X132268D01*
Y18225D01*
Y18320D01*
Y18415D01*
Y18509D01*
Y18604D01*
Y18699D01*
D02*
G37*
G36*
X144859Y20687D02*
X144290D01*
Y20592D01*
X144101D01*
Y20497D01*
X144007D01*
Y20403D01*
X143912D01*
Y20308D01*
Y20213D01*
Y20119D01*
X143817D01*
Y20024D01*
Y19929D01*
Y19835D01*
X143912D01*
Y19740D01*
Y19645D01*
X144007D01*
Y19551D01*
X144101D01*
Y19456D01*
X144196D01*
Y19361D01*
X144290D01*
Y19267D01*
Y19172D01*
Y19077D01*
Y18983D01*
Y18888D01*
Y18793D01*
Y18699D01*
Y18604D01*
Y18509D01*
Y18415D01*
Y18320D01*
Y18225D01*
Y18131D01*
Y18036D01*
Y17941D01*
Y17847D01*
Y17752D01*
Y17657D01*
Y17563D01*
Y17468D01*
Y17373D01*
Y17279D01*
Y17184D01*
X144196D01*
Y17089D01*
X144101D01*
Y16995D01*
X143912D01*
Y16900D01*
X143817D01*
Y16805D01*
X143722D01*
Y16711D01*
X143628D01*
Y16616D01*
X143533D01*
Y16521D01*
X143438D01*
Y16427D01*
X143344D01*
Y16521D01*
X142870D01*
Y16427D01*
X142681D01*
Y16332D01*
X142587D01*
Y16237D01*
X142492D01*
Y16143D01*
Y16048D01*
X142397D01*
Y15953D01*
Y15859D01*
Y15764D01*
Y15669D01*
Y15575D01*
X142492D01*
Y15480D01*
X142587D01*
Y15385D01*
X142681D01*
Y15291D01*
X142776D01*
Y15196D01*
X143438D01*
Y15291D01*
X143533D01*
Y15385D01*
X143628D01*
Y15480D01*
X143722D01*
Y15575D01*
X143817D01*
Y15669D01*
Y15764D01*
Y15859D01*
Y15953D01*
Y16048D01*
Y16143D01*
X143912D01*
Y16237D01*
X144007D01*
Y16332D01*
X144101D01*
Y16427D01*
X144196D01*
Y16521D01*
X144385D01*
Y16616D01*
X144480D01*
Y16711D01*
X144574D01*
Y16805D01*
X144669D01*
Y16900D01*
X144764D01*
Y16995D01*
X144859D01*
Y17089D01*
Y17184D01*
Y17279D01*
Y17373D01*
Y17468D01*
Y17563D01*
Y17657D01*
Y17752D01*
Y17847D01*
Y17941D01*
Y18036D01*
Y18131D01*
Y18225D01*
Y18320D01*
Y18415D01*
Y18509D01*
Y18604D01*
Y18699D01*
Y18793D01*
Y18888D01*
Y18983D01*
Y19077D01*
Y19172D01*
Y19267D01*
Y19361D01*
Y19456D01*
X145048D01*
Y19551D01*
X145142D01*
Y19645D01*
Y19740D01*
X145237D01*
Y19835D01*
Y19929D01*
Y20024D01*
Y20119D01*
Y20213D01*
Y20308D01*
X145142D01*
Y20403D01*
X145048D01*
Y20497D01*
X144953D01*
Y20592D01*
X144859D01*
Y20687D01*
D02*
G37*
G36*
X125357Y18888D02*
X125168D01*
Y18793D01*
X124979D01*
Y18699D01*
X124884D01*
Y18604D01*
X124789D01*
Y18509D01*
X124695D01*
Y18415D01*
X124600D01*
Y18320D01*
X124505D01*
Y18225D01*
X124411D01*
Y18131D01*
X124316D01*
Y18036D01*
X124222D01*
Y17941D01*
X124127D01*
Y17847D01*
X124032D01*
Y17752D01*
Y17657D01*
Y17563D01*
Y17468D01*
X124127D01*
Y17373D01*
X124222D01*
Y17279D01*
X124316D01*
Y17184D01*
X124505D01*
Y17089D01*
X124789D01*
Y17184D01*
X124884D01*
Y17089D01*
Y16995D01*
X124789D01*
Y16900D01*
Y16805D01*
X124884D01*
Y16711D01*
X124979D01*
Y16616D01*
X125073D01*
Y16521D01*
X125168D01*
Y16427D01*
X125263D01*
Y16332D01*
X125641D01*
Y16237D01*
Y16143D01*
Y16048D01*
Y15953D01*
X125736D01*
Y15859D01*
X125831D01*
Y15764D01*
X125925D01*
Y15669D01*
X126020D01*
Y15575D01*
X126399D01*
Y15480D01*
Y15385D01*
Y15291D01*
Y15196D01*
X126493D01*
Y15101D01*
X126588D01*
Y15007D01*
X126683D01*
Y14912D01*
X126777D01*
Y14817D01*
X127251D01*
Y14912D01*
X127345D01*
Y15007D01*
X127440D01*
Y15101D01*
X127535D01*
Y15196D01*
X127629D01*
Y15291D01*
X127724D01*
Y15385D01*
X127819D01*
Y15480D01*
X127913D01*
Y15575D01*
X128008D01*
Y15669D01*
X128103D01*
Y15764D01*
X128197D01*
Y15859D01*
Y15953D01*
Y16048D01*
Y16143D01*
X128103D01*
Y16237D01*
X128008D01*
Y16332D01*
X127913D01*
Y16427D01*
X127819D01*
Y16521D01*
X127440D01*
Y16427D01*
X127345D01*
Y16332D01*
X127251D01*
Y16237D01*
X127156D01*
Y16143D01*
X127061D01*
Y16048D01*
X126967D01*
Y15953D01*
X126872D01*
Y15859D01*
X126683D01*
Y15953D01*
X126777D01*
Y16048D01*
X126872D01*
Y16143D01*
X126967D01*
Y16237D01*
X127061D01*
Y16332D01*
X127156D01*
Y16427D01*
X127251D01*
Y16521D01*
X127345D01*
Y16616D01*
X127440D01*
Y16711D01*
Y16805D01*
X127345D01*
Y16900D01*
Y16995D01*
X127251D01*
Y17089D01*
X127156D01*
Y17184D01*
X126967D01*
Y17279D01*
X126588D01*
Y17373D01*
Y17468D01*
Y17563D01*
Y17657D01*
X126493D01*
Y17752D01*
X126399D01*
Y17847D01*
X126304D01*
Y17941D01*
X126209D01*
Y18036D01*
X125831D01*
Y17941D01*
X125736D01*
Y17847D01*
X125641D01*
Y17752D01*
X125547D01*
Y17657D01*
X125452D01*
Y17563D01*
X125263D01*
Y17657D01*
X125357D01*
Y17752D01*
X125452D01*
Y17847D01*
X125547D01*
Y17941D01*
X125641D01*
Y18036D01*
X125736D01*
Y18131D01*
X125831D01*
Y18225D01*
Y18320D01*
Y18415D01*
X125736D01*
Y18509D01*
X125641D01*
Y18604D01*
X125547D01*
Y18699D01*
X125452D01*
Y18793D01*
X125357D01*
Y18888D01*
D02*
G37*
G36*
X134729Y15669D02*
X134161D01*
Y15575D01*
X133972D01*
Y15480D01*
X133877D01*
Y15385D01*
X133783D01*
Y15291D01*
Y15196D01*
Y15101D01*
X133688D01*
Y15007D01*
Y14912D01*
Y14817D01*
X133783D01*
Y14723D01*
Y14628D01*
X133877D01*
Y14533D01*
X133972D01*
Y14439D01*
X134067D01*
Y14344D01*
X134161D01*
Y14249D01*
Y14155D01*
Y14060D01*
Y13965D01*
Y13871D01*
Y13776D01*
Y13681D01*
Y13587D01*
Y13492D01*
Y13397D01*
Y13303D01*
Y13208D01*
Y13113D01*
Y13019D01*
Y12924D01*
Y12829D01*
Y12735D01*
Y12640D01*
Y12545D01*
Y12451D01*
Y12356D01*
Y12261D01*
Y12167D01*
Y12072D01*
Y11977D01*
Y11883D01*
X134256D01*
Y11788D01*
X134445D01*
Y11693D01*
X134540D01*
Y11599D01*
X134635D01*
Y11504D01*
X134729D01*
Y11409D01*
X134824D01*
Y11315D01*
X134919D01*
Y11220D01*
X135108D01*
Y11125D01*
X135203D01*
Y11031D01*
X135297D01*
Y10936D01*
X135392D01*
Y10841D01*
X135487D01*
Y10747D01*
X135581D01*
Y10652D01*
X135676D01*
Y10557D01*
X135771D01*
Y10463D01*
X135960D01*
Y10368D01*
Y10273D01*
Y10179D01*
Y10084D01*
Y9989D01*
Y9895D01*
X136055D01*
Y9800D01*
Y9705D01*
X136149D01*
Y9611D01*
X136244D01*
Y9516D01*
X137001D01*
Y9611D01*
X137096D01*
Y9705D01*
X137191D01*
Y9800D01*
X137285D01*
Y9895D01*
Y9989D01*
Y10084D01*
Y10179D01*
Y10273D01*
Y10368D01*
Y10463D01*
X137191D01*
Y10557D01*
X137096D01*
Y10652D01*
X137001D01*
Y10747D01*
X136907D01*
Y10841D01*
X136433D01*
Y10747D01*
X136339D01*
Y10841D01*
X136244D01*
Y10936D01*
X136055D01*
Y11031D01*
X135960D01*
Y11125D01*
X135865D01*
Y11220D01*
X135771D01*
Y11315D01*
X135676D01*
Y11409D01*
X135581D01*
Y11504D01*
X135487D01*
Y11599D01*
X135297D01*
Y11693D01*
X135203D01*
Y11788D01*
X135108D01*
Y11883D01*
X135013D01*
Y11977D01*
X134919D01*
Y12072D01*
X134824D01*
Y12167D01*
X134729D01*
Y12261D01*
Y12356D01*
Y12451D01*
Y12545D01*
Y12640D01*
Y12735D01*
Y12829D01*
Y12924D01*
Y13019D01*
Y13113D01*
Y13208D01*
Y13303D01*
Y13397D01*
Y13492D01*
Y13587D01*
Y13681D01*
Y13776D01*
Y13871D01*
Y13965D01*
Y14060D01*
Y14155D01*
Y14249D01*
Y14344D01*
Y14439D01*
X134824D01*
Y14533D01*
X134919D01*
Y14628D01*
X135013D01*
Y14723D01*
X135108D01*
Y14817D01*
Y14912D01*
Y15007D01*
Y15101D01*
Y15196D01*
Y15291D01*
X135013D01*
Y15385D01*
X134919D01*
Y15480D01*
X134824D01*
Y15575D01*
X134729D01*
Y15669D01*
D02*
G37*
G36*
X128387Y11977D02*
X128103D01*
Y11883D01*
X128008D01*
Y11788D01*
X127913D01*
Y11693D01*
Y11599D01*
X128008D01*
Y11504D01*
X128103D01*
Y11409D01*
X128197D01*
Y11315D01*
X128292D01*
Y11220D01*
X128387D01*
Y11125D01*
X128481D01*
Y11031D01*
X131889D01*
Y10936D01*
X131984D01*
Y10841D01*
X132079D01*
Y10747D01*
X132173D01*
Y10652D01*
X132268D01*
Y10557D01*
X132363D01*
Y10463D01*
X132457D01*
Y10368D01*
X132552D01*
Y10273D01*
X132647D01*
Y10179D01*
X132741D01*
Y10084D01*
X132836D01*
Y9989D01*
X132741D01*
Y9895D01*
Y9800D01*
Y9705D01*
X132836D01*
Y9611D01*
Y9516D01*
X132931D01*
Y9421D01*
Y9327D01*
X133120D01*
Y9232D01*
X133309D01*
Y9137D01*
X133593D01*
Y9232D01*
X133877D01*
Y9327D01*
X133972D01*
Y9421D01*
X134067D01*
Y9516D01*
Y9611D01*
X134161D01*
Y9705D01*
Y9800D01*
Y9895D01*
Y9989D01*
Y10084D01*
Y10179D01*
X134067D01*
Y10273D01*
X133972D01*
Y10368D01*
X133877D01*
Y10463D01*
X133688D01*
Y10557D01*
X133309D01*
Y10463D01*
X133120D01*
Y10557D01*
X133025D01*
Y10652D01*
X132931D01*
Y10747D01*
X132836D01*
Y10841D01*
X132741D01*
Y10936D01*
X132647D01*
Y11031D01*
X132552D01*
Y11125D01*
X132457D01*
Y11220D01*
X132363D01*
Y11315D01*
X132268D01*
Y11409D01*
X132173D01*
Y11504D01*
X131984D01*
Y11599D01*
X131889D01*
Y11504D01*
X131795D01*
Y11599D01*
X131700D01*
Y11504D01*
X131605D01*
Y11599D01*
X131511D01*
Y11504D01*
X131416D01*
Y11599D01*
X131321D01*
Y11504D01*
X131227D01*
Y11599D01*
X131132D01*
Y11504D01*
X131037D01*
Y11599D01*
X130943D01*
Y11504D01*
X130848D01*
Y11599D01*
X130753D01*
Y11504D01*
X130659D01*
Y11599D01*
X130564D01*
Y11504D01*
X130469D01*
Y11599D01*
X130375D01*
Y11504D01*
X130280D01*
Y11599D01*
X130185D01*
Y11504D01*
X130091D01*
Y11599D01*
X129996D01*
Y11504D01*
X129901D01*
Y11599D01*
X129807D01*
Y11504D01*
X129712D01*
Y11599D01*
X129617D01*
Y11504D01*
X129523D01*
Y11599D01*
X129428D01*
Y11504D01*
X129333D01*
Y11599D01*
X129239D01*
Y11504D01*
X129144D01*
Y11599D01*
X129049D01*
Y11504D01*
X128955D01*
Y11599D01*
X128860D01*
Y11504D01*
X128765D01*
Y11599D01*
X128671D01*
Y11693D01*
X128576D01*
Y11788D01*
X128481D01*
Y11883D01*
X128387D01*
Y11977D01*
D02*
G37*
%LPD*%
G36*
X141924Y20213D02*
Y20119D01*
X142018D01*
Y20024D01*
X141924D01*
Y19929D01*
X141545D01*
Y20024D01*
Y20119D01*
Y20213D01*
X141640D01*
Y20308D01*
X141924D01*
Y20213D01*
D02*
G37*
G36*
X139936Y14817D02*
X140031D01*
Y14723D01*
Y14628D01*
Y14533D01*
X139652D01*
Y14628D01*
X139557D01*
Y14723D01*
X139652D01*
Y14817D01*
X139747D01*
Y14912D01*
X139936D01*
Y14817D01*
D02*
G37*
G36*
X131037Y20308D02*
Y20213D01*
Y20119D01*
Y20024D01*
Y19929D01*
X130091D01*
Y20024D01*
Y20119D01*
Y20213D01*
Y20308D01*
Y20403D01*
X131037D01*
Y20308D01*
D02*
G37*
G36*
X143249Y22391D02*
X143438D01*
Y22296D01*
Y22201D01*
Y22107D01*
X143344D01*
Y22012D01*
X143060D01*
Y22107D01*
X142965D01*
Y22201D01*
Y22296D01*
Y22391D01*
X143155D01*
Y22485D01*
X143249D01*
Y22391D01*
D02*
G37*
G36*
X141829Y18225D02*
X141924D01*
Y18131D01*
X142018D01*
Y18036D01*
X141924D01*
Y17941D01*
X141829D01*
Y17847D01*
X141640D01*
Y17941D01*
X141545D01*
Y18036D01*
Y18131D01*
Y18225D01*
X141735D01*
Y18320D01*
X141829D01*
Y18225D01*
D02*
G37*
G36*
X132173Y17657D02*
Y17563D01*
Y17468D01*
Y17373D01*
X131795D01*
Y17468D01*
Y17563D01*
Y17657D01*
Y17752D01*
X132173D01*
Y17657D01*
D02*
G37*
G36*
X144669Y20119D02*
X144764D01*
Y20024D01*
Y19929D01*
Y19835D01*
X144385D01*
Y19929D01*
X144290D01*
Y20024D01*
Y20119D01*
X144385D01*
Y20213D01*
X144669D01*
Y20119D01*
D02*
G37*
G36*
X143249Y15953D02*
X143344D01*
Y15859D01*
Y15764D01*
X143249D01*
Y15669D01*
X142965D01*
Y15764D01*
X142870D01*
Y15859D01*
Y15953D01*
X142965D01*
Y16048D01*
X143249D01*
Y15953D01*
D02*
G37*
G36*
X125263Y17468D02*
X125168D01*
Y17563D01*
X125263D01*
Y17468D01*
D02*
G37*
G36*
Y18415D02*
X125357D01*
Y18320D01*
X125452D01*
Y18225D01*
X125357D01*
Y18131D01*
X125263D01*
Y18036D01*
X125168D01*
Y17941D01*
X125073D01*
Y17847D01*
X124979D01*
Y17752D01*
X124884D01*
Y17657D01*
X124789D01*
Y17563D01*
X124695D01*
Y17468D01*
X124505D01*
Y17563D01*
X124411D01*
Y17657D01*
Y17752D01*
X124505D01*
Y17847D01*
X124600D01*
Y17941D01*
X124695D01*
Y18036D01*
X124789D01*
Y18131D01*
X124884D01*
Y18225D01*
X124979D01*
Y18320D01*
X125073D01*
Y18415D01*
X125168D01*
Y18509D01*
X125263D01*
Y18415D01*
D02*
G37*
G36*
X125168Y17373D02*
X125073D01*
Y17468D01*
X125168D01*
Y17373D01*
D02*
G37*
G36*
X125073Y17279D02*
X124979D01*
Y17373D01*
X125073D01*
Y17279D01*
D02*
G37*
G36*
X126588Y17184D02*
X126493D01*
Y17279D01*
X126588D01*
Y17184D01*
D02*
G37*
G36*
X124979D02*
X124884D01*
Y17279D01*
X124979D01*
Y17184D01*
D02*
G37*
G36*
X126493Y17089D02*
X126399D01*
Y17184D01*
X126493D01*
Y17089D01*
D02*
G37*
G36*
X126399Y16995D02*
X126304D01*
Y17089D01*
X126399D01*
Y16995D01*
D02*
G37*
G36*
X126304Y16900D02*
X126209D01*
Y16995D01*
X126304D01*
Y16900D01*
D02*
G37*
G36*
X126209Y16805D02*
X126115D01*
Y16900D01*
X126209D01*
Y16805D01*
D02*
G37*
G36*
X126115Y16711D02*
X126020D01*
Y16805D01*
X126115D01*
Y16711D01*
D02*
G37*
G36*
X126020Y17657D02*
X126115D01*
Y17563D01*
X126304D01*
Y17468D01*
X126209D01*
Y17373D01*
X126115D01*
Y17279D01*
X126020D01*
Y17184D01*
X125925D01*
Y17089D01*
X125831D01*
Y16995D01*
X125736D01*
Y16900D01*
X125641D01*
Y16805D01*
X125547D01*
Y16711D01*
X125357D01*
Y16805D01*
X125263D01*
Y16900D01*
X125168D01*
Y16995D01*
X125263D01*
Y17089D01*
X125357D01*
Y17184D01*
X125452D01*
Y17279D01*
X125547D01*
Y17373D01*
X125641D01*
Y17468D01*
X125736D01*
Y17563D01*
X125831D01*
Y17657D01*
X125925D01*
Y17752D01*
X126020D01*
Y17657D01*
D02*
G37*
G36*
Y16616D02*
X125925D01*
Y16711D01*
X126020D01*
Y16616D01*
D02*
G37*
G36*
X125925Y16521D02*
X125831D01*
Y16616D01*
X125925D01*
Y16521D01*
D02*
G37*
G36*
X125831Y16427D02*
X125736D01*
Y16521D01*
X125831D01*
Y16427D01*
D02*
G37*
G36*
X125736Y16332D02*
X125641D01*
Y16427D01*
X125736D01*
Y16332D01*
D02*
G37*
G36*
X126872Y16900D02*
X126967D01*
Y16805D01*
X127061D01*
Y16711D01*
X126967D01*
Y16616D01*
X126872D01*
Y16521D01*
X126777D01*
Y16427D01*
X126683D01*
Y16332D01*
X126588D01*
Y16237D01*
X126493D01*
Y16143D01*
X126399D01*
Y16048D01*
X126304D01*
Y15953D01*
X126115D01*
Y16048D01*
X126020D01*
Y16143D01*
Y16237D01*
X126115D01*
Y16332D01*
X126209D01*
Y16427D01*
X126304D01*
Y16521D01*
X126399D01*
Y16616D01*
X126493D01*
Y16711D01*
X126588D01*
Y16805D01*
X126683D01*
Y16900D01*
X126777D01*
Y16995D01*
X126872D01*
Y16900D01*
D02*
G37*
G36*
X126683Y15764D02*
X126588D01*
Y15859D01*
X126683D01*
Y15764D01*
D02*
G37*
G36*
X126588Y15669D02*
X126493D01*
Y15764D01*
X126588D01*
Y15669D01*
D02*
G37*
G36*
X126493Y15575D02*
X126399D01*
Y15669D01*
X126493D01*
Y15575D01*
D02*
G37*
G36*
X127724Y16048D02*
X127819D01*
Y15953D01*
Y15859D01*
X127724D01*
Y15764D01*
X127629D01*
Y15669D01*
X127535D01*
Y15575D01*
X127440D01*
Y15480D01*
X127345D01*
Y15385D01*
X127251D01*
Y15291D01*
X127156D01*
Y15196D01*
X127061D01*
Y15101D01*
X126967D01*
Y15196D01*
X126872D01*
Y15291D01*
X126777D01*
Y15385D01*
Y15480D01*
X126872D01*
Y15575D01*
X126967D01*
Y15669D01*
X127061D01*
Y15764D01*
X127156D01*
Y15859D01*
X127251D01*
Y15953D01*
X127345D01*
Y16048D01*
X127535D01*
Y16143D01*
X127724D01*
Y16048D01*
D02*
G37*
G36*
X134540Y15101D02*
X134635D01*
Y15007D01*
Y14912D01*
X134540D01*
Y14817D01*
X134256D01*
Y14912D01*
X134161D01*
Y15007D01*
Y15101D01*
X134256D01*
Y15196D01*
X134540D01*
Y15101D01*
D02*
G37*
G36*
X136717Y10273D02*
X136812D01*
Y10179D01*
Y10084D01*
Y9989D01*
X136433D01*
Y10084D01*
Y10179D01*
Y10273D01*
X136528D01*
Y10368D01*
X136717D01*
Y10273D01*
D02*
G37*
G36*
X133593Y9989D02*
X133688D01*
Y9895D01*
Y9800D01*
Y9705D01*
X133499D01*
Y9611D01*
X133404D01*
Y9705D01*
X133309D01*
Y9800D01*
X133215D01*
Y9895D01*
X133309D01*
Y9989D01*
X133404D01*
Y10084D01*
X133593D01*
Y9989D01*
D02*
G37*
%LPC*%
G36*
X119109Y19835D02*
X118731D01*
Y19740D01*
X118542D01*
Y19645D01*
X118447D01*
Y19551D01*
X118352D01*
Y19456D01*
Y19361D01*
X118257D01*
Y19267D01*
Y19172D01*
Y19077D01*
Y18983D01*
Y18888D01*
X118352D01*
Y18793D01*
Y18699D01*
X118447D01*
Y18604D01*
X118636D01*
Y18509D01*
X118825D01*
Y18415D01*
X119109D01*
Y18509D01*
X119299D01*
Y18415D01*
X119394D01*
Y18320D01*
X119488D01*
Y18225D01*
X119583D01*
Y18131D01*
X119677D01*
Y18036D01*
X119772D01*
Y17941D01*
X119867D01*
Y17847D01*
X119962D01*
Y17752D01*
X120151D01*
Y17847D01*
X120246D01*
Y17941D01*
X120340D01*
Y18036D01*
X120435D01*
Y18131D01*
X120340D01*
Y18225D01*
X120246D01*
Y18320D01*
X120151D01*
Y18415D01*
X120056D01*
Y18509D01*
X119962D01*
Y18604D01*
X119867D01*
Y18699D01*
X119772D01*
Y18793D01*
X119677D01*
Y18888D01*
X119583D01*
Y18983D01*
X119677D01*
Y19077D01*
Y19172D01*
Y19267D01*
X119583D01*
Y19361D01*
Y19456D01*
X119488D01*
Y19551D01*
Y19645D01*
X119299D01*
Y19740D01*
X119109D01*
Y19835D01*
D02*
G37*
%LPD*%
G36*
X119015Y19267D02*
X119109D01*
Y19172D01*
X119204D01*
Y19077D01*
X119109D01*
Y18983D01*
X119015D01*
Y18888D01*
X118920D01*
Y18983D01*
X118731D01*
Y19077D01*
Y19172D01*
Y19267D01*
X118825D01*
Y19361D01*
X119015D01*
Y19267D01*
D02*
G37*
%LPC*%
G36*
X126777Y10463D02*
X126588D01*
Y10368D01*
X126493D01*
Y10273D01*
X126399D01*
Y10179D01*
X126304D01*
Y10084D01*
Y9989D01*
X126493D01*
Y9895D01*
X126588D01*
Y9800D01*
X126683D01*
Y9705D01*
X126777D01*
Y9611D01*
X126872D01*
Y9516D01*
X126967D01*
Y9421D01*
X127061D01*
Y9327D01*
X127156D01*
Y9232D01*
X127251D01*
Y9137D01*
X127345D01*
Y9043D01*
X127440D01*
Y8948D01*
X127535D01*
Y8854D01*
X127629D01*
Y8759D01*
X127724D01*
Y8664D01*
X127913D01*
Y8569D01*
X128008D01*
Y8475D01*
X129333D01*
Y8380D01*
X129428D01*
Y8286D01*
X129523D01*
Y8191D01*
X129617D01*
Y8096D01*
X130280D01*
Y8191D01*
X130469D01*
Y8286D01*
X130564D01*
Y8380D01*
Y8475D01*
X130659D01*
Y8569D01*
Y8664D01*
Y8759D01*
Y8854D01*
Y8948D01*
Y9043D01*
X130564D01*
Y9137D01*
X130469D01*
Y9232D01*
X130375D01*
Y9327D01*
X130185D01*
Y9421D01*
X129712D01*
Y9327D01*
X129523D01*
Y9232D01*
X129428D01*
Y9137D01*
Y9043D01*
X128197D01*
Y9137D01*
X128103D01*
Y9232D01*
X127913D01*
Y9327D01*
X127819D01*
Y9421D01*
X127724D01*
Y9516D01*
X127629D01*
Y9611D01*
X127535D01*
Y9705D01*
X127440D01*
Y9800D01*
X127345D01*
Y9895D01*
X127251D01*
Y9989D01*
X127156D01*
Y10084D01*
X127061D01*
Y10179D01*
X126967D01*
Y10273D01*
X126872D01*
Y10368D01*
X126777D01*
Y10463D01*
D02*
G37*
%LPD*%
G36*
X130091Y8854D02*
X130185D01*
Y8759D01*
Y8664D01*
Y8569D01*
X129807D01*
Y8664D01*
X129712D01*
Y8759D01*
X129807D01*
Y8854D01*
Y8948D01*
X130091D01*
Y8854D01*
D02*
G37*
%LPC*%
G36*
X228087Y43637D02*
X226554D01*
Y43528D01*
Y43418D01*
Y43309D01*
Y43200D01*
Y43090D01*
Y42981D01*
Y42871D01*
Y42762D01*
Y42652D01*
Y42543D01*
Y42433D01*
Y42324D01*
Y42215D01*
X226336D01*
Y42105D01*
X226226D01*
Y42215D01*
X225898D01*
Y42105D01*
X225788D01*
Y42215D01*
X225460D01*
Y42105D01*
X225350D01*
Y42215D01*
X225022D01*
Y42105D01*
X224913D01*
Y42215D01*
X224584D01*
Y42105D01*
X224475D01*
Y42215D01*
X224147D01*
Y42105D01*
X224037D01*
Y42215D01*
X223709D01*
Y42105D01*
Y41996D01*
Y41886D01*
Y41777D01*
Y41667D01*
Y41558D01*
Y41448D01*
Y41339D01*
Y41230D01*
Y41120D01*
Y41011D01*
Y40901D01*
Y40792D01*
Y40682D01*
Y40573D01*
Y40463D01*
Y40354D01*
Y40244D01*
Y40135D01*
Y40026D01*
Y39916D01*
Y39807D01*
Y39697D01*
Y39588D01*
Y39478D01*
Y39369D01*
Y39259D01*
Y39150D01*
X225241D01*
Y39259D01*
Y39369D01*
Y39478D01*
Y39588D01*
Y39697D01*
Y39807D01*
Y39916D01*
Y40026D01*
Y40135D01*
Y40244D01*
Y40354D01*
Y40463D01*
Y40573D01*
X226554D01*
Y40463D01*
Y40354D01*
Y40244D01*
Y40135D01*
Y40026D01*
Y39916D01*
Y39807D01*
Y39697D01*
Y39588D01*
Y39478D01*
Y39369D01*
Y39259D01*
Y39150D01*
X228087D01*
Y39259D01*
Y39369D01*
Y39478D01*
Y39588D01*
Y39697D01*
Y39807D01*
Y39916D01*
Y40026D01*
Y40135D01*
Y40244D01*
Y40354D01*
Y40463D01*
Y40573D01*
Y40682D01*
Y40792D01*
X227977D01*
Y40682D01*
X227868D01*
Y40792D01*
X227758D01*
Y40682D01*
X227649D01*
Y40792D01*
X227539D01*
Y40682D01*
X227430D01*
Y40792D01*
X227321D01*
Y40682D01*
X227211D01*
Y40792D01*
X227102D01*
Y40682D01*
X226992D01*
Y40792D01*
X226883D01*
Y40682D01*
X226773D01*
Y40792D01*
X226664D01*
Y40901D01*
Y41011D01*
Y41120D01*
Y41230D01*
Y41339D01*
Y41448D01*
Y41558D01*
Y41667D01*
Y41777D01*
Y41886D01*
Y41996D01*
X228087D01*
Y42105D01*
Y42215D01*
Y42324D01*
Y42433D01*
Y42543D01*
Y42652D01*
Y42762D01*
Y42871D01*
Y42981D01*
Y43090D01*
Y43200D01*
Y43309D01*
Y43418D01*
Y43528D01*
Y43637D01*
D02*
G37*
G36*
X235201D02*
X233668D01*
Y43528D01*
Y43418D01*
Y43309D01*
Y43200D01*
Y43090D01*
Y42981D01*
Y42871D01*
Y42762D01*
Y42652D01*
Y42543D01*
Y42433D01*
Y42324D01*
Y42215D01*
Y42105D01*
Y41996D01*
Y41886D01*
Y41777D01*
Y41667D01*
Y41558D01*
Y41448D01*
Y41339D01*
Y41230D01*
Y41120D01*
Y41011D01*
Y40901D01*
Y40792D01*
Y40682D01*
X233559D01*
Y40792D01*
X233449D01*
Y40682D01*
X233340D01*
Y40792D01*
X233231D01*
Y40682D01*
X233121D01*
Y40792D01*
X233012D01*
Y40682D01*
X232902D01*
Y40792D01*
X232793D01*
Y40682D01*
X232683D01*
Y40792D01*
X232574D01*
Y40682D01*
X232464D01*
Y40792D01*
X232355D01*
Y40901D01*
Y41011D01*
Y41120D01*
Y41230D01*
Y41339D01*
Y41448D01*
Y41558D01*
Y41667D01*
Y41777D01*
Y41886D01*
Y41996D01*
Y42105D01*
Y42215D01*
X232027D01*
Y42105D01*
X231917D01*
Y42215D01*
X231589D01*
Y42105D01*
X231479D01*
Y42215D01*
X231151D01*
Y42105D01*
X231042D01*
Y42215D01*
X230713D01*
Y42105D01*
X230604D01*
Y42215D01*
X230276D01*
Y42105D01*
X230166D01*
Y42215D01*
X229838D01*
Y42105D01*
X229728D01*
Y42215D01*
X229400D01*
Y42105D01*
Y41996D01*
Y41886D01*
Y41777D01*
Y41667D01*
Y41558D01*
Y41448D01*
Y41339D01*
Y41230D01*
Y41120D01*
Y41011D01*
Y40901D01*
Y40792D01*
Y40682D01*
Y40573D01*
X230823D01*
Y40463D01*
Y40354D01*
Y40244D01*
Y40135D01*
Y40026D01*
Y39916D01*
Y39807D01*
Y39697D01*
Y39588D01*
Y39478D01*
Y39369D01*
Y39259D01*
Y39150D01*
Y39041D01*
Y38931D01*
Y38822D01*
Y38712D01*
Y38603D01*
Y38493D01*
Y38384D01*
Y38274D01*
Y38165D01*
Y38056D01*
Y37946D01*
Y37837D01*
X227977D01*
Y37727D01*
Y37618D01*
Y37508D01*
Y37399D01*
Y37290D01*
Y37180D01*
Y37071D01*
Y36961D01*
Y36852D01*
Y36742D01*
Y36633D01*
Y36523D01*
Y36414D01*
X226664D01*
Y36523D01*
Y36633D01*
Y36742D01*
Y36852D01*
Y36961D01*
Y37071D01*
Y37180D01*
Y37290D01*
Y37399D01*
Y37508D01*
Y37618D01*
Y37727D01*
Y37837D01*
X223709D01*
Y37727D01*
Y37618D01*
Y37508D01*
Y37399D01*
Y37290D01*
Y37180D01*
Y37071D01*
Y36961D01*
Y36852D01*
Y36742D01*
Y36633D01*
Y36523D01*
Y36414D01*
Y36305D01*
X225132D01*
Y36195D01*
Y36086D01*
Y35976D01*
Y35867D01*
Y35757D01*
Y35648D01*
Y35538D01*
Y35429D01*
Y35320D01*
Y35210D01*
Y35101D01*
Y34991D01*
X223709D01*
Y34882D01*
Y34772D01*
Y34663D01*
Y34553D01*
Y34444D01*
Y34334D01*
Y34225D01*
Y34116D01*
Y34006D01*
Y33897D01*
Y33787D01*
Y33678D01*
Y33568D01*
Y33459D01*
X225241D01*
Y33568D01*
Y33678D01*
Y33787D01*
Y33897D01*
Y34006D01*
Y34116D01*
Y34225D01*
Y34334D01*
Y34444D01*
Y34553D01*
Y34663D01*
Y34772D01*
Y34882D01*
X226554D01*
Y34772D01*
Y34663D01*
Y34553D01*
Y34444D01*
Y34334D01*
Y34225D01*
Y34116D01*
Y34006D01*
Y33897D01*
Y33787D01*
Y33678D01*
Y33568D01*
Y33459D01*
X227977D01*
Y33349D01*
Y33240D01*
Y33131D01*
Y33021D01*
Y32912D01*
Y32802D01*
Y32693D01*
Y32583D01*
Y32474D01*
Y32364D01*
Y32255D01*
Y32146D01*
X225132D01*
Y32036D01*
Y31927D01*
Y31817D01*
Y31708D01*
Y31598D01*
Y31489D01*
Y31380D01*
Y31270D01*
Y31161D01*
Y31051D01*
Y30942D01*
Y30832D01*
Y30723D01*
X223818D01*
Y30832D01*
Y30942D01*
Y31051D01*
Y31161D01*
Y31270D01*
Y31380D01*
Y31489D01*
Y31598D01*
Y31708D01*
Y31817D01*
Y31927D01*
Y32036D01*
Y32146D01*
X222286D01*
Y32036D01*
Y31927D01*
Y31817D01*
Y31708D01*
Y31598D01*
Y31489D01*
Y31380D01*
Y31270D01*
Y31161D01*
Y31051D01*
Y30942D01*
Y30832D01*
Y30723D01*
Y30613D01*
Y30504D01*
Y30395D01*
Y30285D01*
Y30176D01*
Y30066D01*
Y29957D01*
Y29847D01*
Y29738D01*
Y29628D01*
Y29519D01*
Y29409D01*
Y29300D01*
X220973D01*
Y29409D01*
Y29519D01*
Y29628D01*
Y29738D01*
Y29847D01*
Y29957D01*
Y30066D01*
Y30176D01*
Y30285D01*
Y30395D01*
Y30504D01*
Y30613D01*
Y30723D01*
Y30832D01*
Y30942D01*
Y31051D01*
Y31161D01*
Y31270D01*
Y31380D01*
Y31489D01*
Y31598D01*
Y31708D01*
Y31817D01*
Y31927D01*
Y32036D01*
Y32146D01*
X219441D01*
Y32036D01*
Y31927D01*
Y31817D01*
Y31708D01*
Y31598D01*
Y31489D01*
Y31380D01*
Y31270D01*
Y31161D01*
Y31051D01*
Y30942D01*
Y30832D01*
Y30723D01*
Y30613D01*
Y30504D01*
Y30395D01*
Y30285D01*
Y30176D01*
Y30066D01*
Y29957D01*
Y29847D01*
Y29738D01*
Y29628D01*
Y29519D01*
Y29409D01*
Y29300D01*
X218127D01*
Y29409D01*
Y29519D01*
Y29628D01*
Y29738D01*
Y29847D01*
Y29957D01*
Y30066D01*
Y30176D01*
Y30285D01*
Y30395D01*
Y30504D01*
Y30613D01*
Y30723D01*
Y30832D01*
Y30942D01*
Y31051D01*
Y31161D01*
Y31270D01*
Y31380D01*
Y31489D01*
Y31598D01*
Y31708D01*
Y31817D01*
Y31927D01*
Y32036D01*
Y32146D01*
X216595D01*
Y32036D01*
Y31927D01*
Y31817D01*
Y31708D01*
Y31598D01*
Y31489D01*
Y31380D01*
Y31270D01*
Y31161D01*
Y31051D01*
Y30942D01*
Y30832D01*
Y30723D01*
Y30613D01*
Y30504D01*
Y30395D01*
Y30285D01*
Y30176D01*
Y30066D01*
Y29957D01*
Y29847D01*
Y29738D01*
Y29628D01*
Y29519D01*
Y29409D01*
Y29300D01*
X212217D01*
Y29191D01*
Y29081D01*
Y28972D01*
Y28862D01*
Y28753D01*
Y28643D01*
Y28534D01*
Y28424D01*
Y28315D01*
Y28206D01*
Y28096D01*
Y27987D01*
Y27877D01*
Y27768D01*
X213749D01*
Y27658D01*
X213640D01*
Y27549D01*
Y27439D01*
Y27330D01*
Y27220D01*
Y27111D01*
Y27002D01*
Y26892D01*
Y26783D01*
Y26673D01*
Y26564D01*
X213749D01*
Y26454D01*
X212327D01*
Y26345D01*
X212217D01*
Y26235D01*
Y26126D01*
Y26017D01*
Y25907D01*
Y25798D01*
Y25688D01*
Y25579D01*
Y25469D01*
Y25360D01*
Y25251D01*
Y25141D01*
Y25032D01*
Y24922D01*
X213859D01*
Y25032D01*
Y25141D01*
Y25251D01*
Y25360D01*
Y25469D01*
Y25579D01*
Y25688D01*
Y25798D01*
Y25907D01*
Y26017D01*
Y26126D01*
Y26235D01*
Y26345D01*
X215172D01*
Y26235D01*
Y26126D01*
X215063D01*
Y26017D01*
X215172D01*
Y25907D01*
X215063D01*
Y25798D01*
X215172D01*
Y25688D01*
X215063D01*
Y25579D01*
X215172D01*
Y25469D01*
X215063D01*
Y25360D01*
X215172D01*
Y25251D01*
X215063D01*
Y25141D01*
X215172D01*
Y25032D01*
Y24922D01*
X218127D01*
Y25032D01*
Y25141D01*
Y25251D01*
Y25360D01*
Y25469D01*
Y25579D01*
Y25688D01*
Y25798D01*
Y25907D01*
Y26017D01*
Y26126D01*
Y26235D01*
Y26345D01*
Y26454D01*
X215282D01*
Y26564D01*
Y26673D01*
Y26783D01*
Y26892D01*
Y27002D01*
Y27111D01*
Y27220D01*
Y27330D01*
Y27439D01*
Y27549D01*
Y27658D01*
Y27768D01*
X220863D01*
Y27658D01*
Y27549D01*
Y27439D01*
Y27330D01*
Y27220D01*
Y27111D01*
Y27002D01*
Y26892D01*
Y26783D01*
Y26673D01*
Y26564D01*
Y26454D01*
X219441D01*
Y26345D01*
Y26235D01*
Y26126D01*
Y26017D01*
Y25907D01*
Y25798D01*
Y25688D01*
Y25579D01*
Y25469D01*
Y25360D01*
Y25251D01*
Y25141D01*
Y25032D01*
Y24922D01*
Y24813D01*
Y24703D01*
Y24594D01*
Y24484D01*
Y24375D01*
Y24265D01*
Y24156D01*
Y24047D01*
Y23937D01*
Y23828D01*
Y23718D01*
Y23609D01*
X216595D01*
Y23499D01*
Y23390D01*
Y23280D01*
Y23171D01*
Y23062D01*
Y22952D01*
Y22843D01*
Y22733D01*
Y22624D01*
Y22514D01*
Y22405D01*
Y22296D01*
Y22186D01*
Y22077D01*
Y21967D01*
Y21858D01*
Y21748D01*
Y21639D01*
Y21529D01*
Y21420D01*
Y21310D01*
Y21201D01*
Y21092D01*
Y20982D01*
Y20873D01*
Y20763D01*
X213859D01*
Y20873D01*
Y20982D01*
Y21092D01*
Y21201D01*
Y21310D01*
Y21420D01*
Y21529D01*
Y21639D01*
Y21748D01*
Y21858D01*
Y21967D01*
Y22077D01*
X215282D01*
Y22186D01*
Y22296D01*
Y22405D01*
Y22514D01*
Y22624D01*
Y22733D01*
Y22843D01*
Y22952D01*
Y23062D01*
Y23171D01*
Y23280D01*
Y23390D01*
Y23499D01*
Y23609D01*
X212327D01*
Y23499D01*
X212217D01*
Y23390D01*
Y23280D01*
Y23171D01*
Y23062D01*
Y22952D01*
Y22843D01*
Y22733D01*
Y22624D01*
Y22514D01*
Y22405D01*
Y22296D01*
Y22186D01*
Y22077D01*
Y21967D01*
Y21858D01*
Y21748D01*
Y21639D01*
Y21529D01*
Y21420D01*
Y21310D01*
Y21201D01*
Y21092D01*
Y20982D01*
Y20873D01*
Y20763D01*
Y20654D01*
Y20544D01*
Y20435D01*
Y20325D01*
Y20216D01*
Y20107D01*
Y19997D01*
Y19888D01*
Y19778D01*
Y19669D01*
Y19559D01*
Y19450D01*
Y19341D01*
Y19231D01*
X213749D01*
Y19122D01*
X213640D01*
Y19012D01*
Y18903D01*
Y18793D01*
Y18684D01*
Y18574D01*
Y18465D01*
Y18356D01*
Y18246D01*
Y18137D01*
Y18027D01*
X213749D01*
Y17918D01*
X212327D01*
Y17808D01*
X212217D01*
Y17699D01*
Y17589D01*
Y17480D01*
Y17370D01*
Y17261D01*
Y17152D01*
Y17042D01*
Y16933D01*
Y16823D01*
Y16714D01*
Y16604D01*
Y16495D01*
Y16386D01*
X218018D01*
Y16276D01*
Y16167D01*
Y16057D01*
Y15948D01*
Y15838D01*
Y15729D01*
Y15619D01*
Y15510D01*
Y15401D01*
Y15291D01*
Y15182D01*
Y15072D01*
X215172D01*
Y14963D01*
X215063D01*
Y14853D01*
X215172D01*
Y14744D01*
X215063D01*
Y14634D01*
X215172D01*
Y14525D01*
X215063D01*
Y14415D01*
X215172D01*
Y14306D01*
X215063D01*
Y14197D01*
X215172D01*
Y14087D01*
X215063D01*
Y13978D01*
X215172D01*
Y13868D01*
X215063D01*
Y13759D01*
X215172D01*
Y13649D01*
X213859D01*
Y13759D01*
Y13868D01*
Y13978D01*
Y14087D01*
Y14197D01*
Y14306D01*
Y14415D01*
Y14525D01*
Y14634D01*
Y14744D01*
Y14853D01*
Y14963D01*
Y15072D01*
X212327D01*
Y14963D01*
X212217D01*
Y14853D01*
Y14744D01*
Y14634D01*
Y14525D01*
Y14415D01*
Y14306D01*
Y14197D01*
Y14087D01*
Y13978D01*
Y13868D01*
Y13759D01*
Y13649D01*
Y13540D01*
Y13431D01*
Y13321D01*
Y13212D01*
Y13102D01*
Y12993D01*
Y12883D01*
Y12774D01*
Y12664D01*
Y12555D01*
Y12445D01*
Y12336D01*
Y12227D01*
Y12117D01*
Y12008D01*
Y11898D01*
Y11789D01*
Y11679D01*
Y11570D01*
Y11461D01*
Y11351D01*
Y11242D01*
Y11132D01*
Y11023D01*
Y10913D01*
Y10804D01*
Y10694D01*
Y10585D01*
Y10475D01*
Y10366D01*
Y10257D01*
Y10147D01*
Y10038D01*
Y9928D01*
Y9819D01*
Y9709D01*
Y9600D01*
Y9490D01*
Y9381D01*
Y9272D01*
Y9162D01*
Y9053D01*
Y8943D01*
Y8834D01*
Y8724D01*
Y8615D01*
Y8506D01*
Y8396D01*
Y8287D01*
Y8177D01*
Y8068D01*
Y7958D01*
Y7849D01*
X212327D01*
Y7739D01*
X218018D01*
Y7849D01*
X218127D01*
Y7958D01*
Y8068D01*
Y8177D01*
Y8287D01*
Y8396D01*
Y8506D01*
Y8615D01*
Y8724D01*
Y8834D01*
Y8943D01*
Y9053D01*
Y9162D01*
Y9272D01*
Y9381D01*
X213859D01*
Y9490D01*
Y9600D01*
Y9709D01*
Y9819D01*
Y9928D01*
Y10038D01*
Y10147D01*
Y10257D01*
Y10366D01*
Y10475D01*
Y10585D01*
Y10694D01*
Y10804D01*
Y10913D01*
Y11023D01*
Y11132D01*
Y11242D01*
Y11351D01*
Y11461D01*
Y11570D01*
Y11679D01*
Y11789D01*
Y11898D01*
Y12008D01*
Y12117D01*
X215282D01*
Y12227D01*
Y12336D01*
Y12445D01*
Y12555D01*
Y12664D01*
Y12774D01*
Y12883D01*
Y12993D01*
Y13102D01*
Y13212D01*
Y13321D01*
Y13431D01*
Y13540D01*
X218018D01*
Y13431D01*
Y13321D01*
Y13212D01*
Y13102D01*
Y12993D01*
Y12883D01*
Y12774D01*
Y12664D01*
Y12555D01*
Y12445D01*
Y12336D01*
Y12227D01*
X216595D01*
Y12117D01*
Y12008D01*
Y11898D01*
Y11789D01*
Y11679D01*
Y11570D01*
Y11461D01*
Y11351D01*
Y11242D01*
Y11132D01*
Y11023D01*
Y10913D01*
Y10804D01*
Y10694D01*
X218127D01*
Y10804D01*
Y10913D01*
Y11023D01*
Y11132D01*
Y11242D01*
Y11351D01*
Y11461D01*
Y11570D01*
Y11679D01*
Y11789D01*
Y11898D01*
Y12008D01*
Y12117D01*
X219550D01*
Y12227D01*
Y12336D01*
Y12445D01*
Y12555D01*
Y12664D01*
Y12774D01*
Y12883D01*
Y12993D01*
Y13102D01*
Y13212D01*
Y13321D01*
Y13431D01*
Y13540D01*
X220863D01*
Y13431D01*
Y13321D01*
Y13212D01*
Y13102D01*
Y12993D01*
Y12883D01*
Y12774D01*
Y12664D01*
Y12555D01*
Y12445D01*
Y12336D01*
Y12227D01*
Y12117D01*
X222286D01*
Y12008D01*
Y11898D01*
Y11789D01*
Y11679D01*
Y11570D01*
Y11461D01*
Y11351D01*
Y11242D01*
Y11132D01*
Y11023D01*
Y10913D01*
Y10804D01*
X219441D01*
Y10694D01*
Y10585D01*
Y10475D01*
Y10366D01*
Y10257D01*
Y10147D01*
Y10038D01*
Y9928D01*
Y9819D01*
Y9709D01*
Y9600D01*
Y9490D01*
Y9381D01*
Y9272D01*
Y9162D01*
Y9053D01*
Y8943D01*
Y8834D01*
Y8724D01*
Y8615D01*
Y8506D01*
Y8396D01*
Y8287D01*
Y8177D01*
Y8068D01*
Y7958D01*
Y7849D01*
Y7739D01*
X222286D01*
Y7849D01*
X222395D01*
Y7958D01*
Y8068D01*
Y8177D01*
Y8287D01*
Y8396D01*
Y8506D01*
Y8615D01*
Y8724D01*
Y8834D01*
Y8943D01*
Y9053D01*
Y9162D01*
X226554D01*
Y9053D01*
Y8943D01*
Y8834D01*
Y8724D01*
Y8615D01*
Y8506D01*
Y8396D01*
Y8287D01*
Y8177D01*
Y8068D01*
Y7958D01*
Y7849D01*
Y7739D01*
X227977D01*
Y7849D01*
X228087D01*
Y7958D01*
Y8068D01*
Y8177D01*
Y8287D01*
Y8396D01*
Y8506D01*
Y8615D01*
Y8724D01*
Y8834D01*
Y8943D01*
Y9053D01*
Y9162D01*
X229400D01*
Y9053D01*
Y8943D01*
Y8834D01*
Y8724D01*
Y8615D01*
Y8506D01*
Y8396D01*
Y8287D01*
Y8177D01*
Y8068D01*
Y7958D01*
Y7849D01*
Y7739D01*
X230823D01*
Y7849D01*
X230932D01*
Y7958D01*
Y8068D01*
Y8177D01*
Y8287D01*
Y8396D01*
Y8506D01*
Y8615D01*
Y8724D01*
Y8834D01*
Y8943D01*
Y9053D01*
Y9162D01*
Y9272D01*
Y9381D01*
Y9490D01*
Y9600D01*
Y9709D01*
Y9819D01*
Y9928D01*
Y10038D01*
Y10147D01*
Y10257D01*
Y10366D01*
Y10475D01*
Y10585D01*
Y10694D01*
Y10804D01*
X229509D01*
Y10913D01*
Y11023D01*
Y11132D01*
Y11242D01*
Y11351D01*
Y11461D01*
Y11570D01*
Y11679D01*
Y11789D01*
Y11898D01*
Y12008D01*
Y12117D01*
X230932D01*
Y12227D01*
Y12336D01*
Y12445D01*
Y12555D01*
Y12664D01*
Y12774D01*
Y12883D01*
Y12993D01*
Y13102D01*
Y13212D01*
Y13321D01*
Y13431D01*
Y13540D01*
X232355D01*
Y13649D01*
Y13759D01*
Y13868D01*
Y13978D01*
Y14087D01*
Y14197D01*
Y14306D01*
Y14415D01*
Y14525D01*
Y14634D01*
Y14744D01*
Y14853D01*
Y14963D01*
X233668D01*
Y14853D01*
Y14744D01*
Y14634D01*
Y14525D01*
Y14415D01*
Y14306D01*
Y14197D01*
Y14087D01*
Y13978D01*
Y13868D01*
Y13759D01*
Y13649D01*
Y13540D01*
X235091D01*
Y13431D01*
Y13321D01*
Y13212D01*
Y13102D01*
Y12993D01*
Y12883D01*
Y12774D01*
Y12664D01*
Y12555D01*
Y12445D01*
Y12336D01*
Y12227D01*
X233668D01*
Y12117D01*
Y12008D01*
Y11898D01*
Y11789D01*
Y11679D01*
Y11570D01*
Y11461D01*
Y11351D01*
Y11242D01*
Y11132D01*
Y11023D01*
Y10913D01*
Y10804D01*
X232246D01*
Y10694D01*
Y10585D01*
Y10475D01*
Y10366D01*
Y10257D01*
Y10147D01*
Y10038D01*
Y9928D01*
Y9819D01*
Y9709D01*
Y9600D01*
Y9490D01*
Y9381D01*
Y9272D01*
X232355D01*
Y9162D01*
X233668D01*
Y9053D01*
Y8943D01*
Y8834D01*
Y8724D01*
Y8615D01*
Y8506D01*
Y8396D01*
Y8287D01*
Y8177D01*
Y8068D01*
Y7958D01*
Y7849D01*
X233778D01*
Y7739D01*
X236623D01*
Y7849D01*
Y7958D01*
Y8068D01*
Y8177D01*
Y8287D01*
Y8396D01*
Y8506D01*
Y8615D01*
Y8724D01*
Y8834D01*
Y8943D01*
Y9053D01*
Y9162D01*
Y9272D01*
Y9381D01*
Y9490D01*
Y9600D01*
Y9709D01*
Y9819D01*
Y9928D01*
Y10038D01*
Y10147D01*
Y10257D01*
Y10366D01*
Y10475D01*
Y10585D01*
Y10694D01*
Y10804D01*
Y10913D01*
Y11023D01*
Y11132D01*
Y11242D01*
Y11351D01*
Y11461D01*
Y11570D01*
Y11679D01*
Y11789D01*
Y11898D01*
Y12008D01*
Y12117D01*
Y12227D01*
Y12336D01*
Y12445D01*
Y12555D01*
Y12664D01*
Y12774D01*
Y12883D01*
Y12993D01*
Y13102D01*
Y13212D01*
Y13321D01*
Y13431D01*
Y13540D01*
Y13649D01*
Y13759D01*
Y13868D01*
Y13978D01*
Y14087D01*
Y14197D01*
Y14306D01*
Y14415D01*
Y14525D01*
Y14634D01*
Y14744D01*
Y14853D01*
Y14963D01*
Y15072D01*
X235201D01*
Y15182D01*
Y15291D01*
Y15401D01*
Y15510D01*
Y15619D01*
Y15729D01*
Y15838D01*
Y15948D01*
Y16057D01*
Y16167D01*
Y16276D01*
Y16386D01*
X236623D01*
Y16495D01*
Y16604D01*
Y16714D01*
Y16823D01*
Y16933D01*
Y17042D01*
Y17152D01*
Y17261D01*
Y17370D01*
Y17480D01*
Y17589D01*
Y17699D01*
Y17808D01*
Y17918D01*
Y18027D01*
Y18137D01*
Y18246D01*
Y18356D01*
Y18465D01*
Y18574D01*
Y18684D01*
Y18793D01*
Y18903D01*
Y19012D01*
Y19122D01*
Y19231D01*
X242315D01*
Y19341D01*
Y19450D01*
Y19559D01*
Y19669D01*
Y19778D01*
Y19888D01*
Y19997D01*
Y20107D01*
Y20216D01*
Y20325D01*
Y20435D01*
Y20544D01*
Y20654D01*
Y20763D01*
Y20873D01*
Y20982D01*
Y21092D01*
Y21201D01*
Y21310D01*
Y21420D01*
Y21529D01*
Y21639D01*
Y21748D01*
Y21858D01*
Y21967D01*
Y22077D01*
Y22186D01*
Y22296D01*
Y22405D01*
Y22514D01*
Y22624D01*
Y22733D01*
Y22843D01*
Y22952D01*
Y23062D01*
Y23171D01*
Y23280D01*
Y23390D01*
Y23499D01*
X243628D01*
Y23390D01*
Y23280D01*
Y23171D01*
Y23062D01*
Y22952D01*
Y22843D01*
Y22733D01*
Y22624D01*
Y22514D01*
Y22405D01*
Y22296D01*
Y22186D01*
Y22077D01*
X245160D01*
Y22186D01*
Y22296D01*
Y22405D01*
Y22514D01*
Y22624D01*
Y22733D01*
Y22843D01*
Y22952D01*
Y23062D01*
Y23171D01*
Y23280D01*
Y23390D01*
Y23499D01*
X246473D01*
Y23390D01*
Y23280D01*
Y23171D01*
Y23062D01*
Y22952D01*
Y22843D01*
Y22733D01*
Y22624D01*
Y22514D01*
Y22405D01*
Y22296D01*
Y22186D01*
Y22077D01*
Y21967D01*
Y21858D01*
Y21748D01*
Y21639D01*
Y21529D01*
Y21420D01*
Y21310D01*
Y21201D01*
Y21092D01*
Y20982D01*
Y20873D01*
Y20763D01*
Y20654D01*
Y20544D01*
Y20435D01*
Y20325D01*
Y20216D01*
Y20107D01*
Y19997D01*
Y19888D01*
Y19778D01*
Y19669D01*
Y19559D01*
Y19450D01*
Y19341D01*
Y19231D01*
X248115D01*
Y19341D01*
Y19450D01*
Y19559D01*
Y19669D01*
Y19778D01*
Y19888D01*
Y19997D01*
Y20107D01*
Y20216D01*
Y20325D01*
Y20435D01*
Y20544D01*
Y20654D01*
Y20763D01*
Y20873D01*
Y20982D01*
Y21092D01*
Y21201D01*
Y21310D01*
Y21420D01*
Y21529D01*
Y21639D01*
Y21748D01*
Y21858D01*
Y21967D01*
Y22077D01*
Y22186D01*
Y22296D01*
Y22405D01*
Y22514D01*
Y22624D01*
Y22733D01*
Y22843D01*
Y22952D01*
Y23062D01*
Y23171D01*
Y23280D01*
Y23390D01*
Y23499D01*
Y23609D01*
Y23718D01*
Y23828D01*
Y23937D01*
Y24047D01*
Y24156D01*
Y24265D01*
Y24375D01*
Y24484D01*
Y24594D01*
Y24703D01*
Y24813D01*
Y24922D01*
Y25032D01*
Y25141D01*
Y25251D01*
Y25360D01*
Y25469D01*
Y25579D01*
Y25688D01*
Y25798D01*
Y25907D01*
Y26017D01*
Y26126D01*
Y26235D01*
Y26345D01*
Y26454D01*
Y26564D01*
Y26673D01*
Y26783D01*
Y26892D01*
Y27002D01*
Y27111D01*
Y27220D01*
Y27330D01*
Y27439D01*
Y27549D01*
Y27658D01*
Y27768D01*
Y27877D01*
Y27987D01*
Y28096D01*
Y28206D01*
Y28315D01*
Y28424D01*
Y28534D01*
Y28643D01*
Y28753D01*
Y28862D01*
Y28972D01*
Y29081D01*
Y29191D01*
Y29300D01*
X246583D01*
Y29409D01*
X246692D01*
Y29519D01*
Y29628D01*
X246583D01*
Y29738D01*
X246692D01*
Y29847D01*
Y29957D01*
Y30066D01*
X246583D01*
Y30176D01*
X246692D01*
Y30285D01*
Y30395D01*
Y30504D01*
X246583D01*
Y30613D01*
X248006D01*
Y30723D01*
X248115D01*
Y30832D01*
Y30942D01*
Y31051D01*
Y31161D01*
Y31270D01*
Y31380D01*
Y31489D01*
Y31598D01*
Y31708D01*
Y31817D01*
Y31927D01*
Y32036D01*
Y32146D01*
X240782D01*
Y32036D01*
Y31927D01*
Y31817D01*
Y31708D01*
Y31598D01*
Y31489D01*
Y31380D01*
Y31270D01*
Y31161D01*
Y31051D01*
Y30942D01*
Y30832D01*
Y30723D01*
X239469D01*
Y30832D01*
Y30942D01*
Y31051D01*
Y31161D01*
Y31270D01*
Y31380D01*
Y31489D01*
Y31598D01*
Y31708D01*
Y31817D01*
Y31927D01*
Y32036D01*
Y32146D01*
X232246D01*
Y32036D01*
Y31927D01*
Y31817D01*
Y31708D01*
Y31598D01*
Y31489D01*
Y31380D01*
Y31270D01*
Y31161D01*
Y31051D01*
Y30942D01*
Y30832D01*
Y30723D01*
Y30613D01*
X233668D01*
Y30504D01*
Y30395D01*
Y30285D01*
Y30176D01*
Y30066D01*
Y29957D01*
Y29847D01*
Y29738D01*
Y29628D01*
Y29519D01*
Y29409D01*
Y29300D01*
Y29191D01*
Y29081D01*
Y28972D01*
Y28862D01*
Y28753D01*
Y28643D01*
Y28534D01*
Y28424D01*
Y28315D01*
Y28206D01*
Y28096D01*
Y27987D01*
Y27877D01*
X232355D01*
Y27987D01*
Y28096D01*
Y28206D01*
Y28315D01*
Y28424D01*
Y28534D01*
Y28643D01*
Y28753D01*
Y28862D01*
Y28972D01*
Y29081D01*
Y29191D01*
Y29300D01*
X229400D01*
Y29191D01*
Y29081D01*
Y28972D01*
Y28862D01*
Y28753D01*
Y28643D01*
Y28534D01*
Y28424D01*
Y28315D01*
Y28206D01*
Y28096D01*
Y27987D01*
Y27877D01*
Y27768D01*
X230823D01*
Y27658D01*
Y27549D01*
Y27439D01*
Y27330D01*
Y27220D01*
Y27111D01*
Y27002D01*
Y26892D01*
Y26783D01*
Y26673D01*
Y26564D01*
Y26454D01*
Y26345D01*
Y26235D01*
Y26126D01*
Y26017D01*
Y25907D01*
Y25798D01*
Y25688D01*
Y25579D01*
Y25469D01*
Y25360D01*
Y25251D01*
Y25141D01*
Y25032D01*
X226664D01*
Y25141D01*
Y25251D01*
Y25360D01*
Y25469D01*
Y25579D01*
Y25688D01*
Y25798D01*
Y25907D01*
Y26017D01*
Y26126D01*
Y26235D01*
Y26345D01*
X228087D01*
Y26454D01*
Y26564D01*
Y26673D01*
Y26783D01*
Y26892D01*
Y27002D01*
Y27111D01*
Y27220D01*
Y27330D01*
Y27439D01*
Y27549D01*
Y27658D01*
Y27768D01*
Y27877D01*
X226664D01*
Y27987D01*
Y28096D01*
Y28206D01*
Y28315D01*
Y28424D01*
Y28534D01*
Y28643D01*
Y28753D01*
Y28862D01*
Y28972D01*
Y29081D01*
Y29191D01*
Y29300D01*
Y29409D01*
Y29519D01*
Y29628D01*
Y29738D01*
Y29847D01*
Y29957D01*
Y30066D01*
Y30176D01*
Y30285D01*
Y30395D01*
Y30504D01*
Y30613D01*
X228087D01*
Y30723D01*
Y30832D01*
Y30942D01*
Y31051D01*
Y31161D01*
Y31270D01*
Y31380D01*
Y31489D01*
Y31598D01*
Y31708D01*
Y31817D01*
Y31927D01*
Y32036D01*
X229400D01*
Y31927D01*
Y31817D01*
Y31708D01*
Y31598D01*
Y31489D01*
Y31380D01*
Y31270D01*
Y31161D01*
Y31051D01*
Y30942D01*
Y30832D01*
Y30723D01*
Y30613D01*
X230932D01*
Y30723D01*
Y30832D01*
Y30942D01*
Y31051D01*
Y31161D01*
Y31270D01*
Y31380D01*
Y31489D01*
Y31598D01*
Y31708D01*
Y31817D01*
Y31927D01*
Y32036D01*
Y32146D01*
Y32255D01*
Y32364D01*
Y32474D01*
Y32583D01*
Y32693D01*
Y32802D01*
Y32912D01*
Y33021D01*
Y33131D01*
Y33240D01*
Y33349D01*
Y33459D01*
Y33568D01*
Y33678D01*
Y33787D01*
Y33897D01*
Y34006D01*
Y34116D01*
Y34225D01*
Y34334D01*
Y34444D01*
Y34553D01*
Y34663D01*
Y34772D01*
Y34882D01*
Y34991D01*
X229509D01*
Y35101D01*
Y35210D01*
Y35320D01*
Y35429D01*
Y35538D01*
Y35648D01*
Y35757D01*
Y35867D01*
Y35976D01*
Y36086D01*
Y36195D01*
Y36305D01*
X230932D01*
Y36414D01*
Y36523D01*
Y36633D01*
Y36742D01*
Y36852D01*
Y36961D01*
Y37071D01*
Y37180D01*
Y37290D01*
Y37399D01*
Y37508D01*
Y37618D01*
Y37727D01*
X232246D01*
Y37618D01*
Y37508D01*
Y37399D01*
Y37290D01*
Y37180D01*
Y37071D01*
Y36961D01*
Y36852D01*
Y36742D01*
Y36633D01*
Y36523D01*
Y36414D01*
Y36305D01*
Y36195D01*
Y36086D01*
Y35976D01*
Y35867D01*
Y35757D01*
Y35648D01*
Y35538D01*
Y35429D01*
Y35320D01*
Y35210D01*
Y35101D01*
Y34991D01*
Y34882D01*
Y34772D01*
Y34663D01*
Y34553D01*
Y34444D01*
Y34334D01*
Y34225D01*
Y34116D01*
Y34006D01*
Y33897D01*
Y33787D01*
Y33678D01*
Y33568D01*
Y33459D01*
X233778D01*
Y33568D01*
Y33678D01*
Y33787D01*
Y33897D01*
Y34006D01*
Y34116D01*
Y34225D01*
Y34334D01*
Y34444D01*
Y34553D01*
Y34663D01*
Y34772D01*
Y34882D01*
Y34991D01*
Y35101D01*
Y35210D01*
Y35320D01*
Y35429D01*
Y35538D01*
Y35648D01*
Y35757D01*
Y35867D01*
Y35976D01*
Y36086D01*
Y36195D01*
Y36305D01*
Y36414D01*
Y36523D01*
Y36633D01*
Y36742D01*
Y36852D01*
Y36961D01*
Y37071D01*
Y37180D01*
Y37290D01*
Y37399D01*
Y37508D01*
Y37618D01*
Y37727D01*
X236623D01*
Y37837D01*
Y37946D01*
Y38056D01*
Y38165D01*
Y38274D01*
Y38384D01*
Y38493D01*
Y38603D01*
Y38712D01*
Y38822D01*
Y38931D01*
Y39041D01*
Y39150D01*
Y39259D01*
X235201D01*
Y39369D01*
Y39478D01*
Y39588D01*
Y39697D01*
Y39807D01*
Y39916D01*
Y40026D01*
Y40135D01*
Y40244D01*
Y40354D01*
Y40463D01*
Y40573D01*
X236623D01*
Y40682D01*
Y40792D01*
Y40901D01*
Y41011D01*
Y41120D01*
Y41230D01*
Y41339D01*
Y41448D01*
Y41558D01*
Y41667D01*
Y41777D01*
Y41886D01*
Y41996D01*
Y42105D01*
X236514D01*
Y42215D01*
X236404D01*
Y42105D01*
X236295D01*
Y42215D01*
X235967D01*
Y42105D01*
X235857D01*
Y42215D01*
X235529D01*
Y42105D01*
X235420D01*
Y42215D01*
X235201D01*
Y42324D01*
Y42433D01*
Y42543D01*
Y42652D01*
Y42762D01*
Y42871D01*
Y42981D01*
Y43090D01*
Y43200D01*
Y43309D01*
Y43418D01*
Y43528D01*
Y43637D01*
D02*
G37*
G36*
X248006D02*
X238046D01*
Y43528D01*
X237937D01*
Y43418D01*
Y43309D01*
Y43200D01*
Y43090D01*
Y42981D01*
Y42871D01*
Y42762D01*
Y42652D01*
Y42543D01*
Y42433D01*
Y42324D01*
Y42215D01*
Y42105D01*
Y41996D01*
Y41886D01*
Y41777D01*
Y41667D01*
Y41558D01*
Y41448D01*
Y41339D01*
Y41230D01*
Y41120D01*
Y41011D01*
Y40901D01*
Y40792D01*
Y40682D01*
Y40573D01*
Y40463D01*
Y40354D01*
Y40244D01*
Y40135D01*
Y40026D01*
Y39916D01*
Y39807D01*
Y39697D01*
Y39588D01*
Y39478D01*
Y39369D01*
Y39259D01*
Y39150D01*
Y39041D01*
Y38931D01*
Y38822D01*
Y38712D01*
Y38603D01*
Y38493D01*
Y38384D01*
Y38274D01*
Y38165D01*
Y38056D01*
Y37946D01*
Y37837D01*
Y37727D01*
Y37618D01*
Y37508D01*
Y37399D01*
Y37290D01*
Y37180D01*
Y37071D01*
Y36961D01*
Y36852D01*
Y36742D01*
Y36633D01*
Y36523D01*
Y36414D01*
Y36305D01*
Y36195D01*
Y36086D01*
Y35976D01*
Y35867D01*
Y35757D01*
Y35648D01*
Y35538D01*
Y35429D01*
Y35320D01*
Y35210D01*
Y35101D01*
Y34991D01*
Y34882D01*
Y34772D01*
Y34663D01*
Y34553D01*
Y34444D01*
Y34334D01*
Y34225D01*
Y34116D01*
Y34006D01*
Y33897D01*
Y33787D01*
Y33678D01*
Y33568D01*
Y33459D01*
X248006D01*
Y33568D01*
X248115D01*
Y33678D01*
Y33787D01*
Y33897D01*
Y34006D01*
Y34116D01*
Y34225D01*
Y34334D01*
Y34444D01*
Y34553D01*
Y34663D01*
Y34772D01*
Y34882D01*
Y34991D01*
Y35101D01*
Y35210D01*
Y35320D01*
Y35429D01*
Y35538D01*
Y35648D01*
Y35757D01*
Y35867D01*
Y35976D01*
Y36086D01*
Y36195D01*
Y36305D01*
Y36414D01*
Y36523D01*
Y36633D01*
Y36742D01*
Y36852D01*
Y36961D01*
Y37071D01*
Y37180D01*
Y37290D01*
Y37399D01*
Y37508D01*
Y37618D01*
Y37727D01*
Y37837D01*
Y37946D01*
Y38056D01*
Y38165D01*
Y38274D01*
Y38384D01*
Y38493D01*
Y38603D01*
Y38712D01*
Y38822D01*
Y38931D01*
Y39041D01*
Y39150D01*
Y39259D01*
Y39369D01*
Y39478D01*
Y39588D01*
Y39697D01*
Y39807D01*
Y39916D01*
Y40026D01*
Y40135D01*
Y40244D01*
Y40354D01*
Y40463D01*
Y40573D01*
Y40682D01*
Y40792D01*
Y40901D01*
Y41011D01*
Y41120D01*
Y41230D01*
Y41339D01*
Y41448D01*
Y41558D01*
Y41667D01*
Y41777D01*
Y41886D01*
Y41996D01*
Y42105D01*
Y42215D01*
Y42324D01*
Y42433D01*
Y42543D01*
Y42652D01*
Y42762D01*
Y42871D01*
Y42981D01*
Y43090D01*
Y43200D01*
Y43309D01*
Y43418D01*
Y43528D01*
X248006D01*
Y43637D01*
D02*
G37*
G36*
X236623Y36414D02*
X235091D01*
Y36305D01*
Y36195D01*
Y36086D01*
Y35976D01*
Y35867D01*
Y35757D01*
Y35648D01*
Y35538D01*
Y35429D01*
Y35320D01*
Y35210D01*
Y35101D01*
Y34991D01*
Y34882D01*
Y34772D01*
Y34663D01*
Y34553D01*
Y34444D01*
Y34334D01*
Y34225D01*
Y34116D01*
Y34006D01*
Y33897D01*
Y33787D01*
Y33678D01*
Y33568D01*
Y33459D01*
X236623D01*
Y33568D01*
Y33678D01*
Y33787D01*
Y33897D01*
Y34006D01*
Y34116D01*
Y34225D01*
Y34334D01*
Y34444D01*
Y34553D01*
Y34663D01*
Y34772D01*
Y34882D01*
Y34991D01*
Y35101D01*
Y35210D01*
Y35320D01*
Y35429D01*
Y35538D01*
Y35648D01*
Y35757D01*
Y35867D01*
Y35976D01*
Y36086D01*
Y36195D01*
Y36305D01*
Y36414D01*
D02*
G37*
G36*
X222395Y43637D02*
X212327D01*
Y43528D01*
X212217D01*
Y43418D01*
Y43309D01*
Y43200D01*
Y43090D01*
Y42981D01*
Y42871D01*
Y42762D01*
Y42652D01*
Y42543D01*
Y42433D01*
Y42324D01*
Y42215D01*
Y42105D01*
Y41996D01*
Y41886D01*
Y41777D01*
Y41667D01*
Y41558D01*
Y41448D01*
Y41339D01*
Y41230D01*
Y41120D01*
Y41011D01*
Y40901D01*
Y40792D01*
Y40682D01*
Y40573D01*
Y40463D01*
Y40354D01*
Y40244D01*
Y40135D01*
Y40026D01*
Y39916D01*
Y39807D01*
Y39697D01*
Y39588D01*
Y39478D01*
Y39369D01*
Y39259D01*
Y39150D01*
Y39041D01*
Y38931D01*
Y38822D01*
Y38712D01*
Y38603D01*
Y38493D01*
Y38384D01*
Y38274D01*
Y38165D01*
Y38056D01*
Y37946D01*
Y37837D01*
Y37727D01*
Y37618D01*
Y37508D01*
Y37399D01*
Y37290D01*
Y37180D01*
Y37071D01*
Y36961D01*
Y36852D01*
Y36742D01*
Y36633D01*
Y36523D01*
Y36414D01*
Y36305D01*
Y36195D01*
Y36086D01*
Y35976D01*
Y35867D01*
Y35757D01*
Y35648D01*
Y35538D01*
Y35429D01*
Y35320D01*
Y35210D01*
Y35101D01*
Y34991D01*
Y34882D01*
Y34772D01*
Y34663D01*
Y34553D01*
Y34444D01*
Y34334D01*
Y34225D01*
Y34116D01*
Y34006D01*
Y33897D01*
Y33787D01*
Y33678D01*
Y33568D01*
Y33459D01*
X222395D01*
Y33568D01*
Y33678D01*
Y33787D01*
Y33897D01*
Y34006D01*
Y34116D01*
Y34225D01*
Y34334D01*
Y34444D01*
Y34553D01*
Y34663D01*
Y34772D01*
Y34882D01*
Y34991D01*
Y35101D01*
Y35210D01*
Y35320D01*
Y35429D01*
Y35538D01*
Y35648D01*
Y35757D01*
Y35867D01*
Y35976D01*
Y36086D01*
Y36195D01*
Y36305D01*
Y36414D01*
Y36523D01*
Y36633D01*
Y36742D01*
Y36852D01*
Y36961D01*
Y37071D01*
Y37180D01*
Y37290D01*
Y37399D01*
Y37508D01*
Y37618D01*
Y37727D01*
Y37837D01*
Y37946D01*
Y38056D01*
Y38165D01*
Y38274D01*
Y38384D01*
Y38493D01*
Y38603D01*
Y38712D01*
Y38822D01*
Y38931D01*
Y39041D01*
Y39150D01*
Y39259D01*
Y39369D01*
Y39478D01*
Y39588D01*
Y39697D01*
Y39807D01*
Y39916D01*
Y40026D01*
Y40135D01*
Y40244D01*
Y40354D01*
Y40463D01*
Y40573D01*
Y40682D01*
Y40792D01*
Y40901D01*
Y41011D01*
Y41120D01*
Y41230D01*
Y41339D01*
Y41448D01*
Y41558D01*
Y41667D01*
Y41777D01*
Y41886D01*
Y41996D01*
Y42105D01*
Y42215D01*
Y42324D01*
Y42433D01*
Y42543D01*
Y42652D01*
Y42762D01*
Y42871D01*
Y42981D01*
Y43090D01*
Y43200D01*
Y43309D01*
Y43418D01*
Y43528D01*
Y43637D01*
D02*
G37*
G36*
X215282Y32146D02*
X213640D01*
Y32036D01*
Y31927D01*
Y31817D01*
Y31708D01*
Y31598D01*
Y31489D01*
Y31380D01*
Y31270D01*
Y31161D01*
Y31051D01*
Y30942D01*
Y30832D01*
Y30723D01*
X213749D01*
Y30613D01*
X215282D01*
Y30723D01*
Y30832D01*
Y30942D01*
Y31051D01*
Y31161D01*
Y31270D01*
Y31380D01*
Y31489D01*
Y31598D01*
Y31708D01*
Y31817D01*
Y31927D01*
Y32036D01*
Y32146D01*
D02*
G37*
G36*
X248115Y17918D02*
X237937D01*
Y17808D01*
Y17699D01*
Y17589D01*
Y17480D01*
Y17370D01*
Y17261D01*
Y17152D01*
Y17042D01*
Y16933D01*
Y16823D01*
Y16714D01*
Y16604D01*
Y16495D01*
Y16386D01*
Y16276D01*
Y16167D01*
Y16057D01*
Y15948D01*
Y15838D01*
Y15729D01*
Y15619D01*
Y15510D01*
Y15401D01*
Y15291D01*
Y15182D01*
Y15072D01*
Y14963D01*
Y14853D01*
Y14744D01*
Y14634D01*
Y14525D01*
Y14415D01*
Y14306D01*
Y14197D01*
Y14087D01*
Y13978D01*
Y13868D01*
Y13759D01*
Y13649D01*
Y13540D01*
Y13431D01*
Y13321D01*
Y13212D01*
Y13102D01*
Y12993D01*
Y12883D01*
Y12774D01*
Y12664D01*
Y12555D01*
Y12445D01*
Y12336D01*
Y12227D01*
Y12117D01*
Y12008D01*
Y11898D01*
Y11789D01*
Y11679D01*
Y11570D01*
Y11461D01*
Y11351D01*
Y11242D01*
Y11132D01*
Y11023D01*
Y10913D01*
Y10804D01*
Y10694D01*
Y10585D01*
Y10475D01*
Y10366D01*
Y10257D01*
Y10147D01*
Y10038D01*
Y9928D01*
Y9819D01*
Y9709D01*
Y9600D01*
Y9490D01*
Y9381D01*
Y9272D01*
Y9162D01*
Y9053D01*
Y8943D01*
Y8834D01*
Y8724D01*
Y8615D01*
Y8506D01*
Y8396D01*
Y8287D01*
Y8177D01*
Y8068D01*
Y7958D01*
Y7849D01*
Y7739D01*
X248006D01*
Y7849D01*
X248115D01*
Y7958D01*
Y8068D01*
Y8177D01*
Y8287D01*
Y8396D01*
Y8506D01*
Y8615D01*
Y8724D01*
Y8834D01*
Y8943D01*
Y9053D01*
Y9162D01*
Y9272D01*
Y9381D01*
Y9490D01*
Y9600D01*
Y9709D01*
Y9819D01*
Y9928D01*
Y10038D01*
Y10147D01*
Y10257D01*
Y10366D01*
Y10475D01*
Y10585D01*
Y10694D01*
Y10804D01*
Y10913D01*
Y11023D01*
Y11132D01*
Y11242D01*
Y11351D01*
Y11461D01*
Y11570D01*
Y11679D01*
Y11789D01*
Y11898D01*
Y12008D01*
Y12117D01*
Y12227D01*
Y12336D01*
Y12445D01*
Y12555D01*
Y12664D01*
Y12774D01*
Y12883D01*
Y12993D01*
Y13102D01*
Y13212D01*
Y13321D01*
Y13431D01*
Y13540D01*
Y13649D01*
Y13759D01*
Y13868D01*
Y13978D01*
Y14087D01*
Y14197D01*
Y14306D01*
Y14415D01*
Y14525D01*
Y14634D01*
Y14744D01*
Y14853D01*
Y14963D01*
Y15072D01*
Y15182D01*
Y15291D01*
Y15401D01*
Y15510D01*
Y15619D01*
Y15729D01*
Y15838D01*
Y15948D01*
Y16057D01*
Y16167D01*
Y16276D01*
Y16386D01*
Y16495D01*
Y16604D01*
Y16714D01*
Y16823D01*
Y16933D01*
Y17042D01*
Y17152D01*
Y17261D01*
Y17370D01*
Y17480D01*
Y17589D01*
Y17699D01*
Y17808D01*
Y17918D01*
D02*
G37*
%LPD*%
G36*
X233668Y39041D02*
Y38931D01*
Y38822D01*
Y38712D01*
Y38603D01*
Y38493D01*
Y38384D01*
Y38274D01*
Y38165D01*
Y38056D01*
Y37946D01*
Y37837D01*
X232355D01*
Y37946D01*
Y38056D01*
Y38165D01*
Y38274D01*
Y38384D01*
Y38493D01*
Y38603D01*
Y38712D01*
Y38822D01*
Y38931D01*
Y39041D01*
Y39150D01*
X233668D01*
Y39041D01*
D02*
G37*
G36*
X229400Y34772D02*
Y34663D01*
Y34553D01*
Y34444D01*
Y34334D01*
Y34225D01*
Y34116D01*
Y34006D01*
Y33897D01*
Y33787D01*
Y33678D01*
Y33568D01*
X228087D01*
Y33678D01*
Y33787D01*
Y33897D01*
Y34006D01*
Y34116D01*
Y34225D01*
Y34334D01*
Y34444D01*
Y34553D01*
Y34663D01*
Y34772D01*
Y34882D01*
X229400D01*
Y34772D01*
D02*
G37*
G36*
X239359Y30504D02*
Y30395D01*
Y30285D01*
Y30176D01*
Y30066D01*
Y29957D01*
Y29847D01*
Y29738D01*
Y29628D01*
Y29519D01*
Y29409D01*
Y29300D01*
X238046D01*
Y29409D01*
Y29519D01*
Y29628D01*
Y29738D01*
Y29847D01*
Y29957D01*
Y30066D01*
Y30176D01*
Y30285D01*
Y30395D01*
Y30504D01*
Y30613D01*
X239359D01*
Y30504D01*
D02*
G37*
G36*
X246473Y29081D02*
Y28972D01*
Y28862D01*
Y28753D01*
Y28643D01*
Y28534D01*
Y28424D01*
Y28315D01*
Y28206D01*
Y28096D01*
Y27987D01*
Y27877D01*
Y27768D01*
Y27658D01*
Y27549D01*
Y27439D01*
Y27330D01*
Y27220D01*
Y27111D01*
Y27002D01*
Y26892D01*
Y26783D01*
Y26673D01*
Y26564D01*
Y26454D01*
X245051D01*
Y26345D01*
Y26235D01*
Y26126D01*
Y26017D01*
Y25907D01*
Y25798D01*
Y25688D01*
Y25579D01*
Y25469D01*
Y25360D01*
Y25251D01*
Y25141D01*
Y25032D01*
X240892D01*
Y25141D01*
Y25251D01*
Y25360D01*
Y25469D01*
Y25579D01*
Y25688D01*
Y25798D01*
Y25907D01*
Y26017D01*
Y26126D01*
Y26235D01*
Y26345D01*
Y26454D01*
X238046D01*
Y26564D01*
Y26673D01*
Y26783D01*
Y26892D01*
Y27002D01*
Y27111D01*
Y27220D01*
Y27330D01*
Y27439D01*
Y27549D01*
Y27658D01*
Y27768D01*
X242315D01*
Y27877D01*
Y27987D01*
Y28096D01*
Y28206D01*
Y28315D01*
Y28424D01*
Y28534D01*
Y28643D01*
Y28753D01*
Y28862D01*
Y28972D01*
Y29081D01*
Y29191D01*
X243628D01*
Y29081D01*
Y28972D01*
Y28862D01*
Y28753D01*
Y28643D01*
Y28534D01*
Y28424D01*
Y28315D01*
Y28206D01*
Y28096D01*
Y27987D01*
Y27877D01*
Y27768D01*
X245160D01*
Y27877D01*
Y27987D01*
Y28096D01*
Y28206D01*
Y28315D01*
Y28424D01*
Y28534D01*
Y28643D01*
Y28753D01*
Y28862D01*
Y28972D01*
Y29081D01*
Y29191D01*
X246473D01*
Y29081D01*
D02*
G37*
G36*
X225132D02*
Y28972D01*
Y28862D01*
Y28753D01*
Y28643D01*
Y28534D01*
Y28424D01*
Y28315D01*
Y28206D01*
Y28096D01*
Y27987D01*
Y27877D01*
Y27768D01*
X226554D01*
Y27658D01*
Y27549D01*
Y27439D01*
Y27330D01*
Y27220D01*
Y27111D01*
Y27002D01*
Y26892D01*
Y26783D01*
Y26673D01*
Y26564D01*
Y26454D01*
X222395D01*
Y26564D01*
Y26673D01*
Y26783D01*
Y26892D01*
Y27002D01*
Y27111D01*
Y27220D01*
Y27330D01*
Y27439D01*
Y27549D01*
Y27658D01*
Y27768D01*
X223818D01*
Y27877D01*
Y27987D01*
Y28096D01*
Y28206D01*
Y28315D01*
Y28424D01*
Y28534D01*
Y28643D01*
Y28753D01*
Y28862D01*
Y28972D01*
Y29081D01*
Y29191D01*
X225132D01*
Y29081D01*
D02*
G37*
G36*
X233668Y26235D02*
Y26126D01*
Y26017D01*
Y25907D01*
Y25798D01*
Y25688D01*
Y25579D01*
Y25469D01*
Y25360D01*
Y25251D01*
Y25141D01*
Y25032D01*
X232355D01*
Y25141D01*
Y25251D01*
Y25360D01*
Y25469D01*
Y25579D01*
Y25688D01*
Y25798D01*
Y25907D01*
Y26017D01*
Y26126D01*
Y26235D01*
Y26345D01*
X233668D01*
Y26235D01*
D02*
G37*
G36*
X226554Y24813D02*
Y24703D01*
Y24594D01*
Y24484D01*
Y24375D01*
Y24265D01*
Y24156D01*
Y24047D01*
Y23937D01*
Y23828D01*
Y23718D01*
Y23609D01*
X222395D01*
Y23718D01*
Y23828D01*
Y23937D01*
Y24047D01*
Y24156D01*
Y24265D01*
Y24375D01*
Y24484D01*
Y24594D01*
Y24703D01*
Y24813D01*
Y24922D01*
X226554D01*
Y24813D01*
D02*
G37*
G36*
X236514Y30504D02*
Y30395D01*
Y30285D01*
Y30176D01*
Y30066D01*
Y29957D01*
Y29847D01*
Y29738D01*
Y29628D01*
Y29519D01*
Y29409D01*
Y29300D01*
Y29191D01*
X237937D01*
Y29081D01*
Y28972D01*
Y28862D01*
Y28753D01*
Y28643D01*
Y28534D01*
Y28424D01*
Y28315D01*
Y28206D01*
Y28096D01*
Y27987D01*
Y27877D01*
X236514D01*
Y27768D01*
Y27658D01*
Y27549D01*
Y27439D01*
Y27330D01*
Y27220D01*
Y27111D01*
Y27002D01*
Y26892D01*
Y26783D01*
Y26673D01*
Y26564D01*
Y26454D01*
Y26345D01*
X237937D01*
Y26235D01*
Y26126D01*
Y26017D01*
Y25907D01*
Y25798D01*
Y25688D01*
Y25579D01*
Y25469D01*
Y25360D01*
Y25251D01*
Y25141D01*
Y25032D01*
Y24922D01*
X240782D01*
Y24813D01*
Y24703D01*
Y24594D01*
Y24484D01*
Y24375D01*
Y24265D01*
Y24156D01*
Y24047D01*
Y23937D01*
Y23828D01*
Y23718D01*
Y23609D01*
Y23499D01*
Y23390D01*
Y23280D01*
Y23171D01*
Y23062D01*
Y22952D01*
Y22843D01*
Y22733D01*
Y22624D01*
Y22514D01*
Y22405D01*
Y22296D01*
Y22186D01*
Y22077D01*
Y21967D01*
Y21858D01*
Y21748D01*
Y21639D01*
Y21529D01*
Y21420D01*
Y21310D01*
Y21201D01*
Y21092D01*
Y20982D01*
Y20873D01*
Y20763D01*
X238046D01*
Y20873D01*
Y20982D01*
Y21092D01*
Y21201D01*
Y21310D01*
Y21420D01*
Y21529D01*
Y21639D01*
Y21748D01*
Y21858D01*
Y21967D01*
Y22077D01*
X239469D01*
Y22186D01*
Y22296D01*
Y22405D01*
Y22514D01*
Y22624D01*
Y22733D01*
Y22843D01*
Y22952D01*
Y23062D01*
Y23171D01*
Y23280D01*
Y23390D01*
Y23499D01*
Y23609D01*
X237937D01*
Y23499D01*
Y23390D01*
Y23280D01*
Y23171D01*
Y23062D01*
Y22952D01*
Y22843D01*
Y22733D01*
Y22624D01*
Y22514D01*
Y22405D01*
Y22296D01*
Y22186D01*
X236623D01*
Y22296D01*
Y22405D01*
Y22514D01*
Y22624D01*
Y22733D01*
Y22843D01*
Y22952D01*
Y23062D01*
Y23171D01*
Y23280D01*
Y23390D01*
Y23499D01*
Y23609D01*
Y23718D01*
Y23828D01*
Y23937D01*
Y24047D01*
Y24156D01*
Y24265D01*
Y24375D01*
Y24484D01*
Y24594D01*
Y24703D01*
Y24813D01*
Y24922D01*
Y25032D01*
X235201D01*
Y25141D01*
Y25251D01*
Y25360D01*
Y25469D01*
Y25579D01*
Y25688D01*
Y25798D01*
Y25907D01*
Y26017D01*
Y26126D01*
Y26235D01*
Y26345D01*
Y26454D01*
Y26564D01*
Y26673D01*
Y26783D01*
Y26892D01*
Y27002D01*
Y27111D01*
Y27220D01*
Y27330D01*
Y27439D01*
Y27549D01*
Y27658D01*
Y27768D01*
Y27877D01*
Y27987D01*
Y28096D01*
Y28206D01*
Y28315D01*
Y28424D01*
Y28534D01*
Y28643D01*
Y28753D01*
Y28862D01*
Y28972D01*
Y29081D01*
Y29191D01*
Y29300D01*
Y29409D01*
Y29519D01*
Y29628D01*
Y29738D01*
Y29847D01*
Y29957D01*
Y30066D01*
Y30176D01*
Y30285D01*
Y30395D01*
Y30504D01*
Y30613D01*
X236514D01*
Y30504D01*
D02*
G37*
G36*
X227977Y21967D02*
Y21858D01*
Y21748D01*
Y21639D01*
Y21529D01*
Y21420D01*
Y21310D01*
Y21201D01*
Y21092D01*
Y20982D01*
Y20873D01*
Y20763D01*
X223818D01*
Y20873D01*
Y20982D01*
Y21092D01*
Y21201D01*
Y21310D01*
Y21420D01*
Y21529D01*
Y21639D01*
Y21748D01*
Y21858D01*
Y21967D01*
Y22077D01*
X227977D01*
Y21967D01*
D02*
G37*
G36*
X236514D02*
Y21858D01*
Y21748D01*
Y21639D01*
Y21529D01*
Y21420D01*
Y21310D01*
Y21201D01*
Y21092D01*
Y20982D01*
Y20873D01*
Y20763D01*
Y20654D01*
Y20544D01*
Y20435D01*
Y20325D01*
Y20216D01*
Y20107D01*
Y19997D01*
Y19888D01*
Y19778D01*
Y19669D01*
Y19559D01*
Y19450D01*
Y19341D01*
X235201D01*
Y19450D01*
Y19559D01*
Y19669D01*
Y19778D01*
Y19888D01*
Y19997D01*
Y20107D01*
Y20216D01*
Y20325D01*
Y20435D01*
Y20544D01*
Y20654D01*
Y20763D01*
Y20873D01*
Y20982D01*
Y21092D01*
Y21201D01*
Y21310D01*
Y21420D01*
Y21529D01*
Y21639D01*
Y21748D01*
Y21858D01*
Y21967D01*
Y22077D01*
X236514D01*
Y21967D01*
D02*
G37*
G36*
X232246Y24813D02*
Y24703D01*
Y24594D01*
Y24484D01*
Y24375D01*
Y24265D01*
Y24156D01*
Y24047D01*
Y23937D01*
Y23828D01*
Y23718D01*
Y23609D01*
Y23499D01*
X233668D01*
Y23390D01*
Y23280D01*
Y23171D01*
Y23062D01*
Y22952D01*
Y22843D01*
Y22733D01*
Y22624D01*
Y22514D01*
Y22405D01*
Y22296D01*
Y22186D01*
Y22077D01*
Y21967D01*
Y21858D01*
Y21748D01*
Y21639D01*
Y21529D01*
Y21420D01*
Y21310D01*
Y21201D01*
Y21092D01*
Y20982D01*
Y20873D01*
Y20763D01*
Y20654D01*
Y20544D01*
Y20435D01*
Y20325D01*
Y20216D01*
Y20107D01*
Y19997D01*
Y19888D01*
Y19778D01*
Y19669D01*
Y19559D01*
Y19450D01*
Y19341D01*
Y19231D01*
Y19122D01*
Y19012D01*
Y18903D01*
Y18793D01*
Y18684D01*
Y18574D01*
Y18465D01*
Y18356D01*
Y18246D01*
Y18137D01*
Y18027D01*
Y17918D01*
X229400D01*
Y17808D01*
Y17699D01*
Y17589D01*
Y17480D01*
Y17370D01*
Y17261D01*
Y17152D01*
Y17042D01*
Y16933D01*
Y16823D01*
Y16714D01*
Y16604D01*
Y16495D01*
Y16386D01*
X230823D01*
Y16276D01*
Y16167D01*
Y16057D01*
Y15948D01*
Y15838D01*
Y15729D01*
Y15619D01*
Y15510D01*
Y15401D01*
Y15291D01*
Y15182D01*
Y15072D01*
Y14963D01*
Y14853D01*
Y14744D01*
Y14634D01*
Y14525D01*
Y14415D01*
Y14306D01*
Y14197D01*
Y14087D01*
Y13978D01*
Y13868D01*
Y13759D01*
Y13649D01*
X226664D01*
Y13759D01*
Y13868D01*
Y13978D01*
Y14087D01*
Y14197D01*
Y14306D01*
Y14415D01*
Y14525D01*
Y14634D01*
Y14744D01*
Y14853D01*
Y14963D01*
X228087D01*
Y15072D01*
Y15182D01*
Y15291D01*
Y15401D01*
Y15510D01*
Y15619D01*
Y15729D01*
Y15838D01*
Y15948D01*
Y16057D01*
Y16167D01*
Y16276D01*
Y16386D01*
Y16495D01*
X225241D01*
Y16604D01*
Y16714D01*
Y16823D01*
Y16933D01*
Y17042D01*
Y17152D01*
Y17261D01*
Y17370D01*
Y17480D01*
Y17589D01*
Y17699D01*
Y17808D01*
Y17918D01*
Y18027D01*
Y18137D01*
Y18246D01*
Y18356D01*
Y18465D01*
Y18574D01*
Y18684D01*
Y18793D01*
Y18903D01*
Y19012D01*
Y19122D01*
Y19231D01*
X228087D01*
Y19341D01*
Y19450D01*
Y19559D01*
Y19669D01*
Y19778D01*
Y19888D01*
Y19997D01*
Y20107D01*
Y20216D01*
Y20325D01*
Y20435D01*
Y20544D01*
Y20654D01*
X229400D01*
Y20544D01*
Y20435D01*
Y20325D01*
Y20216D01*
Y20107D01*
Y19997D01*
Y19888D01*
Y19778D01*
Y19669D01*
Y19559D01*
Y19450D01*
Y19341D01*
Y19231D01*
X230932D01*
Y19341D01*
Y19450D01*
Y19559D01*
Y19669D01*
Y19778D01*
Y19888D01*
Y19997D01*
Y20107D01*
Y20216D01*
Y20325D01*
Y20435D01*
Y20544D01*
Y20654D01*
Y20763D01*
Y20873D01*
Y20982D01*
Y21092D01*
Y21201D01*
Y21310D01*
Y21420D01*
Y21529D01*
Y21639D01*
Y21748D01*
Y21858D01*
Y21967D01*
Y22077D01*
Y22186D01*
X229509D01*
Y22296D01*
Y22405D01*
Y22514D01*
Y22624D01*
Y22733D01*
Y22843D01*
Y22952D01*
Y23062D01*
Y23171D01*
Y23280D01*
Y23390D01*
Y23499D01*
X230932D01*
Y23609D01*
Y23718D01*
Y23828D01*
Y23937D01*
Y24047D01*
Y24156D01*
Y24265D01*
Y24375D01*
Y24484D01*
Y24594D01*
Y24703D01*
Y24813D01*
Y24922D01*
X232246D01*
Y24813D01*
D02*
G37*
G36*
X218018Y19122D02*
Y19012D01*
Y18903D01*
Y18793D01*
Y18684D01*
Y18574D01*
Y18465D01*
Y18356D01*
Y18246D01*
Y18137D01*
Y18027D01*
Y17918D01*
X216704D01*
Y18027D01*
Y18137D01*
Y18246D01*
Y18356D01*
Y18465D01*
Y18574D01*
Y18684D01*
Y18793D01*
Y18903D01*
Y19012D01*
Y19122D01*
Y19231D01*
X218018D01*
Y19122D01*
D02*
G37*
G36*
X235091Y17699D02*
Y17589D01*
Y17480D01*
Y17370D01*
Y17261D01*
Y17152D01*
Y17042D01*
Y16933D01*
Y16823D01*
Y16714D01*
Y16604D01*
Y16495D01*
X233778D01*
Y16604D01*
Y16714D01*
Y16823D01*
Y16933D01*
Y17042D01*
Y17152D01*
Y17261D01*
Y17370D01*
Y17480D01*
Y17589D01*
Y17699D01*
Y17808D01*
X235091D01*
Y17699D01*
D02*
G37*
G36*
X223709Y19122D02*
Y19012D01*
Y18903D01*
Y18793D01*
Y18684D01*
Y18574D01*
Y18465D01*
Y18356D01*
Y18246D01*
Y18137D01*
Y18027D01*
Y17918D01*
Y17808D01*
Y17699D01*
Y17589D01*
Y17480D01*
Y17370D01*
Y17261D01*
Y17152D01*
Y17042D01*
Y16933D01*
Y16823D01*
Y16714D01*
Y16604D01*
Y16495D01*
Y16386D01*
Y16276D01*
Y16167D01*
Y16057D01*
Y15948D01*
Y15838D01*
Y15729D01*
Y15619D01*
Y15510D01*
Y15401D01*
Y15291D01*
Y15182D01*
Y15072D01*
X219550D01*
Y15182D01*
Y15291D01*
Y15401D01*
Y15510D01*
Y15619D01*
Y15729D01*
Y15838D01*
Y15948D01*
Y16057D01*
Y16167D01*
Y16276D01*
Y16386D01*
Y16495D01*
Y16604D01*
Y16714D01*
Y16823D01*
Y16933D01*
Y17042D01*
Y17152D01*
Y17261D01*
Y17370D01*
Y17480D01*
Y17589D01*
Y17699D01*
Y17808D01*
Y17918D01*
Y18027D01*
Y18137D01*
Y18246D01*
Y18356D01*
Y18465D01*
Y18574D01*
Y18684D01*
Y18793D01*
Y18903D01*
Y19012D01*
Y19122D01*
Y19231D01*
X223709D01*
Y19122D01*
D02*
G37*
G36*
X225132Y13431D02*
Y13321D01*
Y13212D01*
Y13102D01*
Y12993D01*
Y12883D01*
Y12774D01*
Y12664D01*
Y12555D01*
Y12445D01*
Y12336D01*
Y12227D01*
X223818D01*
Y12336D01*
Y12445D01*
Y12555D01*
Y12664D01*
Y12774D01*
Y12883D01*
Y12993D01*
Y13102D01*
Y13212D01*
Y13321D01*
Y13431D01*
Y13540D01*
X225132D01*
Y13431D01*
D02*
G37*
G36*
X227977Y10585D02*
Y10475D01*
Y10366D01*
Y10257D01*
Y10147D01*
Y10038D01*
Y9928D01*
Y9819D01*
Y9709D01*
Y9600D01*
Y9490D01*
Y9381D01*
X226664D01*
Y9490D01*
Y9600D01*
Y9709D01*
Y9819D01*
Y9928D01*
Y10038D01*
Y10147D01*
Y10257D01*
Y10366D01*
Y10475D01*
Y10585D01*
Y10694D01*
X227977D01*
Y10585D01*
D02*
G37*
%LPC*%
G36*
X222395Y17918D02*
X220863D01*
Y17808D01*
Y17699D01*
Y17589D01*
Y17480D01*
Y17370D01*
Y17261D01*
Y17152D01*
Y17042D01*
Y16933D01*
Y16823D01*
Y16714D01*
Y16604D01*
Y16495D01*
Y16386D01*
X222395D01*
Y16495D01*
Y16604D01*
Y16714D01*
Y16823D01*
Y16933D01*
Y17042D01*
Y17152D01*
Y17261D01*
Y17370D01*
Y17480D01*
Y17589D01*
Y17699D01*
Y17808D01*
Y17918D01*
D02*
G37*
%LPD*%
G36*
X246473Y41886D02*
Y41777D01*
Y41667D01*
Y41558D01*
Y41448D01*
Y41339D01*
Y41230D01*
Y41120D01*
Y41011D01*
Y40901D01*
Y40792D01*
Y40682D01*
Y40573D01*
Y40463D01*
Y40354D01*
Y40244D01*
Y40135D01*
Y40026D01*
Y39916D01*
Y39807D01*
Y39697D01*
Y39588D01*
Y39478D01*
Y39369D01*
Y39259D01*
Y39150D01*
Y39041D01*
Y38931D01*
Y38822D01*
Y38712D01*
Y38603D01*
Y38493D01*
Y38384D01*
Y38274D01*
Y38165D01*
Y38056D01*
Y37946D01*
Y37837D01*
Y37727D01*
Y37618D01*
Y37508D01*
Y37399D01*
Y37290D01*
Y37180D01*
Y37071D01*
Y36961D01*
Y36852D01*
Y36742D01*
Y36633D01*
Y36523D01*
Y36414D01*
Y36305D01*
Y36195D01*
Y36086D01*
Y35976D01*
Y35867D01*
Y35757D01*
Y35648D01*
Y35538D01*
Y35429D01*
Y35320D01*
Y35210D01*
Y35101D01*
Y34991D01*
X239469D01*
Y35101D01*
Y35210D01*
Y35320D01*
Y35429D01*
Y35538D01*
Y35648D01*
Y35757D01*
Y35867D01*
Y35976D01*
Y36086D01*
Y36195D01*
Y36305D01*
Y36414D01*
Y36523D01*
Y36633D01*
Y36742D01*
Y36852D01*
Y36961D01*
Y37071D01*
Y37180D01*
Y37290D01*
Y37399D01*
Y37508D01*
Y37618D01*
Y37727D01*
Y37837D01*
Y37946D01*
Y38056D01*
Y38165D01*
Y38274D01*
Y38384D01*
Y38493D01*
Y38603D01*
Y38712D01*
Y38822D01*
Y38931D01*
Y39041D01*
Y39150D01*
Y39259D01*
Y39369D01*
Y39478D01*
Y39588D01*
Y39697D01*
Y39807D01*
Y39916D01*
Y40026D01*
Y40135D01*
Y40244D01*
Y40354D01*
Y40463D01*
Y40573D01*
Y40682D01*
Y40792D01*
Y40901D01*
Y41011D01*
Y41120D01*
Y41230D01*
Y41339D01*
Y41448D01*
Y41558D01*
Y41667D01*
Y41777D01*
Y41886D01*
Y41996D01*
X246473D01*
Y41886D01*
D02*
G37*
%LPC*%
G36*
X245160Y40792D02*
X245051D01*
Y40682D01*
X244941D01*
Y40792D01*
X244832D01*
Y40682D01*
X244722D01*
Y40792D01*
X244613D01*
Y40682D01*
X244503D01*
Y40792D01*
X244394D01*
Y40682D01*
X244285D01*
Y40792D01*
X244175D01*
Y40682D01*
X244066D01*
Y40792D01*
X243956D01*
Y40682D01*
X243847D01*
Y40792D01*
X243737D01*
Y40682D01*
X243628D01*
Y40792D01*
X243518D01*
Y40682D01*
X243409D01*
Y40792D01*
X243300D01*
Y40682D01*
X243190D01*
Y40792D01*
X243081D01*
Y40682D01*
X242971D01*
Y40792D01*
X242862D01*
Y40682D01*
X242752D01*
Y40792D01*
X242643D01*
Y40682D01*
X242533D01*
Y40792D01*
X242424D01*
Y40682D01*
X242315D01*
Y40792D01*
X242205D01*
Y40682D01*
X242096D01*
Y40792D01*
X241986D01*
Y40682D01*
X241877D01*
Y40792D01*
X241767D01*
Y40682D01*
X241658D01*
Y40792D01*
X241548D01*
Y40682D01*
X241439D01*
Y40792D01*
X241330D01*
Y40682D01*
X241220D01*
Y40792D01*
X241111D01*
Y40682D01*
X241001D01*
Y40792D01*
X240892D01*
Y40682D01*
X240782D01*
Y40573D01*
Y40463D01*
Y40354D01*
Y40244D01*
Y40135D01*
Y40026D01*
Y39916D01*
Y39807D01*
Y39697D01*
Y39588D01*
Y39478D01*
Y39369D01*
Y39259D01*
Y39150D01*
Y39041D01*
Y38931D01*
Y38822D01*
Y38712D01*
Y38603D01*
Y38493D01*
Y38384D01*
Y38274D01*
Y38165D01*
Y38056D01*
Y37946D01*
Y37837D01*
Y37727D01*
Y37618D01*
Y37508D01*
Y37399D01*
Y37290D01*
Y37180D01*
Y37071D01*
Y36961D01*
Y36852D01*
Y36742D01*
Y36633D01*
Y36523D01*
Y36414D01*
Y36305D01*
X245160D01*
Y36414D01*
Y36523D01*
Y36633D01*
Y36742D01*
Y36852D01*
Y36961D01*
Y37071D01*
Y37180D01*
Y37290D01*
Y37399D01*
Y37508D01*
Y37618D01*
Y37727D01*
Y37837D01*
Y37946D01*
Y38056D01*
Y38165D01*
Y38274D01*
Y38384D01*
Y38493D01*
Y38603D01*
Y38712D01*
Y38822D01*
Y38931D01*
Y39041D01*
Y39150D01*
Y39259D01*
Y39369D01*
Y39478D01*
Y39588D01*
Y39697D01*
Y39807D01*
Y39916D01*
Y40026D01*
Y40135D01*
Y40244D01*
Y40354D01*
Y40463D01*
Y40573D01*
Y40682D01*
Y40792D01*
D02*
G37*
%LPD*%
G36*
X220863Y41886D02*
Y41777D01*
Y41667D01*
Y41558D01*
Y41448D01*
Y41339D01*
Y41230D01*
Y41120D01*
Y41011D01*
Y40901D01*
Y40792D01*
Y40682D01*
Y40573D01*
Y40463D01*
Y40354D01*
Y40244D01*
Y40135D01*
Y40026D01*
Y39916D01*
Y39807D01*
Y39697D01*
Y39588D01*
Y39478D01*
Y39369D01*
Y39259D01*
Y39150D01*
Y39041D01*
Y38931D01*
Y38822D01*
Y38712D01*
Y38603D01*
Y38493D01*
Y38384D01*
Y38274D01*
Y38165D01*
Y38056D01*
Y37946D01*
Y37837D01*
Y37727D01*
Y37618D01*
Y37508D01*
Y37399D01*
Y37290D01*
Y37180D01*
Y37071D01*
Y36961D01*
Y36852D01*
Y36742D01*
Y36633D01*
Y36523D01*
Y36414D01*
Y36305D01*
Y36195D01*
Y36086D01*
Y35976D01*
Y35867D01*
Y35757D01*
Y35648D01*
Y35538D01*
Y35429D01*
Y35320D01*
Y35210D01*
Y35101D01*
Y34991D01*
X213859D01*
Y35101D01*
Y35210D01*
Y35320D01*
Y35429D01*
Y35538D01*
Y35648D01*
Y35757D01*
Y35867D01*
Y35976D01*
Y36086D01*
Y36195D01*
Y36305D01*
Y36414D01*
Y36523D01*
Y36633D01*
Y36742D01*
Y36852D01*
Y36961D01*
Y37071D01*
Y37180D01*
Y37290D01*
Y37399D01*
Y37508D01*
Y37618D01*
Y37727D01*
Y37837D01*
Y37946D01*
Y38056D01*
Y38165D01*
Y38274D01*
Y38384D01*
Y38493D01*
Y38603D01*
Y38712D01*
Y38822D01*
Y38931D01*
Y39041D01*
Y39150D01*
Y39259D01*
Y39369D01*
Y39478D01*
Y39588D01*
Y39697D01*
Y39807D01*
Y39916D01*
Y40026D01*
Y40135D01*
Y40244D01*
Y40354D01*
Y40463D01*
Y40573D01*
Y40682D01*
Y40792D01*
Y40901D01*
Y41011D01*
Y41120D01*
Y41230D01*
Y41339D01*
Y41448D01*
Y41558D01*
Y41667D01*
Y41777D01*
Y41886D01*
Y41996D01*
X220863D01*
Y41886D01*
D02*
G37*
%LPC*%
G36*
X219331Y40792D02*
X219222D01*
Y40682D01*
X219112D01*
Y40792D01*
X219003D01*
Y40682D01*
X218893D01*
Y40792D01*
X218784D01*
Y40682D01*
X218674D01*
Y40792D01*
X218565D01*
Y40682D01*
X218456D01*
Y40792D01*
X218346D01*
Y40682D01*
X218237D01*
Y40792D01*
X218127D01*
Y40682D01*
X218018D01*
Y40792D01*
X217908D01*
Y40682D01*
X217799D01*
Y40792D01*
X217689D01*
Y40682D01*
X217580D01*
Y40792D01*
X217471D01*
Y40682D01*
X217361D01*
Y40792D01*
X217252D01*
Y40682D01*
X217142D01*
Y40792D01*
X217033D01*
Y40682D01*
X216923D01*
Y40792D01*
X216814D01*
Y40682D01*
X216704D01*
Y40792D01*
X216595D01*
Y40682D01*
X216486D01*
Y40792D01*
X216376D01*
Y40682D01*
X216267D01*
Y40792D01*
X216157D01*
Y40682D01*
X216048D01*
Y40792D01*
X215938D01*
Y40682D01*
X215829D01*
Y40792D01*
X215719D01*
Y40682D01*
X215610D01*
Y40792D01*
X215500D01*
Y40682D01*
X215391D01*
Y40792D01*
X215282D01*
Y40682D01*
X215172D01*
Y40573D01*
X215063D01*
Y40463D01*
X215172D01*
Y40354D01*
X215063D01*
Y40244D01*
X215172D01*
Y40135D01*
X215063D01*
Y40026D01*
X215172D01*
Y39916D01*
X215063D01*
Y39807D01*
X215172D01*
Y39697D01*
X215063D01*
Y39588D01*
X215172D01*
Y39478D01*
X215063D01*
Y39369D01*
X215172D01*
Y39259D01*
X215063D01*
Y39150D01*
X215172D01*
Y39041D01*
X215063D01*
Y38931D01*
X215172D01*
Y38822D01*
X215063D01*
Y38712D01*
X215172D01*
Y38603D01*
X215063D01*
Y38493D01*
X215172D01*
Y38384D01*
X215063D01*
Y38274D01*
X215172D01*
Y38165D01*
X215063D01*
Y38056D01*
X215172D01*
Y37946D01*
X215063D01*
Y37837D01*
X215172D01*
Y37727D01*
X215063D01*
Y37618D01*
X215172D01*
Y37508D01*
X215063D01*
Y37399D01*
X215172D01*
Y37290D01*
X215063D01*
Y37180D01*
X215172D01*
Y37071D01*
X215063D01*
Y36961D01*
X215172D01*
Y36852D01*
X215063D01*
Y36742D01*
X215172D01*
Y36633D01*
X215063D01*
Y36523D01*
X215172D01*
Y36414D01*
Y36305D01*
X219550D01*
Y36414D01*
Y36523D01*
Y36633D01*
Y36742D01*
Y36852D01*
Y36961D01*
Y37071D01*
Y37180D01*
Y37290D01*
Y37399D01*
Y37508D01*
Y37618D01*
Y37727D01*
Y37837D01*
Y37946D01*
Y38056D01*
Y38165D01*
Y38274D01*
Y38384D01*
Y38493D01*
Y38603D01*
Y38712D01*
Y38822D01*
Y38931D01*
Y39041D01*
Y39150D01*
Y39259D01*
Y39369D01*
Y39478D01*
Y39588D01*
Y39697D01*
Y39807D01*
Y39916D01*
Y40026D01*
Y40135D01*
Y40244D01*
Y40354D01*
Y40463D01*
Y40573D01*
Y40682D01*
X219331D01*
Y40792D01*
D02*
G37*
%LPD*%
G36*
X246473Y16276D02*
Y16167D01*
Y16057D01*
Y15948D01*
Y15838D01*
Y15729D01*
Y15619D01*
Y15510D01*
Y15401D01*
Y15291D01*
Y15182D01*
Y15072D01*
Y14963D01*
Y14853D01*
Y14744D01*
Y14634D01*
Y14525D01*
Y14415D01*
Y14306D01*
Y14197D01*
Y14087D01*
Y13978D01*
Y13868D01*
Y13759D01*
Y13649D01*
Y13540D01*
Y13431D01*
Y13321D01*
Y13212D01*
Y13102D01*
Y12993D01*
Y12883D01*
Y12774D01*
Y12664D01*
Y12555D01*
Y12445D01*
Y12336D01*
Y12227D01*
Y12117D01*
Y12008D01*
Y11898D01*
Y11789D01*
Y11679D01*
Y11570D01*
Y11461D01*
Y11351D01*
Y11242D01*
Y11132D01*
Y11023D01*
Y10913D01*
Y10804D01*
Y10694D01*
Y10585D01*
Y10475D01*
Y10366D01*
Y10257D01*
Y10147D01*
Y10038D01*
Y9928D01*
Y9819D01*
Y9709D01*
Y9600D01*
Y9490D01*
Y9381D01*
X239469D01*
Y9490D01*
Y9600D01*
Y9709D01*
Y9819D01*
Y9928D01*
Y10038D01*
Y10147D01*
Y10257D01*
Y10366D01*
Y10475D01*
Y10585D01*
Y10694D01*
Y10804D01*
Y10913D01*
Y11023D01*
Y11132D01*
Y11242D01*
Y11351D01*
Y11461D01*
Y11570D01*
Y11679D01*
Y11789D01*
Y11898D01*
Y12008D01*
Y12117D01*
Y12227D01*
Y12336D01*
Y12445D01*
Y12555D01*
Y12664D01*
Y12774D01*
Y12883D01*
Y12993D01*
Y13102D01*
Y13212D01*
Y13321D01*
Y13431D01*
Y13540D01*
Y13649D01*
Y13759D01*
Y13868D01*
Y13978D01*
Y14087D01*
Y14197D01*
Y14306D01*
Y14415D01*
Y14525D01*
Y14634D01*
Y14744D01*
Y14853D01*
Y14963D01*
Y15072D01*
Y15182D01*
Y15291D01*
Y15401D01*
Y15510D01*
Y15619D01*
Y15729D01*
Y15838D01*
Y15948D01*
Y16057D01*
Y16167D01*
Y16276D01*
Y16386D01*
X246473D01*
Y16276D01*
D02*
G37*
%LPC*%
G36*
X245160Y15072D02*
X240782D01*
Y14963D01*
Y14853D01*
Y14744D01*
Y14634D01*
Y14525D01*
Y14415D01*
Y14306D01*
Y14197D01*
Y14087D01*
Y13978D01*
Y13868D01*
Y13759D01*
Y13649D01*
Y13540D01*
Y13431D01*
Y13321D01*
Y13212D01*
Y13102D01*
Y12993D01*
Y12883D01*
Y12774D01*
Y12664D01*
Y12555D01*
Y12445D01*
Y12336D01*
Y12227D01*
Y12117D01*
Y12008D01*
Y11898D01*
Y11789D01*
Y11679D01*
Y11570D01*
Y11461D01*
Y11351D01*
Y11242D01*
Y11132D01*
Y11023D01*
Y10913D01*
Y10804D01*
Y10694D01*
X245160D01*
Y10804D01*
Y10913D01*
Y11023D01*
Y11132D01*
Y11242D01*
Y11351D01*
Y11461D01*
Y11570D01*
Y11679D01*
Y11789D01*
Y11898D01*
Y12008D01*
Y12117D01*
Y12227D01*
Y12336D01*
Y12445D01*
Y12555D01*
Y12664D01*
Y12774D01*
Y12883D01*
Y12993D01*
Y13102D01*
Y13212D01*
Y13321D01*
Y13431D01*
Y13540D01*
Y13649D01*
Y13759D01*
Y13868D01*
Y13978D01*
Y14087D01*
Y14197D01*
Y14306D01*
Y14415D01*
Y14525D01*
Y14634D01*
Y14744D01*
Y14853D01*
Y14963D01*
Y15072D01*
D02*
G37*
%LPD*%
D10*
X438499Y43498D02*
X437499Y44498D01*
X435500D01*
X434500Y43498D01*
Y42499D01*
X435500Y41499D01*
X437499D01*
X438499Y40499D01*
Y39500D01*
X437499Y38500D01*
X435500D01*
X434500Y39500D01*
X441498Y43498D02*
Y42499D01*
X440498D01*
X442497D01*
X441498D01*
Y39500D01*
X442497Y38500D01*
X445496Y42499D02*
Y38500D01*
Y40499D01*
X446496Y41499D01*
X447496Y42499D01*
X448495D01*
X451495Y38500D02*
X453494D01*
X452494D01*
Y42499D01*
X451495D01*
X456493Y38500D02*
Y42499D01*
X459492D01*
X460492Y41499D01*
Y38500D01*
X464490Y36501D02*
X465490D01*
X466490Y37500D01*
Y42499D01*
X463491D01*
X462491Y41499D01*
Y39500D01*
X463491Y38500D01*
X466490D01*
X430099Y41198D02*
X429099Y42198D01*
X427100D01*
X426100Y41198D01*
Y40199D01*
X427100Y39199D01*
X429099D01*
X430099Y38199D01*
Y37200D01*
X429099Y36200D01*
X427100D01*
X426100Y37200D01*
X433098Y41198D02*
Y40199D01*
X432098D01*
X434097D01*
X433098D01*
Y37200D01*
X434097Y36200D01*
X437096Y40199D02*
Y36200D01*
Y38199D01*
X438096Y39199D01*
X439096Y40199D01*
X440096D01*
X443094Y36200D02*
X445094D01*
X444094D01*
Y40199D01*
X443094D01*
X448093Y36200D02*
Y40199D01*
X451092D01*
X452092Y39199D01*
Y36200D01*
X456090Y34201D02*
X457090D01*
X458090Y35200D01*
Y40199D01*
X455091D01*
X454091Y39199D01*
Y37200D01*
X455091Y36200D01*
X458090D01*
D11*
X99213Y14961D02*
Y24409D01*
X93701Y14961D02*
Y24409D01*
X197638Y14961D02*
Y24409D01*
X192126Y14961D02*
Y24409D01*
X296063Y14961D02*
Y24409D01*
X290551Y14961D02*
Y24409D01*
X67225Y19685D02*
X70375D01*
X165425D02*
X168575D01*
X263825D02*
X266975D01*
X98400Y26000D02*
Y28999D01*
X96900D01*
X96401Y28499D01*
Y27499D01*
X96900Y27000D01*
X98400D01*
X97400D02*
X96401Y26000D01*
X95401D02*
X94401D01*
X94901D01*
Y28999D01*
X95401Y28499D01*
X295400Y25800D02*
Y28799D01*
X293900D01*
X293401Y28299D01*
Y27299D01*
X293900Y26800D01*
X295400D01*
X294400D02*
X293401Y25800D01*
X292401Y28299D02*
X291901Y28799D01*
X290901D01*
X290402Y28299D01*
Y27799D01*
X290901Y27299D01*
X291401D01*
X290901D01*
X290402Y26800D01*
Y26300D01*
X290901Y25800D01*
X291901D01*
X292401Y26300D01*
X197300Y26000D02*
Y28999D01*
X195800D01*
X195301Y28499D01*
Y27499D01*
X195800Y27000D01*
X197300D01*
X196300D02*
X195301Y26000D01*
X192302D02*
X194301D01*
X192302Y27999D01*
Y28499D01*
X192801Y28999D01*
X193801D01*
X194301Y28499D01*
X305000Y12499D02*
Y9500D01*
X303001D01*
X300002Y12499D02*
X302001D01*
Y9500D01*
X300002D01*
X302001Y11000D02*
X301001D01*
X299002Y12499D02*
Y9500D01*
X297502D01*
X297003Y10000D01*
Y11999D01*
X297502Y12499D01*
X299002D01*
X296003Y11999D02*
X295503Y12499D01*
X294503D01*
X294004Y11999D01*
Y11499D01*
X294503Y11000D01*
X295003D01*
X294503D01*
X294004Y10500D01*
Y10000D01*
X294503Y9500D01*
X295503D01*
X296003Y10000D01*
X206500Y12799D02*
Y9800D01*
X204501D01*
X201502Y12799D02*
X203501D01*
Y9800D01*
X201502D01*
X203501Y11299D02*
X202501D01*
X200502Y12799D02*
Y9800D01*
X199002D01*
X198503Y10300D01*
Y12299D01*
X199002Y12799D01*
X200502D01*
X195504Y9800D02*
X197503D01*
X195504Y11799D01*
Y12299D01*
X196003Y12799D01*
X197003D01*
X197503Y12299D01*
X108000Y12799D02*
Y9800D01*
X106001D01*
X103002Y12799D02*
X105001D01*
Y9800D01*
X103002D01*
X105001Y11299D02*
X104001D01*
X102002Y12799D02*
Y9800D01*
X100502D01*
X100003Y10300D01*
Y12299D01*
X100502Y12799D01*
X102002D01*
X99003Y9800D02*
X98003D01*
X98503D01*
Y12799D01*
X99003Y12299D01*
X350532Y9633D02*
X351532D01*
X351032D01*
Y7134D01*
X351532Y6634D01*
X352032D01*
X352532Y7134D01*
X349533Y9133D02*
X349033Y9633D01*
X348033D01*
X347533Y9133D01*
Y8633D01*
X348033Y8133D01*
X348533D01*
X348033D01*
X347533Y7633D01*
Y7134D01*
X348033Y6634D01*
X349033D01*
X349533Y7134D01*
X255601Y8199D02*
X256600D01*
X256101D01*
Y5700D01*
X256600Y5200D01*
X257100D01*
X257600Y5700D01*
X253101Y5200D02*
Y8199D01*
X254601Y6700D01*
X252602D01*
X151732Y9633D02*
X152732D01*
X152232D01*
Y7134D01*
X152732Y6634D01*
X153232D01*
X153732Y7134D01*
X148733Y9633D02*
X150733D01*
Y8133D01*
X149733Y8633D01*
X149233D01*
X148733Y8133D01*
Y7134D01*
X149233Y6634D01*
X150233D01*
X150733Y7134D01*
X283200Y21299D02*
X282200D01*
X282700D01*
Y18300D01*
X283200D01*
X282200D01*
X278701Y20799D02*
X279201Y21299D01*
X280201D01*
X280701Y20799D01*
Y18800D01*
X280201Y18300D01*
X279201D01*
X278701Y18800D01*
X277702Y20799D02*
X277202Y21299D01*
X276202D01*
X275702Y20799D01*
Y20299D01*
X276202Y19800D01*
X276702D01*
X276202D01*
X275702Y19300D01*
Y18800D01*
X276202Y18300D01*
X277202D01*
X277702Y18800D01*
X184600Y21399D02*
X183600D01*
X184100D01*
Y18400D01*
X184600D01*
X183600D01*
X180102Y20899D02*
X180601Y21399D01*
X181601D01*
X182101Y20899D01*
Y18900D01*
X181601Y18400D01*
X180601D01*
X180102Y18900D01*
X177102Y18400D02*
X179102D01*
X177102Y20399D01*
Y20899D01*
X177602Y21399D01*
X178602D01*
X179102Y20899D01*
X86100Y21199D02*
X85100D01*
X85600D01*
Y18200D01*
X86100D01*
X85100D01*
X81602Y20699D02*
X82101Y21199D01*
X83101D01*
X83601Y20699D01*
Y18700D01*
X83101Y18200D01*
X82101D01*
X81602Y18700D01*
X80602Y18200D02*
X79602D01*
X80102D01*
Y21199D01*
X80602Y20699D01*
X259801Y20201D02*
X259301Y20700D01*
Y21700D01*
X259801Y22200D01*
X261800D01*
X262300Y21700D01*
Y20700D01*
X261800Y20201D01*
X259801Y19201D02*
X259301Y18701D01*
Y17701D01*
X259801Y17202D01*
X260301D01*
X260801Y17701D01*
Y18201D01*
Y17701D01*
X261300Y17202D01*
X261800D01*
X262300Y17701D01*
Y18701D01*
X261800Y19201D01*
X161001Y20101D02*
X160501Y20601D01*
Y21600D01*
X161001Y22100D01*
X163000D01*
X163500Y21600D01*
Y20601D01*
X163000Y20101D01*
X163500Y17102D02*
Y19101D01*
X161501Y17102D01*
X161001D01*
X160501Y17601D01*
Y18601D01*
X161001Y19101D01*
X63001Y19401D02*
X62501Y19900D01*
Y20900D01*
X63001Y21400D01*
X65000D01*
X65500Y20900D01*
Y19900D01*
X65000Y19401D01*
X65500Y18401D02*
Y17401D01*
Y17901D01*
X62501D01*
X63001Y18401D01*
X50532Y9633D02*
X51532D01*
X51032D01*
Y7134D01*
X51532Y6634D01*
X52032D01*
X52531Y7134D01*
X47533Y9633D02*
X48533Y9133D01*
X49532Y8133D01*
Y7134D01*
X49033Y6634D01*
X48033D01*
X47533Y7134D01*
Y7633D01*
X48033Y8133D01*
X49532D01*
D29*
X72323Y28937D02*
X71585Y29363D01*
Y28511D01*
X72323Y28937D01*
X170748D02*
X170010Y29363D01*
Y28511D01*
X170748Y28937D01*
X269173D02*
X268435Y29363D01*
Y28511D01*
X269173Y28937D01*
D30*
X11496Y-3661D02*
X13425D01*
X11496Y-23661D02*
X13425D01*
X11496D02*
Y-3661D01*
X51496Y-23661D02*
Y-3661D01*
X49567D02*
X51496D01*
X49567Y-23661D02*
X51496D01*
X149961D02*
X151890D01*
X149961Y-3661D02*
X151890D01*
Y-23661D02*
Y-3661D01*
X111890Y-23661D02*
Y-3661D01*
Y-23661D02*
X113819D01*
X111890Y-3661D02*
X113819D01*
X248386Y-23669D02*
X250315D01*
X248386Y-3669D02*
X250315D01*
Y-23669D02*
Y-3669D01*
X210315Y-23669D02*
Y-3669D01*
Y-23669D02*
X212244D01*
X210315Y-3669D02*
X212244D01*
X348780Y-23661D02*
X350709D01*
X348780Y-3661D02*
X350709D01*
Y-23661D02*
Y-3661D01*
X310709Y-23661D02*
Y-3661D01*
Y-23661D02*
X312638D01*
X310709Y-3661D02*
X312638D01*
X200000Y25591D02*
X202362D01*
X298425Y25706D02*
X300787D01*
X101575Y25591D02*
X103937D01*
X92520Y15748D02*
Y23622D01*
X72835Y15748D02*
Y23622D01*
Y15748D02*
X92520D01*
X72835Y23622D02*
X92520D01*
X190945Y15748D02*
Y23622D01*
X171260Y15748D02*
Y23622D01*
Y15748D02*
X190945D01*
X171260Y23622D02*
X190945D01*
X289370Y15748D02*
Y23622D01*
X269685Y15748D02*
Y23622D01*
Y15748D02*
X289370D01*
X269685Y23622D02*
X289370D01*
X12309Y-25866D02*
X9685D01*
X12309Y-28490D01*
Y-29146D01*
X11653Y-29802D01*
X10341D01*
X9685Y-29146D01*
X11260Y2087D02*
X12572D01*
X11916D01*
Y-1849D01*
X11260Y-1193D01*
X50551Y-1849D02*
X53175D01*
Y-1193D01*
X50551Y1431D01*
Y2087D01*
Y-29146D02*
X51207Y-29802D01*
X52519D01*
X53175Y-29146D01*
Y-28490D01*
X52519Y-27834D01*
X53175Y-27178D01*
Y-26522D01*
X52519Y-25866D01*
X51207D01*
X50551Y-26522D01*
Y-27178D01*
X51207Y-27834D01*
X50551Y-28490D01*
Y-29146D01*
X51207Y-27834D02*
X52519D01*
X151077Y-1457D02*
X153701D01*
X151077Y1167D01*
Y1823D01*
X151733Y2479D01*
X153045D01*
X153701Y1823D01*
X152126Y-29409D02*
X150814D01*
X151470D01*
Y-25474D01*
X152126Y-26130D01*
X112835Y-25474D02*
X110211D01*
Y-26130D01*
X112835Y-28754D01*
Y-29409D01*
Y1823D02*
X112179Y2479D01*
X110867D01*
X110211Y1823D01*
Y1167D01*
X110867Y511D01*
X110211Y-145D01*
Y-801D01*
X110867Y-1457D01*
X112179D01*
X112835Y-801D01*
Y-145D01*
X112179Y511D01*
X112835Y1167D01*
Y1823D01*
X112179Y511D02*
X110867D01*
X249502Y-1465D02*
X252126D01*
X249502Y1159D01*
Y1815D01*
X250158Y2471D01*
X251470D01*
X252126Y1815D01*
X250551Y-29417D02*
X249239D01*
X249895D01*
Y-25482D01*
X250551Y-26138D01*
X211260Y-25482D02*
X208636D01*
Y-26138D01*
X211260Y-28761D01*
Y-29417D01*
Y1815D02*
X210604Y2471D01*
X209292D01*
X208636Y1815D01*
Y1159D01*
X209292Y503D01*
X208636Y-153D01*
Y-809D01*
X209292Y-1465D01*
X210604D01*
X211260Y-809D01*
Y-153D01*
X210604Y503D01*
X211260Y1159D01*
Y1815D01*
X210604Y503D02*
X209292D01*
X349896Y-1457D02*
X352520D01*
X349896Y1167D01*
Y1823D01*
X350552Y2479D01*
X351864D01*
X352520Y1823D01*
X350945Y-29409D02*
X349633D01*
X350289D01*
Y-25474D01*
X350945Y-26130D01*
X311653Y-25474D02*
X309030D01*
Y-26130D01*
X311653Y-28754D01*
Y-29409D01*
Y1823D02*
X310998Y2479D01*
X309686D01*
X309030Y1823D01*
Y1167D01*
X309686Y511D01*
X309030Y-145D01*
Y-801D01*
X309686Y-1457D01*
X310998D01*
X311653Y-801D01*
Y-145D01*
X310998Y511D01*
X311653Y1167D01*
Y1823D01*
X310998Y511D02*
X309686D01*
M02*
